<svg xmlns="http://www.w3.org/2000/svg" viewBox="0 0 196.251 196.251" fill="#28b663"><path d="M17.626 196.251a17.724 17.724 0 0 1-13.04-5.749c-6.393-6.981-6.003-17.848.886-24.738l1.391-1.39a64.694 64.694 0 0 1 5.812-5.152c17.642-13.84 51.646-43.272 59.678-51.303 10.3-10.301-4.942-29.231-9.859-34.788a28.69 28.69 0 0 0-1.158-1.274l-.345-.363a2.501 2.501 0 0 1 .026-3.509L89.561 39.44c1.336-1.482 20.978-23.208 30.119-30.084C129.181 2.21 138.211.145 138.591.061a2.494 2.494 0 0 1 2.31.673l2.924 2.924a2.5 2.5 0 0 1 .655 2.386 2.491 2.491 0 0 1 2.386.655l3.085 3.085a2.5 2.5 0 0 1 .645 2.425l-.443 1.624.576-.393a2.499 2.499 0 0 1 3.176.297l5.69 5.689c.601.601.855 1.466.676 2.296l-.854 3.953 2.648-1.342a2.5 2.5 0 0 1 2.898.462L167 26.832c.726.726.927 1.811.537 2.738a2.5 2.5 0 0 1 2.738.537l4.425 4.425a2.5 2.5 0 0 1 .44 2.941l-1.399 2.632 2.271-1.468c.991-.64 2.292-.5 3.125.332l4.021 4.021a2.5 2.5 0 0 1 .511 2.797l-.023.052a2.499 2.499 0 0 1 2.848.487l3.812 3.812a2.5 2.5 0 0 1 .511 2.796l-1.018 2.255 1.842-1.078a2.501 2.501 0 0 1 3.031.391l.812.813a2.5 2.5 0 0 1 .672 2.31c-.084.379-2.149 9.409-9.295 18.91-6.876 9.142-28.602 28.783-30.084 30.119l-28.545 28.544a2.498 2.498 0 0 1-1.768.732h-.004a2.503 2.503 0 0 1-1.77-.738l-.204-.192a3.926 3.926 0 0 1-.126-.132 48.65 48.65 0 0 0-.639-.596l.164-.2a2.07 2.07 0 0 1-.044-.133l-.219.241c-7.433-6.788-18.409-14.041-26.921-14.041-3.457 0-6.28 1.143-8.631 3.494-8.88 8.88-39.538 44.647-52.91 61.728a65.022 65.022 0 0 1-4.993 5.665l-.05.051-.002.003-.035.035-.122.122a17.578 17.578 0 0 1-12.332 5.014zm48.62-126.425l.019.022c5.621 6.352 23.01 28.218 9.623 41.605-8.113 8.114-42.378 37.778-60.127 51.702a59.832 59.832 0 0 0-5.362 4.754l-1.391 1.39c-4.909 4.91-5.239 12.907-.734 17.826 2.436 2.66 5.757 4.125 9.352 4.125 3.346 0 6.501-1.292 8.884-3.64a59.798 59.798 0 0 0 4.711-5.332c13.451-17.181 44.342-53.211 53.312-62.181 3.29-3.29 7.383-4.958 12.167-4.958 11.95 0 25.108 10.715 29.702 14.815l6.272-6.272-60.142-60.141-6.286 6.285zm9.821-9.821l60.142 60.142 15.308-15.308-60.142-60.141-15.308 15.307zM94.828 41.08l60.306 60.306c5.467-4.997 22.147-20.438 27.728-27.858a52.854 52.854 0 0 0 6.973-12.57l-4.281 2.504a2.5 2.5 0 1 1-3.541-3.187l3.534-7.825-1.008-1.008-5.834 4.667a2.498 2.498 0 0 1-3.095.022 2.498 2.498 0 0 1-.745-3.003l3.534-7.825-1.371-1.371-8.653 5.591a2.502 2.502 0 0 1-3.565-3.273l5.044-9.491-1.682-1.682-6.556 4.28a2.5 2.5 0 0 1-3.534-3.339l3.295-5.73-4.384 2.222a2.502 2.502 0 0 1-3.575-2.758L155.093 22l-3.262-3.261-4.47 3.048a2.5 2.5 0 0 1-3.82-2.723l1.847-6.77-.639-.638-3.459 2.212a2.5 2.5 0 0 1-2.883-.134c-.835-.651-1.17-1.758-.835-2.763l1.623-4.87-.805-.805c-2.667.803-9.105 3.092-15.706 8.057-7.418 5.58-22.859 22.26-27.856 27.727zM17.556 186.902a8.186 8.186 0 0 1-5.829-2.415 8.19 8.19 0 0 1-2.415-5.829 8.19 8.19 0 0 1 2.415-5.829 8.187 8.187 0 0 1 5.829-2.414c2.202 0 4.272.857 5.829 2.415 3.214 3.213 3.214 8.443 0 11.657a8.19 8.19 0 0 1-5.829 2.415zm0-11.486a3.22 3.22 0 0 0-2.293.95c-.613.613-.951 1.427-.951 2.293s.338 1.681.95 2.293c1.226 1.225 3.361 1.225 4.587 0a3.247 3.247 0 0 0 0-4.586 3.22 3.22 0 0 0-2.293-.95z"/></svg>