<svg id="двери" xmlns="http://www.w3.org/2000/svg" viewBox="0 0 300 300"><defs><style>.cls-3{fill:none;stroke-miterlimit:10;stroke:#232323}</style></defs><path d="M222.75 242.75h-181V23.25h181z" stroke-miterlimit="10" stroke="#75b870" stroke-width="3" fill="none"/><path d="M212.64 140.1h-77.22V40.72h77.22zm-84.87-99.38H53.88v99.38h73.89zM212.64 154h-77.22v76.4h77.22zm-83.72 0H54.64v76.4h74.28z" fill="#e8f1f9" stroke-miterlimit="10" stroke="#75b870" stroke-width="3"/><path class="cls-3" d="M223.75 243.75h35M223.75 22.75h35m-8 0v220"/><path d="M243.94 128.57a4.22 4.22 0 0 1-.64.06 2.87 2.87 0 0 1-1.14-.23 3.09 3.09 0 0 1-.92-.59 9.44 9.44 0 0 1-.72-.81c-.23-.3-.44-.6-.64-.9a9.48 9.48 0 0 0-.6-.81 2.89 2.89 0 0 0-.67-.6 1.43 1.43 0 0 0-.76-.23 1.31 1.31 0 0 0-1 .44 1.57 1.57 0 0 0-.39 1.1 1.76 1.76 0 0 0 .3 1 2.3 2.3 0 0 0 .78.74l-.58.87a3 3 0 0 1-1.16-1.09 2.89 2.89 0 0 1-.45-1.59A2.77 2.77 0 0 1 236 124a2.29 2.29 0 0 1 1.76-.74 2.56 2.56 0 0 1 1.22.3 3.13 3.13 0 0 1 .93.75c.24.3.49.63.75 1s.48.68.68 1a3.09 3.09 0 0 0 .71.77 1.49 1.49 0 0 0 .86.31v-4.22h1zM243.94 121.73h-1v-1.87h-6a2.29 2.29 0 0 1 .5.41l.76.79-.74.72-2-2v-1.05h7.44v-1.86h1zM244.09 112.75a2.79 2.79 0 0 1-.34 1.42 2.39 2.39 0 0 1-.95.94 5 5 0 0 1-1.38.49 9 9 0 0 1-1.72.15 9.06 9.06 0 0 1-1.73-.15 5.09 5.09 0 0 1-1.36-.49 2.45 2.45 0 0 1-1-.94 2.89 2.89 0 0 1-.33-1.42c0-2 1.45-3 4.37-3s4.44 1 4.44 3zm-1.09 0q0-1.77-3.3-1.77c-2.19 0-3.28.59-3.28 1.77s1.09 1.78 3.28 1.78 3.3-.59 3.3-1.78zM244.09 105.29a2.82 2.82 0 0 1-.34 1.42 2.3 2.3 0 0 1-.95.93 4.42 4.42 0 0 1-1.38.49 8.18 8.18 0 0 1-1.72.16 8.28 8.28 0 0 1-1.73-.16 4.49 4.49 0 0 1-1.36-.49 2.36 2.36 0 0 1-1-.93 2.92 2.92 0 0 1-.33-1.42c0-2 1.45-3 4.37-3s4.44 1 4.44 3zm-1.09 0c0-1.18-1.1-1.78-3.3-1.78s-3.28.6-3.28 1.78 1.09 1.78 3.28 1.78 3.3-.6 3.3-1.78zM78.54 254.15l.37-1a2.73 2.73 0 0 0 1.22.28 2.1 2.1 0 0 0 1.73-.85 4.08 4.08 0 0 0 .79-2 1.78 1.78 0 0 1-.78.58 2.72 2.72 0 0 1-1.09.22 2.53 2.53 0 0 1-1.94-.77 3.07 3.07 0 0 1 0-4 2.56 2.56 0 0 1 2-.81 2.82 2.82 0 0 1 2.29 1.08 4.5 4.5 0 0 1 .91 2.89 5.87 5.87 0 0 1-.22 1.66 5.71 5.71 0 0 1-.67 1.54 3.45 3.45 0 0 1-1.27 1.03 3.31 3.31 0 0 1-1.7.44 3.56 3.56 0 0 1-1.64-.29zm2.46-3.81a2.08 2.08 0 0 0 1.22-.38 1 1 0 0 0 .51-.83 2.55 2.55 0 0 0-.58-1.59 1.68 1.68 0 0 0-1.36-.73 1.42 1.42 0 0 0-1.12.49 1.87 1.87 0 0 0-.41 1.26 1.77 1.77 0 0 0 .48 1.29 1.64 1.64 0 0 0 1.26.49zM88.43 254.42a2.89 2.89 0 0 1-1.42-.33 2.3 2.3 0 0 1-.94-.94 4.75 4.75 0 0 1-.51-1.37 9.84 9.84 0 0 1-.17-1.73 9 9 0 0 1 .15-1.72A4.72 4.72 0 0 1 86 247a2.3 2.3 0 0 1 .93-1 2.73 2.73 0 0 1 1.41-.35q3 0 3 4.34t-2.91 4.43zm0-1.09c1.18 0 1.77-1.12 1.75-3.32s-.62-3.27-1.8-3.26-1.77 1.11-1.75 3.29.61 3.29 1.79 3.29zM95.89 254.36a3 3 0 0 1-1.42-.33 2.36 2.36 0 0 1-.94-.94 4.46 4.46 0 0 1-.5-1.37 9.68 9.68 0 0 1 0-3.45 4.72 4.72 0 0 1 .48-1.37 2.3 2.3 0 0 1 .93-1 2.78 2.78 0 0 1 1.41-.35q3 0 3 4.34t-2.96 4.47zm0-1.09c1.19 0 1.77-1.12 1.75-3.32s-.61-3.27-1.8-3.26-1.77 1.11-1.75 3.29.61 3.3 1.79 3.29zM170 254.15l.37-1a2.73 2.73 0 0 0 1.22.28 2.07 2.07 0 0 0 1.73-.85 4 4 0 0 0 .79-2 1.78 1.78 0 0 1-.78.58 2.72 2.72 0 0 1-1.09.22 2.53 2.53 0 0 1-1.94-.77 3.07 3.07 0 0 1 0-4 2.56 2.56 0 0 1 1.95-.81 2.82 2.82 0 0 1 2.29 1.08 4.5 4.5 0 0 1 .91 2.89 5.87 5.87 0 0 1-.22 1.66 5.58 5.58 0 0 1-.67 1.54 3.45 3.45 0 0 1-1.19 1.15 3.31 3.31 0 0 1-1.7.44 3.56 3.56 0 0 1-1.67-.41zm2.45-3.81a2.08 2.08 0 0 0 1.22-.38 1 1 0 0 0 .51-.82 2.56 2.56 0 0 0-.58-1.6 1.68 1.68 0 0 0-1.36-.73 1.39 1.39 0 0 0-1.12.5 1.83 1.83 0 0 0-.41 1.25 1.77 1.77 0 0 0 .48 1.29 1.64 1.64 0 0 0 1.3.49zM179.93 254.42a2.89 2.89 0 0 1-1.42-.33 2.3 2.3 0 0 1-.94-.94 4.75 4.75 0 0 1-.51-1.37 9.84 9.84 0 0 1-.17-1.73 9 9 0 0 1 .15-1.72 4.72 4.72 0 0 1 .48-1.37 2.3 2.3 0 0 1 .93-1 2.73 2.73 0 0 1 1.41-.35q3 0 3 4.34t-2.93 4.47zm0-1.09c1.18 0 1.77-1.12 1.75-3.32s-.62-3.27-1.8-3.26-1.77 1.11-1.75 3.29.61 3.29 1.79 3.29zM187.39 254.36A3 3 0 0 1 186 254a2.36 2.36 0 0 1-.94-.94 4.46 4.46 0 0 1-.5-1.37 9.68 9.68 0 0 1 0-3.45 4.72 4.72 0 0 1 .48-1.37 2.3 2.3 0 0 1 .93-1 2.78 2.78 0 0 1 1.41-.35q3 0 3 4.34t-2.99 4.5zm0-1.09c1.19 0 1.77-1.12 1.75-3.32s-.61-3.27-1.8-3.26-1.77 1.11-1.75 3.29.61 3.3 1.79 3.29z"/><path class="cls-3" d="M41.25 244.25v33m182-33v33M131.92 244.25v13.5m-90.17 15h181m-181-17h88.5m0 0h93"/><path d="M234.57 208.84a2.51 2.51 0 0 1-1.56-.57 4.85 4.85 0 0 1-.45-.43 4.39 4.39 0 0 1-.28-.36 2 2 0 0 1-1.67 1 2.15 2.15 0 0 1-1.59-.68 2.76 2.76 0 0 1-.65-2 2.94 2.94 0 0 1 .62-1.93 2 2 0 0 1 1.64-.73 2.54 2.54 0 0 1 1.29.34 4.67 4.67 0 0 1 .93.68 2.06 2.06 0 0 1 1.8-1.16 2.28 2.28 0 0 1 1.75.81 3 3 0 0 1 .73 2.1 3.07 3.07 0 0 1-.73 2.1 2.3 2.3 0 0 1-1.83.83zm-2.18-3.78a2.45 2.45 0 0 0-1.67-.77 1.15 1.15 0 0 0-.94.42 1.68 1.68 0 0 0-.34 1.1 1.58 1.58 0 0 0 .33 1.06 1.07 1.07 0 0 0 .84.38.93.93 0 0 0 .34-.05 1.82 1.82 0 0 0 .28-.13.91.91 0 0 0 .24-.24 2 2 0 0 0 .21-.27 2.44 2.44 0 0 0 .19-.34c.08-.15.13-.27.18-.36s.1-.23.17-.41zm2.09 2.57a1.46 1.46 0 0 0 1.13-.52 1.76 1.76 0 0 0 .45-1.2 1.87 1.87 0 0 0-.4-1.2 1.25 1.25 0 0 0-1-.5 1.06 1.06 0 0 0-.5.12 1.37 1.37 0 0 0-.41.42 5.38 5.38 0 0 0-.31.51 7 7 0 0 0-.31.68l-.29.65a2.05 2.05 0 0 0 1.64 1.04zM237.13 198.53a2.82 2.82 0 0 1-.34 1.42 2.34 2.34 0 0 1-.94.93 4.61 4.61 0 0 1-1.38.49 8.35 8.35 0 0 1-1.73.16 8.12 8.12 0 0 1-1.72-.16 4.45 4.45 0 0 1-1.37-.49 2.28 2.28 0 0 1-.94-.93 2.82 2.82 0 0 1-.34-1.42q0-3 4.37-3t4.39 3zm-1.09 0q0-1.77-3.3-1.77c-2.19 0-3.28.59-3.28 1.77s1.09 1.78 3.28 1.78 3.26-.6 3.26-1.78zM237.13 191.07a2.78 2.78 0 0 1-.34 1.41 2.43 2.43 0 0 1-.94.94 4.9 4.9 0 0 1-1.38.49 9.1 9.1 0 0 1-1.73.16 8.83 8.83 0 0 1-1.72-.16 4.73 4.73 0 0 1-1.37-.49 2.36 2.36 0 0 1-.94-.94 2.78 2.78 0 0 1-.34-1.41q0-3 4.37-3t4.39 3zm-1.09 0c0-1.19-1.1-1.78-3.3-1.78s-3.28.59-3.28 1.78 1.09 1.77 3.28 1.77 3.26-.59 3.26-1.77z"/><path class="cls-3" d="M224.28 154h18.47m-4 0v89"/><path d="M121.37 269.33v-1h1.87v-6a2.66 2.66 0 0 1-.41.49l-.79.77-.72-.74 2-2h1.06v7.44h1.86v1zM127.27 266.92a2.52 2.52 0 0 1 .56-1.56 4.8 4.8 0 0 1 .44-.45 2.93 2.93 0 0 1 .36-.28 2 2 0 0 1-.95-1.67 2.12 2.12 0 0 1 .68-1.59 2.72 2.72 0 0 1 2-.66 2.89 2.89 0 0 1 1.92.62A2 2 0 0 1 133 263a2.54 2.54 0 0 1-.34 1.29 4.39 4.39 0 0 1-.68.93 2 2 0 0 1 1.15 1.8 2.27 2.27 0 0 1-.8 1.75 3 3 0 0 1-2.1.73 3.11 3.11 0 0 1-2.1-.72 2.33 2.33 0 0 1-.86-1.86zm1.21-.1A1.43 1.43 0 0 0 129 268a1.8 1.8 0 0 0 1.2.45 1.88 1.88 0 0 0 1.2-.41 1.27 1.27 0 0 0 .5-1 1 1 0 0 0-.12-.49 1.39 1.39 0 0 0-.42-.42 5.38 5.38 0 0 0-.51-.31l-.68-.31-.66-.29a2.06 2.06 0 0 0-1.03 1.6zm2.57-2.09a2.44 2.44 0 0 0 .77-1.66 1.17 1.17 0 0 0-.42-.95 1.75 1.75 0 0 0-1.11-.34 1.51 1.51 0 0 0-1 .34 1.05 1.05 0 0 0-.39.84.88.88 0 0 0 .06.33 1 1 0 0 0 .13.28 1.28 1.28 0 0 0 .23.25l.28.21a3 3 0 0 0 .34.19l.36.17.4.18zM137.58 269.47a2.89 2.89 0 0 1-1.42-.33 2.36 2.36 0 0 1-.93-.95 4.91 4.91 0 0 1-.5-1.38 9.06 9.06 0 0 1-.15-1.73 9 9 0 0 1 .15-1.72 4.85 4.85 0 0 1 .5-1.37 2.34 2.34 0 0 1 .93-.94 2.9 2.9 0 0 1 1.42-.34q3 0 3 4.37t-3 4.39zm0-1.09q1.77 0 1.77-3.3c0-2.18-.59-3.28-1.77-3.28s-1.78 1.1-1.78 3.28.59 3.3 1.78 3.3zM145 269.47a2.88 2.88 0 0 1-1.41-.33 2.39 2.39 0 0 1-.94-.95 4.9 4.9 0 0 1-.49-1.38 8.28 8.28 0 0 1-.16-1.73 8.18 8.18 0 0 1 .16-1.72 4.84 4.84 0 0 1 .49-1.37 2.36 2.36 0 0 1 .94-.94 2.88 2.88 0 0 1 1.41-.34q3 0 3 4.37t-3 4.39zm0-1.09c1.19 0 1.78-1.1 1.78-3.3s-.59-3.28-1.78-3.28-1.77 1.1-1.77 3.28.63 3.3 1.77 3.3z"/></svg>