<svg xmlns="http://www.w3.org/2000/svg" viewBox="0 0 300 300"><path d="M193.5 258.5H96V39h97.5z" stroke-miterlimit="10" stroke="#75b870" stroke-width="3" fill="none"/><path d="M184.39 234.5h-79.28v-181h79.28z" fill="#e8f1f9" stroke-miterlimit="10" stroke="#75b870" stroke-width="3"/><path d="M217.69 129.32a4.22 4.22 0 0 1-.64.06 2.87 2.87 0 0 1-1.14-.23 3.09 3.09 0 0 1-.92-.59 9.44 9.44 0 0 1-.72-.81c-.23-.3-.44-.6-.64-.9a9.48 9.48 0 0 0-.6-.81 2.68 2.68 0 0 0-.67-.6 1.43 1.43 0 0 0-.76-.23 1.31 1.31 0 0 0-1 .44 1.56 1.56 0 0 0-.39 1.1 1.79 1.79 0 0 0 .3 1 2.3 2.3 0 0 0 .78.74l-.58.87a3 3 0 0 1-1.16-1.09 2.9 2.9 0 0 1-.45-1.6 2.76 2.76 0 0 1 .67-1.92 2.29 2.29 0 0 1 1.76-.74 2.56 2.56 0 0 1 1.22.3 3.13 3.13 0 0 1 .93.75c.24.3.49.63.75 1s.48.68.68 1a2.88 2.88 0 0 0 .71.76 1.5 1.5 0 0 0 .86.32v-4.22h1zM217.69 122.48h-1v-1.87h-5.99a2.29 2.29 0 0 1 .5.41l.76.79-.74.72-2-2v-1.06h7.44v-1.86h1zM217.84 113.5a2.79 2.79 0 0 1-.34 1.42 2.3 2.3 0 0 1-.95.93 4.69 4.69 0 0 1-1.38.5 9 9 0 0 1-1.72.15 9.06 9.06 0 0 1-1.73-.15 4.78 4.78 0 0 1-1.36-.5 2.36 2.36 0 0 1-1-.93 2.89 2.89 0 0 1-.33-1.42c0-2 1.45-3 4.37-3s4.44 1 4.44 3zm-1.09 0q0-1.77-3.3-1.77c-2.19 0-3.28.59-3.28 1.77s1.09 1.78 3.28 1.78 3.3-.59 3.3-1.78zM217.84 106a2.78 2.78 0 0 1-.34 1.41 2.32 2.32 0 0 1-.95.94 4.69 4.69 0 0 1-1.38.49 8.18 8.18 0 0 1-1.72.16 8.28 8.28 0 0 1-1.73-.16 4.77 4.77 0 0 1-1.36-.49 2.39 2.39 0 0 1-1-.94 2.88 2.88 0 0 1-.33-1.41c0-2 1.45-3 4.37-3s4.44 1 4.44 3zm-1.09 0c0-1.19-1.1-1.78-3.3-1.78s-3.28.59-3.28 1.78 1.09 1.77 3.28 1.77 3.3-.55 3.3-1.77zM134 277.9l.37-1a2.73 2.73 0 0 0 1.22.28 2.1 2.1 0 0 0 1.73-.85 4.08 4.08 0 0 0 .79-2 1.78 1.78 0 0 1-.78.58 2.72 2.72 0 0 1-1.09.22 2.53 2.53 0 0 1-1.94-.77 2.83 2.83 0 0 1-.76-2 2.89 2.89 0 0 1 .75-2.05 2.59 2.59 0 0 1 1.95-.8 2.82 2.82 0 0 1 2.29 1.08 4.5 4.5 0 0 1 .91 2.89 5.87 5.87 0 0 1-.22 1.66 5.71 5.71 0 0 1-.67 1.54 3.45 3.45 0 0 1-1.19 1.15 3.31 3.31 0 0 1-1.7.44 3.56 3.56 0 0 1-1.66-.37zm2.45-3.81a2.08 2.08 0 0 0 1.22-.38 1 1 0 0 0 .51-.83 2.55 2.55 0 0 0-.58-1.59 1.68 1.68 0 0 0-1.36-.73 1.42 1.42 0 0 0-1.12.49 1.87 1.87 0 0 0-.41 1.26 1.77 1.77 0 0 0 .48 1.29 1.64 1.64 0 0 0 1.3.49zM140.77 277l.67-.87a2.3 2.3 0 0 0 1.87.89 1.85 1.85 0 0 0 1.3-.49 1.54 1.54 0 0 0 .53-1.24 1.62 1.62 0 0 0-.55-1.24 2 2 0 0 0-1.38-.48 2.53 2.53 0 0 0-1.43.43l-.7-.25.39-4.2h4.29v1h-3.25l-.18 1.79-.06.44a2.32 2.32 0 0 1 1.1-.26 2.88 2.88 0 0 1 2.14.78 2.64 2.64 0 0 1 .84 2 2.72 2.72 0 0 1-.85 2 2.93 2.93 0 0 1-2.13.83 3.42 3.42 0 0 1-1.45-.29 3.24 3.24 0 0 1-1.15-.84zM150.68 278.11a2.77 2.77 0 0 1-1.41-.32 2.39 2.39 0 0 1-1-.94 4.91 4.91 0 0 1-.5-1.38 8.15 8.15 0 0 1-.17-1.72 8.36 8.36 0 0 1 .14-1.73 4.82 4.82 0 0 1 .48-1.37 2.43 2.43 0 0 1 .93-.95 2.89 2.89 0 0 1 1.41-.35c2 0 3 1.44 3 4.35s-.88 4.4-2.88 4.41zm0-1.09c1.19 0 1.77-1.11 1.75-3.31s-.61-3.27-1.8-3.26-1.76 1.1-1.75 3.29.61 3.26 1.79 3.26z"/><path d="M195 38.5h34.5m-34.44 221h34.44m-8-221v220M95 260v28m99-28v28m-99.5-5.5h99" stroke="#232323" stroke-miterlimit="10" fill="none"/></svg>