<svg xmlns="http://www.w3.org/2000/svg" viewBox="0 0 480.007 480.007">
  <path d="M480.002 224.007c.009-21.096-9.242-41.132-25.304-54.808a63.0946 63.0946 0 0 0 9.304-33.192c-.042-32.452-24.333-59.753-56.56-63.568.374-2.795.562-5.612.56-8.432C408.085 28.74 379.563.084 344.296.001c-20.752-.049-40.234 9.99-52.238 26.918-20.372-28.75-60.193-35.541-88.943-15.169a63.8123 63.8123 0 0 0-15.169 15.169c-20.485-28.74-60.389-35.432-89.129-14.948C79.542 25.709 69.44 48.976 72.562 72.439c-32.227 3.815-56.518 31.116-56.56 63.568a63.0946 63.0946 0 0 0 9.304 33.192C-4.959 194.991-8.585 240.435 17.207 270.7a71.9404 71.9404 0 0 0 8.099 8.099 63.0926 63.0926 0 0 0-9.304 33.208c.04 35.33 28.67 63.96 64 64h48v88h-24c-4.418 0-8 3.582-8 8s3.582 8 8 8h272c4.418 0 8-3.582 8-8s-3.582-8-8-8h-24v-88h48c35.33-.04 63.96-28.67 64-64a63.0946 63.0946 0 0 0-9.304-33.192c16.062-13.676 25.312-33.713 25.304-54.808zm-400 135.928c-26.471-.026-47.934-21.457-48-47.928a47.4552 47.4552 0 0 1 10.504-29.912c2.757-3.452 2.194-8.486-1.258-11.244-.167-.134-.34-.261-.518-.38-25.661-17.264-32.469-52.061-15.206-77.723a55.9878 55.9878 0 0 1 15.206-15.205c3.662-2.471 4.628-7.444 2.156-11.106-.12-.178-.247-.35-.38-.518a47.4552 47.4552 0 0 1-10.504-29.912c.026-26.499 21.501-47.974 48-48l2.072.112c2.587.129 5.07-1.03 6.632-3.096a7.9512 7.9512 0 0 0 1.336-7.2c-7.494-25.428 7.045-52.117 32.474-59.611 22.605-6.662 46.702 4.072 56.87 25.331 0 .08 0 .16-.056.24a62.9554 62.9554 0 0 0-2.304 9.184c-.096.536-.168 1.08-.248 1.6a60.2936 60.2936 0 0 0-.216 17.848c-32.236 3.817-56.53 31.13-56.56 63.592a63.0946 63.0946 0 0 0 9.304 33.192c-.144.128-.264.264-.408.392l-37.24-37.24c-3.178-3.069-8.243-2.981-11.312.197-2.994 3.1-2.994 8.015 0 11.115l37.696 37.696c-22.423 30.402-17.503 72.97 11.264 97.456a62.6035 62.6035 0 0 0-7.008 16.176l-28.64-28.64c-3.178-3.07-8.242-2.982-11.312.196-2.994 3.1-2.994 8.015 0 11.116l37.832 37.832c.064 1.112.08 2.232.2 3.32.08.752.232 1.472.336 2.208.208 1.48.416 2.952.728 4.4.184.864.44 1.696.656 2.544.328 1.28.656 2.568 1.064 3.816.288.888.632 1.736.96 2.608.44 1.168.88 2.344 1.392 3.48.384.864.8 1.704 1.224 2.544.544 1.096 1.104 2.176 1.704 3.2.472.8.976 1.6 1.488 2.4.64 1.016 1.296 2.008 1.992 2.976.552.8 1.128 1.544 1.72 2.296.728.944 1.488 1.848 2.272 2.744.632.72 1.272 1.432 1.928 2.12.8.864 1.688 1.688 2.568 2.504.44.416.848.88 1.304 1.28H80.002zm152 104.072h-88v-88h88v88zm8-360c-4.418 0-8 3.582-8 8v56.688l-36.344-36.344c-3.178-3.069-8.243-2.981-11.312.197-2.994 3.1-2.994 8.015 0 11.115l47.656 47.656v109.376l-34.344-34.344c-3.178-3.07-8.242-2.982-11.312.196-2.994 3.1-2.994 8.015 0 11.116l45.656 45.656v36.688h-48c-26.499-.026-47.974-21.501-48-48a47.4552 47.4552 0 0 1 10.504-29.912c2.757-3.452 2.194-8.486-1.258-11.244-.167-.134-.34-.261-.518-.38-25.661-17.264-32.469-52.061-15.206-77.723a55.9878 55.9878 0 0 1 15.206-15.205c3.662-2.471 4.628-7.444 2.156-11.106-.12-.178-.247-.35-.38-.518a47.4552 47.4552 0 0 1-10.504-29.912c.026-26.499 21.501-47.974 48-48l2.072.112a7.7419 7.7419 0 0 0 6.632-3.096 7.9512 7.9512 0 0 0 1.336-7.2 48.112 48.112 0 0 1-2.04-13.816c.004-2.953.286-5.899.84-8.8 0-.112 0-.232.048-.344.58-2.888 1.418-5.718 2.504-8.456 7.223-18.327 24.909-30.38 44.608-30.4 19.699.02 37.385 12.073 44.608 30.4a49.2595 49.2595 0 0 1 2.504 8.512c0 .112 0 .232.048.344.551 2.882.832 5.81.84 8.744a48.112 48.112 0 0 1-2.04 13.816 7.9512 7.9512 0 0 0 1.336 7.2 7.7971 7.7971 0 0 0 6.632 3.096l2.072-.112c26.499.026 47.974 21.501 48 48a47.4552 47.4552 0 0 1-10.504 29.912c-2.757 3.452-2.194 8.486 1.258 11.244.167.134.34.261.518.38 25.661 17.264 32.469 52.061 15.205 77.723a55.9981 55.9981 0 0 1-15.205 15.205c-3.662 2.471-4.628 7.444-2.156 11.106.12.178.247.35.38.518a47.4552 47.4552 0 0 1 10.504 29.912c-.026 26.499-21.501 47.974-48 48h-48v-109.24a7.7232 7.7232 0 0 0 1.656-1.104l52-52c3.07-3.178 2.982-8.242-.196-11.312-3.1-2.994-8.015-2.994-11.116 0l-42.344 42.344V112.007c0-4.419-3.582-8-8-8zm96 360h-88v-88h88v88zm101.115-182.43c.12.178.247.35.38.518a47.4552 47.4552 0 0 1 10.504 29.912c-.026 26.499-21.501 47.974-48 48H338.29c.456-.4.864-.864 1.304-1.28.88-.8 1.736-1.64 2.568-2.504.656-.688 1.296-1.4 1.928-2.12.8-.896 1.544-1.8 2.272-2.744.592-.752 1.168-1.512 1.72-2.296.696-.968 1.352-1.96 1.992-2.976.512-.8 1.016-1.6 1.488-2.4.6-1.056 1.16-2.136 1.704-3.2.416-.84.8-1.68 1.224-2.544.512-1.136.952-2.312 1.392-3.48.328-.872.672-1.72.96-2.608.408-1.248.736-2.536 1.064-3.816.216-.848.472-1.68.656-2.544.312-1.448.52-2.92.728-4.4.104-.736.256-1.456.336-2.208.249-2.285.375-4.582.376-6.88a63.0946 63.0946 0 0 0-9.304-33.192c15.099-12.897 24.189-31.468 25.112-51.304l29.848-29.848c3.07-3.178 2.982-8.242-.196-11.312-3.1-2.994-8.015-2.994-11.116 0l-20.488 20.488a71.8637 71.8637 0 0 0-23.16-37.6 63.0974 63.0974 0 0 0 9.304-33.232c-.042-32.452-24.333-59.753-56.56-63.568.806-5.928.725-11.944-.24-17.848-.08-.544-.152-1.088-.248-1.6a62.9554 62.9554 0 0 0-2.304-9.184c0-.08 0-.16-.056-.24 11.439-23.915 40.098-34.029 64.013-22.59 21.259 10.168 31.992 34.266 25.331 56.87a7.9512 7.9512 0 0 0 1.336 7.2 7.8251 7.8251 0 0 0 6.632 3.096l2.096-.136c26.499.026 47.974 21.501 48 48a47.4552 47.4552 0 0 1-10.504 29.912c-2.757 3.452-2.194 8.486 1.258 11.244.167.134.34.261.518.38 25.661 17.264 32.469 52.061 15.205 77.723a55.9981 55.9981 0 0 1-15.205 15.205c-3.663 2.471-4.628 7.444-2.157 11.106z"/>
</svg>
