<svg xmlns="http://www.w3.org/2000/svg" viewBox="0 0 265.49 300"><defs><style>.cls-1{fill:#fff;}.cls-1,.cls-2,.cls-3{stroke:#75b870;stroke-miterlimit:10;stroke-width:3px;}.cls-2{fill:#e8f1f9;}.cls-3{fill:#e2e2e2;}</style></defs><title>Монтажная область 10 копия 2</title><g id="окна"><path class="cls-1" d="M242,211.9H24.68V63.6H242Z"/><rect class="cls-1" x="166.03" y="212.48" width="76" height="65.02"/><path class="cls-2" d="M98.83,204H32.25V72.39H98.83Z"/><path class="cls-2" d="M166,204H99.44V72.39H166Z"/><path class="cls-2" d="M232.61,204H173.93V72.39h58.68Z"/><path class="cls-3" d="M232.61,271.32H173.93V218.66h58.68Z"/><path d="M16.61,150.82h-1V149H10.1l-.51,0v0a2.3,2.3,0,0,1,.49.41l.77.79-.75.72-2-2v-1.06h7.44v-1.86h1Z"/><path d="M15.58,145l-.87-.68a2.28,2.28,0,0,0,.91-1.86,1.88,1.88,0,0,0-.48-1.3,1.57,1.57,0,0,0-1.23-.54,1.61,1.61,0,0,0-1.25.54,2,2,0,0,0-.49,1.38,2.52,2.52,0,0,0,.42,1.42l-.25.7-4.2-.42V140h1v3.25l1.79.19.43.07v0a2.33,2.33,0,0,1-.25-1.11,2.91,2.91,0,0,1,.79-2.13,2.65,2.65,0,0,1,2-.82,2.7,2.7,0,0,1,2,.86,3,3,0,0,1,.81,2.14,3.59,3.59,0,0,1-.3,1.45A3.35,3.35,0,0,1,15.58,145Z"/><path d="M16.75,135.09a2.88,2.88,0,0,1-.33,1.41,2.45,2.45,0,0,1-1,.94,4.9,4.9,0,0,1-1.38.49,9,9,0,0,1-1.73.16,8.91,8.91,0,0,1-1.72-.16,4.73,4.73,0,0,1-1.37-.49,2.43,2.43,0,0,1-.94-.94A2.78,2.78,0,0,1,8,135.09q0-3,4.37-3T16.75,135.09Zm-1.09,0c0-1.19-1.1-1.78-3.3-1.78s-3.28.59-3.28,1.78,1.1,1.77,3.28,1.77S15.66,136.27,15.66,135.09Z"/><path d="M16.75,127.62a2.89,2.89,0,0,1-.33,1.42,2.36,2.36,0,0,1-1,.93,4.91,4.91,0,0,1-1.38.5,9.06,9.06,0,0,1-1.73.15,9,9,0,0,1-1.72-.15,4.74,4.74,0,0,1-1.37-.5,2.34,2.34,0,0,1-.94-.93A2.79,2.79,0,0,1,8,127.62q0-3,4.37-3T16.75,127.62Zm-1.09,0q0-1.77-3.3-1.77c-2.18,0-3.28.59-3.28,1.77s1.1,1.78,3.28,1.78S15.66,128.81,15.66,127.62Z"/><path d="M126.65,55.5a4.34,4.34,0,0,1-.06-.65,2.87,2.87,0,0,1,.23-1.14,3,3,0,0,1,.6-.91,6.36,6.36,0,0,1,.81-.73c.29-.22.59-.44.89-.64s.57-.4.82-.6a2.8,2.8,0,0,0,.59-.66,1.47,1.47,0,0,0,.23-.77,1.33,1.33,0,0,0-.43-1,1.6,1.6,0,0,0-1.11-.39,1.79,1.79,0,0,0-1,.3,2.27,2.27,0,0,0-.73.78l-.88-.59a3.18,3.18,0,0,1,1.09-1.16,2.93,2.93,0,0,1,1.6-.45,2.76,2.76,0,0,1,1.92.68,2.26,2.26,0,0,1,.74,1.76,2.52,2.52,0,0,1-.3,1.21,2.9,2.9,0,0,1-.75.93c-.3.25-.62.5-1,.75s-.68.49-1,.69a2.87,2.87,0,0,0-.76.71,1.48,1.48,0,0,0-.32.86h4.22v1Z"/><path d="M133.49,55.5v-1h1.88v-6h0a2.51,2.51,0,0,1-.4.49l-.8.77-.72-.74,2-2h1.06v7.44h1.86v1Z"/><path d="M139.33,54.47l.67-.87a2.29,2.29,0,0,0,1.86.92,1.91,1.91,0,0,0,1.31-.48,1.59,1.59,0,0,0,.54-1.24,1.64,1.64,0,0,0-.55-1.25,2,2,0,0,0-1.37-.49,2.53,2.53,0,0,0-1.43.42l-.7-.25.42-4.2h4.29v1h-3.26l-.19,1.79-.07.43h0A2.33,2.33,0,0,1,142,50a2.87,2.87,0,0,1,2.13.8,2.63,2.63,0,0,1,.82,2,2.7,2.7,0,0,1-.86,2,3,3,0,0,1-2.14.81,3.62,3.62,0,0,1-1.45-.3A3.22,3.22,0,0,1,139.33,54.47Z"/><path d="M149.23,55.64a2.89,2.89,0,0,1-1.42-.33,2.45,2.45,0,0,1-.94-1,5.23,5.23,0,0,1-.49-1.38,9.06,9.06,0,0,1-.15-1.73,9,9,0,0,1,.15-1.72,5.16,5.16,0,0,1,.49-1.37,2.43,2.43,0,0,1,.94-.94,2.9,2.9,0,0,1,1.42-.34q3,0,3,4.37T149.23,55.64Zm0-1.09q1.77,0,1.77-3.3T149.23,48c-1.19,0-1.78,1.09-1.78,3.27S148,54.55,149.23,54.55Z"/><path d="M247.66,147.7h1v1.87h6v0a2.3,2.3,0,0,1-.49-.41l-.77-.79.74-.72,2,2v1.05h-7.44v1.86h-1Z"/><path d="M247.86,154l1,.39a2.54,2.54,0,0,0-.29,1.21,2.1,2.1,0,0,0,.83,1.74,4.09,4.09,0,0,0,2,.8v0a1.69,1.69,0,0,1-.57-.78,2.76,2.76,0,0,1-.22-1.09,2.53,2.53,0,0,1,.79-1.94,3.07,3.07,0,0,1,4,0,2.59,2.59,0,0,1,.8,2,2.81,2.81,0,0,1-1.11,2.28,4.49,4.49,0,0,1-2.89.89,6.27,6.27,0,0,1-1.66-.23,5.88,5.88,0,0,1-1.53-.69,3.45,3.45,0,0,1-1.14-1.2,3.3,3.3,0,0,1-.44-1.69A3.71,3.71,0,0,1,247.86,154Zm3.8,2.49a2.07,2.07,0,0,0,.36,1.22,1,1,0,0,0,.82.52,2.6,2.6,0,0,0,1.61-.57,1.67,1.67,0,0,0,.73-1.35,1.42,1.42,0,0,0-.48-1.13,1.86,1.86,0,0,0-1.26-.42,1.8,1.8,0,0,0-1.29.47A1.64,1.64,0,0,0,251.66,156.44Z"/><path d="M248.69,160.7l.87.67a2.29,2.29,0,0,0-.92,1.86,1.91,1.91,0,0,0,.48,1.31,1.58,1.58,0,0,0,1.24.54,1.64,1.64,0,0,0,1.25-.55,2,2,0,0,0,.49-1.37,2.53,2.53,0,0,0-.42-1.43l.25-.7,4.2.42v4.29h-1v-3.26l-1.79-.19-.43-.07v0a2.33,2.33,0,0,1,.25,1.11,2.87,2.87,0,0,1-.8,2.13,2.63,2.63,0,0,1-2,.82,2.7,2.7,0,0,1-2-.86,3,3,0,0,1-.82-2.14,3.63,3.63,0,0,1,.31-1.45A3.22,3.22,0,0,1,248.69,160.7Z"/><path d="M247.51,170.6a2.9,2.9,0,0,1,.34-1.42,2.45,2.45,0,0,1,1-.94,5.23,5.23,0,0,1,1.38-.49,9.06,9.06,0,0,1,1.73-.15,9,9,0,0,1,1.72.15,5.16,5.16,0,0,1,1.37.49,2.43,2.43,0,0,1,.94.94,2.9,2.9,0,0,1,.34,1.42q0,3-4.37,3T247.51,170.6Zm1.1,0q0,1.77,3.3,1.77t3.27-1.77c0-1.19-1.09-1.78-3.27-1.78S248.61,169.41,248.61,170.6Z"/></g></svg>