<svg height="512pt" viewBox="-22 0 512 512" width="512pt" xmlns="http://www.w3.org/2000/svg">
  <path d="M263.207 35.0898L5.1016 294.7656l21.2109 21.211L284.418 56.3008c34-34 93.3125-33.9688 127.2812 0 35.082 35.0976 35.082 92.1953 0 127.2812L132.3828 464.4805c-23.4101 23.3633-61.4492 23.3945-84.8594 0-23.3945-23.3946-23.3945-61.4649 0-84.8594L326.8398 98.7383c11.6875-11.6875 30.7461-11.6875 42.4375 0s11.6875 30.7187 0 42.4219L111.172 400.832l21.211 21.211 258.1054-259.672c23.3789-23.41 23.3789-61.4647 0-84.8437-23.4219-23.4257-61.4649-23.3945-84.8594 0L26.3125 358.4102c-35.082 35.0859-35.082 92.1836 0 127.2812 35.0977 35.0703 92.164 35.086 127.2812 0L432.9102 204.793c46.7851-46.7735 46.7851-122.9024 0-169.7032-46.8008-46.8007-122.9297-46.7734-169.7032 0zm0 0"/>
</svg>
