<svg id="двери" xmlns="http://www.w3.org/2000/svg" viewBox="0 0 300 300"><defs><style>.cls-4{fill:none;stroke-miterlimit:10;stroke:#232323}</style></defs><path stroke-miterlimit="10" stroke="#75b870" stroke-width="3" fill="none" d="M91 32h158.5v219.5H91z"/><path d="M240.39 148.85h-79.28V49.47h79.28zM151 49.47h-48.5v99.38H151z" fill="#e8f1f9" stroke-miterlimit="10" stroke="#75b870" stroke-width="3"/><path d="M240.39 239.49h-79.28V162.7h79.28zm-88.64-76.79H103v76.45h48.75z" fill="#e2e2e2" stroke-miterlimit="10" stroke="#75b870" stroke-width="3"/><path class="cls-4" d="M250.5 31.5h35M250.5 252.5h35M277.5 31.5v220"/><path d="M270.69 137.32a4.22 4.22 0 0 1-.64.06 2.87 2.87 0 0 1-1.14-.23 3.09 3.09 0 0 1-.92-.59 9.44 9.44 0 0 1-.72-.81c-.23-.3-.44-.6-.64-.9a9.48 9.48 0 0 0-.6-.81 2.68 2.68 0 0 0-.67-.6 1.43 1.43 0 0 0-.76-.23 1.31 1.31 0 0 0-1 .44 1.56 1.56 0 0 0-.39 1.1 1.79 1.79 0 0 0 .3 1 2.3 2.3 0 0 0 .78.74l-.58.87a3 3 0 0 1-1.16-1.09 2.9 2.9 0 0 1-.45-1.6 2.76 2.76 0 0 1 .67-1.92 2.29 2.29 0 0 1 1.76-.74 2.56 2.56 0 0 1 1.22.3 3.13 3.13 0 0 1 .93.75c.24.3.49.63.75 1s.48.68.68 1a2.88 2.88 0 0 0 .71.76 1.5 1.5 0 0 0 .86.32v-4.22h1zM270.69 130.48h-1v-1.87h-5.99a2.29 2.29 0 0 1 .5.41l.76.79-.74.72-2-2v-1.06h7.44v-1.86h1zM270.84 121.5a2.79 2.79 0 0 1-.34 1.42 2.3 2.3 0 0 1-.95.93 4.69 4.69 0 0 1-1.38.5 9 9 0 0 1-1.72.15 9.06 9.06 0 0 1-1.73-.15 4.78 4.78 0 0 1-1.36-.5 2.36 2.36 0 0 1-.95-.93 2.89 2.89 0 0 1-.33-1.42c0-2 1.45-3 4.37-3s4.39 1 4.39 3zm-1.09 0q0-1.77-3.3-1.77c-2.19 0-3.28.59-3.28 1.77s1.09 1.78 3.28 1.78 3.3-.59 3.3-1.78zM270.84 114a2.78 2.78 0 0 1-.34 1.41 2.32 2.32 0 0 1-.95.94 4.69 4.69 0 0 1-1.38.49 8.18 8.18 0 0 1-1.72.16 8.28 8.28 0 0 1-1.73-.16 4.77 4.77 0 0 1-1.36-.49 2.39 2.39 0 0 1-.95-.94 2.88 2.88 0 0 1-.33-1.41c0-2 1.45-3 4.37-3s4.39 1 4.39 3zm-1.09 0c0-1.19-1.1-1.78-3.3-1.78s-3.28.59-3.28 1.78 1.09 1.77 3.28 1.77 3.3-.55 3.3-1.77zM158.72 279.1v-1h1.87v-5.99a2.5 2.5 0 0 1-.4.5l-.79.77-.73-.74 2-2h1l.06 7.44h1.86v1zM164.54 278l.66-.87a2.31 2.31 0 0 0 1.87.89 1.87 1.87 0 0 0 1.31-.49 1.56 1.56 0 0 0 .52-1.24 1.58 1.58 0 0 0-.55-1.24 2 2 0 0 0-1.38-.48 2.5 2.5 0 0 0-1.42.43l-.7-.25.39-4.2h4.28v1h-3.25l-.18 1.79-.07.44a2.33 2.33 0 0 1 1.11-.26 2.9 2.9 0 0 1 2.14.78 2.65 2.65 0 0 1 .83 2 2.71 2.71 0 0 1-.84 2 3 3 0 0 1-2.14.83 3.45 3.45 0 0 1-1.45-.29 3.12 3.12 0 0 1-1.13-.84zM174.45 279.12a2.79 2.79 0 0 1-1.42-.32 2.45 2.45 0 0 1-.95-.94 5.24 5.24 0 0 1-.5-1.38 8.86 8.86 0 0 1-.17-1.72 9.06 9.06 0 0 1 .15-1.73 4.54 4.54 0 0 1 .48-1.37 2.47 2.47 0 0 1 .92-1 2.9 2.9 0 0 1 1.42-.35q3 0 3 4.35t-2.93 4.46zm0-1.09c1.18 0 1.77-1.11 1.75-3.31s-.62-3.27-1.8-3.26-1.77 1.1-1.75 3.29.6 3.25 1.79 3.25zM181.91 279.07a2.92 2.92 0 0 1-1.42-.33 2.36 2.36 0 0 1-.94-.94 4.52 4.52 0 0 1-.5-1.38 8.15 8.15 0 0 1-.17-1.72 8.36 8.36 0 0 1 .12-1.7 4.82 4.82 0 0 1 .48-1.37 2.43 2.43 0 0 1 .93-1 2.88 2.88 0 0 1 1.41-.34q3 0 3 4.34t-2.91 4.44zm0-1.1c1.19 0 1.77-1.11 1.75-3.31s-.62-3.27-1.8-3.26-1.77 1.1-1.75 3.29.61 3.31 1.79 3.31zM115.94 259.26a6 6 0 0 1 .13-1.33 5.54 5.54 0 0 1 .44-1.3 4.48 4.48 0 0 1 .73-1.1 3 3 0 0 1 1.07-.77 3.21 3.21 0 0 1 1.39-.3 3.85 3.85 0 0 1 1.66.33l-.38 1a2.64 2.64 0 0 0-1.22-.27 2.08 2.08 0 0 0-1.72.85 4.08 4.08 0 0 0-.79 2 1.9 1.9 0 0 1 .78-.58 2.91 2.91 0 0 1 1.09-.22 2.53 2.53 0 0 1 1.94.77 3.05 3.05 0 0 1 0 4 2.54 2.54 0 0 1-2 .81 2.78 2.78 0 0 1-2.27-1.08 4.35 4.35 0 0 1-.85-2.81zm3.22 2.87a1.36 1.36 0 0 0 1.09-.5 1.84 1.84 0 0 0 .41-1.24 1.8 1.8 0 0 0-.48-1.3 1.62 1.62 0 0 0-1.27-.48 2.1 2.1 0 0 0-1.21.35 1.05 1.05 0 0 0-.51.91 2.46 2.46 0 0 0 .57 1.52 1.67 1.67 0 0 0 1.4.74zM126.18 263.17a2.89 2.89 0 0 1-1.42-.33 2.3 2.3 0 0 1-.94-.94 4.75 4.75 0 0 1-.51-1.37 9.84 9.84 0 0 1-.17-1.73 9 9 0 0 1 .15-1.72 4.72 4.72 0 0 1 .48-1.37 2.3 2.3 0 0 1 .93-1 2.73 2.73 0 0 1 1.41-.35q3 0 3 4.34t-2.93 4.47zm0-1.09c1.18 0 1.77-1.12 1.75-3.32s-.62-3.27-1.8-3.26-1.77 1.11-1.75 3.29.62 3.29 1.79 3.29zM133.64 263.11a2.92 2.92 0 0 1-1.42-.33 2.36 2.36 0 0 1-.94-.94 4.46 4.46 0 0 1-.5-1.37 9.68 9.68 0 0 1 0-3.45 4.72 4.72 0 0 1 .48-1.37 2.3 2.3 0 0 1 .93-1 2.78 2.78 0 0 1 1.41-.35q3 0 3 4.34t-2.96 4.47zm0-1.09c1.19 0 1.77-1.12 1.75-3.32s-.61-3.27-1.8-3.26-1.77 1.11-1.75 3.29.61 3.27 1.79 3.27zM196.79 262.9l.37-1a2.73 2.73 0 0 0 1.22.28 2.07 2.07 0 0 0 1.73-.85 4 4 0 0 0 .79-2 1.78 1.78 0 0 1-.78.58 2.72 2.72 0 0 1-1.09.22 2.53 2.53 0 0 1-1.94-.77 3.07 3.07 0 0 1 0-4 2.56 2.56 0 0 1 1.95-.81 2.82 2.82 0 0 1 2.29 1.08 4.5 4.5 0 0 1 .91 2.89 5.87 5.87 0 0 1-.22 1.66 5.58 5.58 0 0 1-.67 1.54 3.45 3.45 0 0 1-1.19 1.15 3.31 3.31 0 0 1-1.7.44 3.56 3.56 0 0 1-1.67-.41zm2.45-3.81a2.08 2.08 0 0 0 1.22-.38 1 1 0 0 0 .51-.82 2.56 2.56 0 0 0-.58-1.6 1.68 1.68 0 0 0-1.36-.73 1.39 1.39 0 0 0-1.12.5 1.83 1.83 0 0 0-.41 1.25 1.77 1.77 0 0 0 .48 1.29 1.64 1.64 0 0 0 1.26.49zM206.68 263.17a2.89 2.89 0 0 1-1.42-.33 2.3 2.3 0 0 1-.94-.94 4.75 4.75 0 0 1-.51-1.37 9.84 9.84 0 0 1-.17-1.73 9 9 0 0 1 .15-1.72 4.72 4.72 0 0 1 .48-1.37 2.3 2.3 0 0 1 .93-1 2.73 2.73 0 0 1 1.41-.35q3 0 3 4.34t-2.93 4.47zm0-1.09c1.18 0 1.77-1.12 1.75-3.32s-.62-3.27-1.8-3.26-1.77 1.11-1.75 3.29.6 3.29 1.79 3.29zM214.14 263.11a2.92 2.92 0 0 1-1.42-.33 2.36 2.36 0 0 1-.94-.94 4.46 4.46 0 0 1-.5-1.37 9.68 9.68 0 0 1 0-3.45 4.72 4.72 0 0 1 .48-1.37 2.3 2.3 0 0 1 .93-1 2.78 2.78 0 0 1 1.41-.35q3 0 3 4.34t-2.96 4.47zm0-1.09c1.19 0 1.77-1.12 1.75-3.32s-.61-3.27-1.8-3.26-1.77 1.11-1.75 3.29.66 3.27 1.79 3.27z"/><path class="cls-4" d="M250 253v33M90 253v33m0-4.5h159.5M90 264.5h66.67M156.67 253v13.5m.33-2h93"/><path d="M260.77 218.32a2.51 2.51 0 0 1-.86-.15 2.27 2.27 0 0 1-.7-.41c-.19-.17-.34-.31-.45-.43a2.93 2.93 0 0 1-.28-.36 2 2 0 0 1-1.67.95 2.09 2.09 0 0 1-1.59-.69 2.68 2.68 0 0 1-.66-1.95 2.9 2.9 0 0 1 .62-1.93 2 2 0 0 1 1.64-.74 2.55 2.55 0 0 1 1.29.35 4.14 4.14 0 0 1 .93.67 2 2 0 0 1 1.8-1.15 2.3 2.3 0 0 1 1.75.8 3 3 0 0 1 .73 2.1 3.1 3.1 0 0 1-.72 2.1 2.33 2.33 0 0 1-1.83.84zm-2.19-3.78a2.43 2.43 0 0 0-1.66-.76 1.17 1.17 0 0 0-1 .42 1.72 1.72 0 0 0-.34 1.1 1.54 1.54 0 0 0 .34 1.06 1.07 1.07 0 0 0 .84.38 1.14 1.14 0 0 0 .33-.05 1 1 0 0 0 .28-.14 1.28 1.28 0 0 0 .25-.23l.21-.28a3 3 0 0 0 .19-.34c.07-.15.13-.26.17-.36s.1-.22.18-.4zm2.09 2.57a1.45 1.45 0 0 0 1.14-.51 1.79 1.79 0 0 0 .45-1.2 1.84 1.84 0 0 0-.41-1.2 1.24 1.24 0 0 0-1-.51.93.93 0 0 0-.5.13 1.25 1.25 0 0 0-.42.41c-.12.19-.23.37-.31.52s-.18.38-.31.68-.22.51-.29.65a2 2 0 0 0 1.65 1.03zM263.32 208a2.88 2.88 0 0 1-.33 1.41 2.39 2.39 0 0 1-.95.94 4.9 4.9 0 0 1-1.38.49 9 9 0 0 1-1.73.16 8.91 8.91 0 0 1-1.72-.16 4.84 4.84 0 0 1-1.37-.49 2.36 2.36 0 0 1-.94-.94 2.88 2.88 0 0 1-.34-1.41q0-3 4.37-3t4.39 3zm-1.09 0c0-1.19-1.1-1.78-3.3-1.78s-3.27.59-3.27 1.78 1.09 1.77 3.27 1.77 3.3-.57 3.3-1.77zM263.32 200.55A2.89 2.89 0 0 1 263 202a2.45 2.45 0 0 1-.95.94 5.23 5.23 0 0 1-1.38.49 9.06 9.06 0 0 1-1.73.15 9 9 0 0 1-1.72-.15 5.16 5.16 0 0 1-1.37-.49 2.43 2.43 0 0 1-.94-.94 2.9 2.9 0 0 1-.34-1.42q0-3 4.37-3t4.38 2.97zm-1.09 0q0-1.77-3.3-1.77t-3.27 1.77c0 1.19 1.09 1.78 3.27 1.78s3.3-.59 3.3-1.78z"/><path class="cls-4" d="M250.48 163.44h18.46m-4 0v89"/></svg>