<svg id="двери" xmlns="http://www.w3.org/2000/svg" viewBox="0 0 300 300"><defs><style>.cls-3{fill:none;stroke-miterlimit:10;stroke:#232323}</style></defs><path d="M231 245.79H50V26.29h181z" stroke-miterlimit="10" stroke="#75b870" stroke-width="3" fill="none"/><path d="M220.89 233.43h-77.22V43.76h77.22zM136 43.76H62.13v189.67H136z" fill="#e8f1f9" stroke-miterlimit="10" stroke="#75b870" stroke-width="3"/><path class="cls-3" d="M232 25.79h35m-35 221h35m-8-221v220"/><path d="M252.19 129.3a4.22 4.22 0 0 1-.64.06 2.87 2.87 0 0 1-1.14-.23 3.09 3.09 0 0 1-.92-.59 9.44 9.44 0 0 1-.72-.81c-.23-.3-.44-.6-.64-.9a9.48 9.48 0 0 0-.6-.81 2.89 2.89 0 0 0-.67-.6 1.42 1.42 0 0 0-.76-.22 1.3 1.3 0 0 0-1 .43 1.57 1.57 0 0 0-.39 1.1 1.76 1.76 0 0 0 .3 1 2.3 2.3 0 0 0 .78.74l-.58.87a3 3 0 0 1-1.16-1.09 2.89 2.89 0 0 1-.45-1.59 2.77 2.77 0 0 1 .67-1.93A2.29 2.29 0 0 1 246 124a2.56 2.56 0 0 1 1.22.3 3.13 3.13 0 0 1 .93.75c.24.3.49.63.75 1s.48.68.68 1a3.09 3.09 0 0 0 .71.77 1.49 1.49 0 0 0 .86.31v-4.22h1zM252.19 122.46h-1v-1.87h-6a2.29 2.29 0 0 1 .5.41l.76.79-.74.72-2-2v-1h7.44v-1.86h1zM252.34 113.48a2.79 2.79 0 0 1-.34 1.42 2.39 2.39 0 0 1-.95.94 5 5 0 0 1-1.38.49 9 9 0 0 1-1.72.15 9.06 9.06 0 0 1-1.73-.15 5.09 5.09 0 0 1-1.36-.49 2.45 2.45 0 0 1-1-.94 2.89 2.89 0 0 1-.33-1.42c0-2 1.45-3 4.37-3s4.44 1 4.44 3zm-1.09 0q0-1.77-3.3-1.77c-2.19 0-3.28.59-3.28 1.77s1.09 1.78 3.28 1.78 3.3-.59 3.3-1.78zM252.34 106a2.82 2.82 0 0 1-.34 1.42 2.3 2.3 0 0 1-.95.93 4.42 4.42 0 0 1-1.38.49 8.18 8.18 0 0 1-1.67.16 8.28 8.28 0 0 1-1.73-.16 4.49 4.49 0 0 1-1.36-.49 2.36 2.36 0 0 1-1-.93 2.92 2.92 0 0 1-.33-1.42c0-2 1.45-3 4.37-3s4.39 1 4.39 3zm-1.09 0c0-1.18-1.1-1.78-3.3-1.78s-3.28.6-3.28 1.78 1.09 1.78 3.28 1.78 3.3-.58 3.3-1.78zM86.77 257.22l.37-1a2.73 2.73 0 0 0 1.22.28 2.1 2.1 0 0 0 1.73-.85 4.08 4.08 0 0 0 .79-2 1.79 1.79 0 0 1-.78.59 2.91 2.91 0 0 1-1.09.22 2.51 2.51 0 0 1-1.94-.78 2.79 2.79 0 0 1-.76-2 2.88 2.88 0 0 1 .69-2.08 2.64 2.64 0 0 1 1.95-.81 2.85 2.85 0 0 1 2.29 1.09 4.45 4.45 0 0 1 .91 2.88 5.94 5.94 0 0 1-.22 1.67 5.52 5.52 0 0 1-.63 1.57 3.36 3.36 0 0 1-1.19 1.15 3.31 3.31 0 0 1-1.69.45 3.71 3.71 0 0 1-1.65-.38zm2.45-3.81a2.07 2.07 0 0 0 1.22-.37 1 1 0 0 0 .51-.83 2.56 2.56 0 0 0-.58-1.6 1.65 1.65 0 0 0-1.36-.72 1.39 1.39 0 0 0-1.12.49 1.87 1.87 0 0 0-.41 1.26 1.75 1.75 0 0 0 .48 1.28 1.61 1.61 0 0 0 1.26.49zM96.66 257.49a2.81 2.81 0 0 1-1.42-.32 2.36 2.36 0 0 1-.94-.94 4.92 4.92 0 0 1-.51-1.38 9.72 9.72 0 0 1-.17-1.72 9.06 9.06 0 0 1 .15-1.73 4.82 4.82 0 0 1 .48-1.37 2.43 2.43 0 0 1 .93-.95 2.86 2.86 0 0 1 1.41-.35q3 0 3 4.35t-2.93 4.41zm0-1.09c1.18 0 1.77-1.11 1.75-3.31s-.62-3.27-1.8-3.26-1.77 1.1-1.75 3.29.61 3.29 1.79 3.28zM104.12 257.43a2.84 2.84 0 0 1-1.42-.32 2.36 2.36 0 0 1-.94-.94 4.91 4.91 0 0 1-.5-1.38 8.15 8.15 0 0 1-.17-1.72 8.36 8.36 0 0 1 .14-1.73 4.82 4.82 0 0 1 .48-1.37 2.43 2.43 0 0 1 .93-.95 2.89 2.89 0 0 1 1.41-.35q3 0 3 4.35t-2.93 4.41zm0-1.09c1.19 0 1.77-1.11 1.75-3.31s-.61-3.27-1.8-3.26-1.77 1.1-1.75 3.29.61 3.29 1.79 3.28zM178.27 257.22l.37-1a2.73 2.73 0 0 0 1.22.28 2.08 2.08 0 0 0 1.73-.85 4.08 4.08 0 0 0 .79-2 1.72 1.72 0 0 1-.78.59 2.91 2.91 0 0 1-1.09.22 2.51 2.51 0 0 1-1.94-.78 2.79 2.79 0 0 1-.76-2 2.88 2.88 0 0 1 .75-2.05 2.64 2.64 0 0 1 2-.81 2.85 2.85 0 0 1 2.29 1.09 4.45 4.45 0 0 1 .91 2.88 6 6 0 0 1-.89 3.2 3.36 3.36 0 0 1-1.19 1.15 3.31 3.31 0 0 1-1.69.45 3.71 3.71 0 0 1-1.72-.37zm2.45-3.81a2.07 2.07 0 0 0 1.22-.37 1 1 0 0 0 .51-.83 2.56 2.56 0 0 0-.58-1.6 1.66 1.66 0 0 0-1.36-.72 1.39 1.39 0 0 0-1.12.49 1.87 1.87 0 0 0-.41 1.26 1.78 1.78 0 0 0 .48 1.28 1.61 1.61 0 0 0 1.26.49zM188.16 257.49a2.81 2.81 0 0 1-1.42-.32 2.36 2.36 0 0 1-.94-.94 4.92 4.92 0 0 1-.51-1.38 8.91 8.91 0 0 1-.16-1.72 8.36 8.36 0 0 1 .14-1.73 4.82 4.82 0 0 1 .48-1.37 2.43 2.43 0 0 1 .93-.95 2.89 2.89 0 0 1 1.41-.35q3 0 3 4.35t-2.93 4.41zm0-1.09c1.18 0 1.77-1.11 1.75-3.31s-.62-3.27-1.8-3.26-1.77 1.1-1.75 3.29.64 3.29 1.79 3.28zM195.62 257.44a3 3 0 0 1-1.42-.33 2.36 2.36 0 0 1-.94-.94 4.91 4.91 0 0 1-.5-1.38 8.15 8.15 0 0 1-.17-1.72 8.36 8.36 0 0 1 .14-1.73 4.82 4.82 0 0 1 .48-1.37 2.43 2.43 0 0 1 .93-.95 3 3 0 0 1 1.41-.35c2 0 3 1.44 3 4.35s-.93 4.4-2.93 4.42zm0-1.1c1.19 0 1.77-1.11 1.75-3.31s-.61-3.27-1.8-3.26-1.77 1.1-1.75 3.29.61 3.29 1.79 3.28z"/><path class="cls-3" d="M231.5 247.29v33M49.5 247.29v33m90.67-33v13.5m-90.17 15h181m-181-17h88.5m0 0h93"/><path d="M126.86 272.64v-1h1.87v-6a2.66 2.66 0 0 1-.41.49l-.79.77-.72-.74 2-2h1v7.44h1.86v1zM132.76 270.23a2.3 2.3 0 0 1 .16-.86 2.09 2.09 0 0 1 .41-.7 4.85 4.85 0 0 1 .43-.45 2.93 2.93 0 0 1 .36-.28 2 2 0 0 1-1-1.67 2.13 2.13 0 0 1 .68-1.59 2.72 2.72 0 0 1 2-.66 2.94 2.94 0 0 1 1.93.62 2 2 0 0 1 .73 1.64 2.51 2.51 0 0 1-.34 1.29 4.15 4.15 0 0 1-.68.93 2.06 2.06 0 0 1 1.16 1.8 2.28 2.28 0 0 1-.81 1.75 3 3 0 0 1-2.1.73 3.11 3.11 0 0 1-2.1-.72 2.33 2.33 0 0 1-.83-1.83zm1.21-.1a1.46 1.46 0 0 0 .52 1.14 1.76 1.76 0 0 0 1.2.45 1.88 1.88 0 0 0 1.2-.41 1.23 1.23 0 0 0 .5-1 1 1 0 0 0-.12-.5 1.29 1.29 0 0 0-.42-.42c-.19-.12-.36-.23-.51-.31s-.38-.18-.68-.31-.52-.22-.65-.29a2.05 2.05 0 0 0-1.01 1.65zm2.57-2.09a2.44 2.44 0 0 0 .77-1.66 1.17 1.17 0 0 0-.42-.95 1.74 1.74 0 0 0-1.1-.34 1.59 1.59 0 0 0-1.06.34 1 1 0 0 0-.38.84.88.88 0 0 0 .05.33 1.46 1.46 0 0 0 .13.28 1.1 1.1 0 0 0 .24.25l.27.21.34.19.36.17.41.18zM143.07 272.78a2.92 2.92 0 0 1-1.42-.33 2.36 2.36 0 0 1-.93-.95 4.61 4.61 0 0 1-.49-1.38 8.28 8.28 0 0 1-.16-1.73 8.18 8.18 0 0 1 .16-1.72 4.55 4.55 0 0 1 .49-1.37 2.34 2.34 0 0 1 .93-.94 2.92 2.92 0 0 1 1.42-.34q3 0 3 4.37t-3 4.39zm0-1.09c1.18 0 1.78-1.1 1.78-3.3s-.6-3.27-1.78-3.27-1.78 1.09-1.78 3.27.6 3.3 1.78 3.3zM150.53 272.78a2.88 2.88 0 0 1-1.41-.33 2.45 2.45 0 0 1-.94-.95 4.9 4.9 0 0 1-.49-1.38 9 9 0 0 1-.16-1.73 8.91 8.91 0 0 1 .16-1.72 4.84 4.84 0 0 1 .49-1.37 2.43 2.43 0 0 1 .94-.94 2.88 2.88 0 0 1 1.41-.34q3 0 3 4.37t-3 4.39zm0-1.09c1.19 0 1.78-1.1 1.78-3.3s-.59-3.27-1.78-3.27-1.77 1.09-1.77 3.27.59 3.3 1.77 3.3z"/></svg>