<svg id="двери" xmlns="http://www.w3.org/2000/svg" viewBox="0 0 300 300"><defs><style>.cls-3{fill:none;stroke-miterlimit:10;stroke:#232323}</style></defs><path d="M185 257.5H87.5V38H185z" stroke-miterlimit="10" stroke="#75b870" stroke-width="3" fill="none"/><path d="M175.89 154.85H96.61V55.47h79.28zm0 14.19H96.61v76.45h79.28z" fill="#e8f1f9" stroke-miterlimit="10" stroke="#75b870" stroke-width="3"/><path d="M209.53 129.32a4.46 4.46 0 0 1-.65.06 2.87 2.87 0 0 1-1.14-.23 3 3 0 0 1-.91-.59 8.09 8.09 0 0 1-.73-.81c-.23-.3-.44-.6-.64-.9a9.48 9.48 0 0 0-.6-.81 2.52 2.52 0 0 0-.67-.6 1.41 1.41 0 0 0-.76-.23 1.3 1.3 0 0 0-1 .44 1.56 1.56 0 0 0-.39 1.1 1.79 1.79 0 0 0 .3 1 2.3 2.3 0 0 0 .78.74l-.59.87a3.1 3.1 0 0 1-1.16-1.09 2.9 2.9 0 0 1-.45-1.6 2.76 2.76 0 0 1 .67-1.92 2.29 2.29 0 0 1 1.77-.74 2.55 2.55 0 0 1 1.21.3 2.9 2.9 0 0 1 .93.75c.24.3.49.63.75 1s.48.68.68 1a2.76 2.76 0 0 0 .72.76 1.45 1.45 0 0 0 .86.32v-4.22h1zM209.53 122.48h-1v-1.87h-6.04a2.3 2.3 0 0 1 .49.41l.77.79-.75.72-2-2v-1.06h7.45v-1.86h1zM209.67 113.5a2.79 2.79 0 0 1-.34 1.42 2.34 2.34 0 0 1-.94.93 4.91 4.91 0 0 1-1.38.5 9.06 9.06 0 0 1-1.73.15 9 9 0 0 1-1.72-.15 4.74 4.74 0 0 1-1.37-.5 2.34 2.34 0 0 1-.94-.93 2.79 2.79 0 0 1-.34-1.42q0-3 4.37-3t4.39 3zm-1.09 0q0-1.77-3.3-1.77c-2.19 0-3.28.59-3.28 1.77s1.09 1.78 3.28 1.78 3.3-.59 3.3-1.78zM209.67 106a2.78 2.78 0 0 1-.34 1.41 2.36 2.36 0 0 1-.94.94 4.9 4.9 0 0 1-1.38.49 8.28 8.28 0 0 1-1.73.16 8.18 8.18 0 0 1-1.72-.16 4.73 4.73 0 0 1-1.37-.49 2.36 2.36 0 0 1-.94-.94 2.78 2.78 0 0 1-.34-1.41q0-3 4.37-3t4.39 3zm-1.09 0c0-1.19-1.1-1.78-3.3-1.78s-3.28.63-3.28 1.78 1.09 1.77 3.28 1.77 3.3-.55 3.3-1.77zM195.59 224.88a2.3 2.3 0 0 1-.86-.16 2.09 2.09 0 0 1-.7-.41 4.85 4.85 0 0 1-.45-.43 2.93 2.93 0 0 1-.28-.36 2 2 0 0 1-1.67.95 2.12 2.12 0 0 1-1.59-.68 2.72 2.72 0 0 1-.66-2 2.94 2.94 0 0 1 .62-1.93 2 2 0 0 1 1.64-.73 2.54 2.54 0 0 1 1.29.34 4.15 4.15 0 0 1 .93.68 2.06 2.06 0 0 1 1.8-1.16 2.28 2.28 0 0 1 1.75.81 3 3 0 0 1 .73 2.1 3.11 3.11 0 0 1-.72 2.1 2.33 2.33 0 0 1-1.83.88zm-2.19-3.78a2.44 2.44 0 0 0-1.66-.77 1.17 1.17 0 0 0-1 .42 1.74 1.74 0 0 0-.34 1.1 1.54 1.54 0 0 0 .34 1.06 1 1 0 0 0 .84.38.88.88 0 0 0 .33 0 1.46 1.46 0 0 0 .28-.13 1.1 1.1 0 0 0 .25-.24l.21-.27c.05-.08.12-.2.19-.34l.17-.36c.05-.1.1-.23.18-.41zm2.09 2.57a1.46 1.46 0 0 0 1.14-.52 1.76 1.76 0 0 0 .45-1.2 1.88 1.88 0 0 0-.41-1.2 1.23 1.23 0 0 0-1-.5 1 1 0 0 0-.5.12 1.29 1.29 0 0 0-.42.42c-.12.19-.23.36-.31.51s-.18.38-.31.68-.22.52-.29.65a2.05 2.05 0 0 0 1.65 1.04zM198.14 214.57a2.92 2.92 0 0 1-.33 1.42 2.36 2.36 0 0 1-.95.93 4.61 4.61 0 0 1-1.38.49 8.28 8.28 0 0 1-1.73.16 8.18 8.18 0 0 1-1.72-.16 4.55 4.55 0 0 1-1.37-.49 2.34 2.34 0 0 1-.94-.93 2.92 2.92 0 0 1-.34-1.42q0-3 4.37-3t4.39 3zm-1.09 0c0-1.18-1.1-1.78-3.3-1.78s-3.27.6-3.27 1.78 1.09 1.78 3.27 1.78 3.3-.6 3.3-1.78zM198.14 207.11a2.88 2.88 0 0 1-.33 1.41 2.45 2.45 0 0 1-.95.94 4.9 4.9 0 0 1-1.38.49 9 9 0 0 1-1.73.16A8.91 8.91 0 0 1 192 210a4.84 4.84 0 0 1-1.37-.49 2.43 2.43 0 0 1-.94-.94 2.88 2.88 0 0 1-.34-1.41q0-3 4.37-3t4.42 2.95zm-1.09 0c0-1.19-1.1-1.78-3.3-1.78s-3.27.59-3.27 1.78 1.09 1.77 3.27 1.77 3.3-.59 3.3-1.77zM125.54 276.9l.37-1a2.73 2.73 0 0 0 1.22.28 2.1 2.1 0 0 0 1.73-.85 4.08 4.08 0 0 0 .79-2 1.78 1.78 0 0 1-.78.58 2.72 2.72 0 0 1-1.09.22 2.53 2.53 0 0 1-1.94-.77 2.83 2.83 0 0 1-.76-2 2.89 2.89 0 0 1 .75-2.05 2.59 2.59 0 0 1 2-.8 2.82 2.82 0 0 1 2.29 1.08 4.5 4.5 0 0 1 .91 2.89 5.87 5.87 0 0 1-.22 1.66 5.71 5.71 0 0 1-.67 1.54 3.45 3.45 0 0 1-1.19 1.15 3.31 3.31 0 0 1-1.7.44 3.56 3.56 0 0 1-1.71-.37zm2.45-3.81a2.08 2.08 0 0 0 1.22-.38 1 1 0 0 0 .51-.83 2.55 2.55 0 0 0-.58-1.59 1.68 1.68 0 0 0-1.36-.73 1.42 1.42 0 0 0-1.12.49 1.87 1.87 0 0 0-.41 1.26 1.77 1.77 0 0 0 .48 1.29 1.64 1.64 0 0 0 1.27.49zM132.27 276l.67-.87a2.3 2.3 0 0 0 1.87.89 1.85 1.85 0 0 0 1.3-.49 1.54 1.54 0 0 0 .53-1.24 1.62 1.62 0 0 0-.55-1.24 2 2 0 0 0-1.38-.48 2.56 2.56 0 0 0-1.43.43l-.7-.25.39-4.2h4.29v1h-3.25l-.18 1.79-.06.44a2.32 2.32 0 0 1 1.1-.26 2.88 2.88 0 0 1 2.14.78 2.64 2.64 0 0 1 .84 2 2.72 2.72 0 0 1-.85 2 2.93 2.93 0 0 1-2.13.83 3.42 3.42 0 0 1-1.45-.29 3.24 3.24 0 0 1-1.15-.84zM142.18 277.11a2.77 2.77 0 0 1-1.41-.32 2.39 2.39 0 0 1-1-.94 4.91 4.91 0 0 1-.5-1.38 8.15 8.15 0 0 1-.17-1.72 8.36 8.36 0 0 1 .14-1.73 4.82 4.82 0 0 1 .48-1.37 2.43 2.43 0 0 1 .93-.95 2.89 2.89 0 0 1 1.41-.35c2 0 3 1.44 3 4.35s-.88 4.4-2.88 4.41zm0-1.09c1.19 0 1.77-1.11 1.75-3.31s-.61-3.27-1.8-3.26-1.76 1.1-1.75 3.29.62 3.26 1.79 3.26z"/><path class="cls-3" d="M86 281.5h99M186.53 37.5H221m-34.56 221H221m-8-221v220M86.5 259v28m99-28v28m1-117.5H205m-4 0v89"/></svg>