<svg xmlns="http://www.w3.org/2000/svg" viewBox="0 0 512.001 512.001">
  <path d="M502.001 298.969H388.998V146.874h5.495c5.522 0 10-4.477 10-10s-4.478-10-10-10h-5.642C385.64 56.372 327.283.002 256.001 0h-.002c-71.283 0-129.641 56.371-132.852 126.874h-5.642c-5.522 0-10 4.477-10 10s4.478 10 10 10H123v152.095H10c-5.523 0-10 4.477-10 10v193.032c0 5.523 4.477 10 10 10h492.001c5.522 0 10-4.477 10-10V308.969c0-5.523-4.478-10-10-10zm-113.003 20h41.504v113.03h-41.504v-113.03zM266 20.447c55.631 4.903 99.817 50.283 102.831 106.427h-34.369C329.944 91.233 301.64 62.928 266 58.41V20.447zm0 58.172c24.596 4.211 44.043 23.659 48.253 48.255H266V78.619zm0 118.481V146.873h69.861l-19.017 19.017c-3.905 3.905-3.905 10.237 0 14.143 1.953 1.953 4.512 2.929 7.071 2.929 2.56 0 5.118-.976 7.071-2.929l33.159-33.159h4.851v152.095h-88.853l69.803-69.802c3.905-3.905 3.905-10.237 0-14.142-3.904-3.905-10.236-3.905-14.143 0L266 284.826V197.1zm102.998 121.869v113.03h-41.499v-113.03h41.499zm-102.998 0h41.499v113.03H266v-113.03zM246 20.447V58.41c-35.641 4.518-63.945 32.824-68.464 68.464h-34.369C146.181 70.73 190.368 25.35 246 20.447zm0 58.171v48.256h-48.255c4.21-24.597 23.658-44.045 48.255-48.256zM143 258.737l33.157-33.158c3.905-3.905 3.905-10.237 0-14.142-3.906-3.905-10.236-3.905-14.143 0L143 230.452v-83.578h103v46.079l-48.259 48.259c-3.905 3.905-3.905 10.237 0 14.142 1.953 1.953 4.512 2.929 7.071 2.929s5.118-.977 7.071-2.929L246 221.237v77.731H143v-40.231zm103 60.232v113.03h-41.501v-113.03H246zm-103 0h41.499v113.03H143v-113.03zm-61.501 0H123v113.03H81.499v-113.03zm-61.499 0h41.499v113.03H20v-113.03zm0 173.032v-40.002h472.001v40.002H20zm472.001-60.002h-41.499v-113.03h41.499v113.03z"/>
  <path d="M196.684 205.055c3.882-3.928 3.846-10.259-.082-14.142-3.929-3.883-10.26-3.847-14.143.082l-.167.169c-3.882 3.928-3.846 10.259.082 14.142 1.949 1.927 4.49 2.888 7.03 2.888 2.578 0 5.156-.991 7.112-2.97l.168-.169zM296.528 186.205l-.167.167c-3.905 3.905-3.905 10.237 0 14.143 1.953 1.953 4.512 2.929 7.071 2.929s5.118-.976 7.071-2.929l.167-.167c3.905-3.905 3.905-10.237 0-14.143-3.905-3.905-10.235-3.905-14.142 0z"/>
</svg>
