<svg xmlns="http://www.w3.org/2000/svg" viewBox="0 0 512 512" fill="#28b663"><path d="M346 0c-5.522 0-10 4.478-10 10v46c0 5.522 4.478 10 10 10s10-4.478 10-10V10c0-5.522-4.478-10-10-10zM116 312c-5.52 0-10 4.48-10 10s4.48 10 10 10 10-4.48 10-10-4.48-10-10-10z"/><path d="M486 292c0-22.056-17.944-40-40-40h-74.652c11.557-29.603 16.235-64.447 15.333-95.464-.172-5.919-.399-9.342-.706-11.497C385.458 123.432 367.716 106 346 106c-22.056 0-40 17.944-40 40v10c0 63.246-81.214 98.781-142.504 114.019C158.862 259.425 148.284 252 136 252H36c-5.522 0-10 4.478-10 10v240c0 5.522 4.478 10 10 10h100c12.202 0 22.719-7.327 27.401-17.809a3274.4 3274.4 0 0 1 14.135 3.668C212.451 506.978 231.684 512 278.46 512H386c22.056 0 40-17.944 40-40a39.764 39.764 0 0 0-6.77-22.238C434.678 444.359 446 429.599 446 412c0-8.194-2.436-15.869-6.696-22.262C454.684 384.326 466 369.6 466 352a39.764 39.764 0 0 0-6.77-22.238C474.678 324.359 486 309.599 486 292zM146 482c0 5.514-4.486 10-10 10H46V272h90c5.514 0 10 4.486 10 10v200zm300-170h-50c-5.522 0-10 4.478-10 10s4.478 10 10 10h30c11.028 0 20 8.972 20 20 0 11.046-8.954 20-20 20h-50c-5.522 0-10 4.478-10 10s4.478 10 10 10h30c10.897 0 20 8.705 20 20 0 11.046-8.954 20-20 20h-50c-5.522 0-10 4.478-10 10s4.478 10 10 10h30c11.028 0 20 8.972 20 20s-8.972 20-20 20H278.46c-44.207 0-61.473-4.509-95.87-13.492a2882.872 2882.872 0 0 0-16.59-4.295V290.025C238.368 272.787 326 230.711 326 156v-10c0-11.028 8.972-20 20-20 11.008 0 19.979 8.958 20 19.969V146c0 4.346 5.424 57.683-16.326 106H316c-5.522 0-10 4.478-10 10s4.478 10 10 10h130c11.028 0 20 8.972 20 20 0 11.046-8.954 20-20 20z"/><path d="M116 352c-5.522 0-10 4.478-10 10v80c0 5.522 4.478 10 10 10s10-4.478 10-10v-80c0-5.522-4.478-10-10-10zM266 126h-40c-5.522 0-10 4.478-10 10s4.478 10 10 10h40c5.522 0 10-4.478 10-10s-4.478-10-10-10zM466 126h-40c-5.522 0-10 4.478-10 10s4.478 10 10 10h40c5.522 0 10-4.478 10-10s-4.478-10-10-10zM437.921 44.079c-3.906-3.904-10.236-3.904-14.143 0l-28.279 28.279c-3.905 3.905-3.905 10.237 0 14.143 3.907 3.905 10.236 3.904 14.143 0l28.279-28.279c3.905-3.905 3.905-10.237 0-14.143zM296.501 72.358l-28.279-28.279c-3.906-3.904-10.236-3.904-14.143 0-3.905 3.905-3.905 10.237 0 14.143l28.279 28.279c3.908 3.905 10.237 3.904 14.143 0 3.905-3.905 3.905-10.237 0-14.143z"/></svg>