<svg xmlns="http://www.w3.org/2000/svg" height="544pt" viewBox="1 -69 544.607 544" width="544pt"><path d="M186.742 198.047c45.125 0 81.926-27.711 81.926-61.66 0-33.953-36.691-61.664-81.926-61.664-45.234 0-81.926 27.71-81.926 61.664 0 33.949 36.801 61.66 81.926 61.66zm0-101.422c32.856 0 60.02 18.184 60.02 39.758 0 21.578-27.492 39.758-60.02 39.758-32.531 0-60.023-18.18-60.023-39.758 0-21.574 27.492-39.867 60.023-39.867zm0 0"/><path d="M534.047 250.293h-161.66v-114.02C372.387 61.36 289.039.355 186.195.355 83.348.355 0 61.36 0 136.273v134.72c0 69 70.645 125.952 161.66 134.605h1.863c7.555.66 15.223 1.207 23 1.207h347.524c6.047 0 10.953-4.907 10.953-10.953v-134.61c0-6.043-4.906-10.949-10.953-10.949zM186.742 22.367c90.356 0 164.29 51.149 164.29 114.02 0 62.867-73.493 114.015-164.29 114.015S22.453 199.254 22.453 136.382c0-62.866 74.04-114.015 164.29-114.015zm164.29 177.871v50.055h-63.528a165.152 165.152 0 0 0 62.976-50.055zm172.062 184.66h-21.907v-55.421c0-6.043-4.906-10.954-10.949-10.954-6.047 0-10.953 4.907-10.953 10.954v55.53h-43.812v-30.12c0-6.047-4.907-10.953-10.953-10.953-6.047 0-10.954 4.906-10.954 10.953v30.12h-43.808v-30.12c0-6.047-4.906-10.953-10.953-10.953s-10.953 4.906-10.953 10.953v30.12h-43.813v-55.53c0-6.043-4.906-10.954-10.953-10.954-6.043 0-10.953 4.907-10.953 10.954v55.53h-41.945v-30.12c0-6.047-4.91-10.953-10.954-10.953-6.047 0-10.953 4.906-10.953 10.953v30.12H174.47v-30.12c0-6.047-4.906-10.953-10.953-10.953s-10.953 4.906-10.953 10.953v27.492C78.64 371.426 23 325.645 23 270.883v-70.645c31.324 42.825 92.988 71.957 164.29 71.957h335.804zm0 0"/></svg>