<svg id="Layer_1" data-name="Layer 1" xmlns="http://www.w3.org/2000/svg" viewBox="0 0 500 500">
  <rect x="128" y="174" width="235" height="93" rx="7.17" ry="7.17" stroke-width="2" stroke="#6db468" stroke-miterlimit="10"/>
  <path fill="#6db468" d="M142 172h207v4H142z"/>
  <path class="cls-3" d="M143 176h205v80H143z"/>
  <circle class="cls-3" cx="162" cy="187" r="2.5"/>
  <circle class="cls-3" cx="172" cy="187" r="2.5"/>
  <circle class="cls-3" cx="182" cy="187" r="2.5"/>
  <circle class="cls-3" cx="192" cy="187" r="2.5"/>
  <circle class="cls-3" cx="202" cy="187" r="2.5"/>
  <circle class="cls-3" cx="212" cy="187" r="2.5"/>
  <circle class="cls-3" cx="222" cy="187" r="2.5"/>
  <circle class="cls-3" cx="232" cy="187" r="2.5"/>
  <circle class="cls-3" cx="242" cy="187" r="2.5"/>
  <circle class="cls-3" cx="252" cy="187" r="2.5"/>
  <circle class="cls-3" cx="262" cy="187" r="2.5"/>
  <circle class="cls-3" cx="272" cy="187" r="2.5"/>
  <circle class="cls-3" cx="282" cy="187" r="2.5"/>
  <circle class="cls-3" cx="292" cy="187" r="2.5"/>
  <circle class="cls-3" cx="302" cy="187" r="2.5"/>
  <circle class="cls-3" cx="312" cy="187" r="2.5"/>
  <circle class="cls-3" cx="322" cy="187" r="2.5"/>
  <circle class="cls-3" cx="332" cy="187" r="2.5"/>
  <circle class="cls-3" cx="162" cy="197" r="2.5"/>
  <circle class="cls-3" cx="172" cy="197" r="2.5"/>
  <circle class="cls-3" cx="182" cy="197" r="2.5"/>
  <circle class="cls-3" cx="192" cy="197" r="2.5"/>
  <circle class="cls-3" cx="202" cy="197" r="2.5"/>
  <circle class="cls-3" cx="212" cy="197" r="2.5"/>
  <circle class="cls-3" cx="222" cy="197" r="2.5"/>
  <circle class="cls-3" cx="232" cy="197" r="2.5"/>
  <circle class="cls-3" cx="242" cy="197" r="2.5"/>
  <circle class="cls-3" cx="252" cy="197" r="2.5"/>
  <circle class="cls-3" cx="262" cy="197" r="2.5"/>
  <circle class="cls-3" cx="272" cy="197" r="2.5"/>
  <circle class="cls-3" cx="282" cy="197" r="2.5"/>
  <circle class="cls-3" cx="292" cy="197" r="2.5"/>
  <circle class="cls-3" cx="302" cy="197" r="2.5"/>
  <circle class="cls-3" cx="312" cy="197" r="2.5"/>
  <circle class="cls-3" cx="322" cy="197" r="2.5"/>
  <circle class="cls-3" cx="332" cy="197" r="2.5"/>
  <circle class="cls-3" cx="162" cy="207" r="2.5"/>
  <circle class="cls-3" cx="172" cy="207" r="2.5"/>
  <circle class="cls-3" cx="182" cy="207" r="2.5"/>
  <circle class="cls-3" cx="192" cy="207" r="2.5"/>
  <circle class="cls-3" cx="202" cy="207" r="2.5"/>
  <circle class="cls-3" cx="212" cy="207" r="2.5"/>
  <circle class="cls-3" cx="222" cy="207" r="2.5"/>
  <circle class="cls-3" cx="232" cy="207" r="2.5"/>
  <circle class="cls-3" cx="242" cy="207" r="2.5"/>
  <circle class="cls-3" cx="252" cy="207" r="2.5"/>
  <circle class="cls-3" cx="262" cy="207" r="2.5"/>
  <circle class="cls-3" cx="272" cy="207" r="2.5"/>
  <circle class="cls-3" cx="282" cy="207" r="2.5"/>
  <circle class="cls-3" cx="292" cy="207" r="2.5"/>
  <circle class="cls-3" cx="302" cy="207" r="2.5"/>
  <circle class="cls-3" cx="312" cy="207" r="2.5"/>
  <circle class="cls-3" cx="322" cy="207" r="2.5"/>
  <circle class="cls-3" cx="332" cy="207" r="2.5"/>
  <circle class="cls-3" cx="162" cy="217" r="2.5"/>
  <circle class="cls-3" cx="172" cy="217" r="2.5"/>
  <circle class="cls-3" cx="182" cy="217" r="2.5"/>
  <circle class="cls-3" cx="192" cy="217" r="2.5"/>
  <circle class="cls-3" cx="202" cy="217" r="2.5"/>
  <circle class="cls-3" cx="212" cy="217" r="2.5"/>
  <circle class="cls-3" cx="222" cy="217" r="2.5"/>
  <circle class="cls-3" cx="232" cy="217" r="2.5"/>
  <circle class="cls-3" cx="242" cy="217" r="2.5"/>
  <circle class="cls-3" cx="252" cy="217" r="2.5"/>
  <circle class="cls-3" cx="262" cy="217" r="2.5"/>
  <circle class="cls-3" cx="272" cy="217" r="2.5"/>
  <circle class="cls-3" cx="282" cy="217" r="2.5"/>
  <circle class="cls-3" cx="292" cy="217" r="2.5"/>
  <circle class="cls-3" cx="302" cy="217" r="2.5"/>
  <circle class="cls-3" cx="312" cy="217" r="2.5"/>
  <circle class="cls-3" cx="322" cy="217" r="2.5"/>
  <circle class="cls-3" cx="332" cy="217" r="2.5"/>
  <circle class="cls-3" cx="162" cy="227" r="2.5"/>
  <circle class="cls-3" cx="172" cy="227" r="2.5"/>
  <circle class="cls-3" cx="182" cy="227" r="2.5"/>
  <circle class="cls-3" cx="192" cy="227" r="2.5"/>
  <circle class="cls-3" cx="202" cy="227" r="2.5"/>
  <circle class="cls-3" cx="212" cy="227" r="2.5"/>
  <circle class="cls-3" cx="222" cy="227" r="2.5"/>
  <circle class="cls-3" cx="232" cy="227" r="2.5"/>
  <circle class="cls-3" cx="242" cy="227" r="2.5"/>
  <circle class="cls-3" cx="252" cy="227" r="2.5"/>
  <circle class="cls-3" cx="262" cy="227" r="2.5"/>
  <circle class="cls-3" cx="272" cy="227" r="2.5"/>
  <circle class="cls-3" cx="282" cy="227" r="2.5"/>
  <circle class="cls-3" cx="292" cy="227" r="2.5"/>
  <circle class="cls-3" cx="302" cy="227" r="2.5"/>
  <circle class="cls-3" cx="312" cy="227" r="2.5"/>
  <circle class="cls-3" cx="322" cy="227" r="2.5"/>
  <circle class="cls-3" cx="332" cy="227" r="2.5"/>
  <circle class="cls-3" cx="162" cy="237" r="2.5"/>
  <circle class="cls-3" cx="172" cy="237" r="2.5"/>
  <circle class="cls-3" cx="182" cy="237" r="2.5"/>
  <circle class="cls-3" cx="192" cy="237" r="2.5"/>
  <circle class="cls-3" cx="202" cy="237" r="2.5"/>
  <circle class="cls-3" cx="212" cy="237" r="2.5"/>
  <circle class="cls-3" cx="222" cy="237" r="2.5"/>
  <circle class="cls-3" cx="232" cy="237" r="2.5"/>
  <circle class="cls-3" cx="242" cy="237" r="2.5"/>
  <circle class="cls-3" cx="252" cy="237" r="2.5"/>
  <circle class="cls-3" cx="262" cy="237" r="2.5"/>
  <circle class="cls-3" cx="272" cy="237" r="2.5"/>
  <circle class="cls-3" cx="282" cy="237" r="2.5"/>
  <circle class="cls-3" cx="292" cy="237" r="2.5"/>
  <circle class="cls-3" cx="302" cy="237" r="2.5"/>
  <circle class="cls-3" cx="312" cy="237" r="2.5"/>
  <circle class="cls-3" cx="322" cy="237" r="2.5"/>
  <circle class="cls-3" cx="332" cy="237" r="2.5"/>
  <circle class="cls-3" cx="162" cy="247" r="2.5"/>
  <circle class="cls-3" cx="172" cy="247" r="2.5"/>
  <circle class="cls-3" cx="182" cy="247" r="2.5"/>
  <circle class="cls-3" cx="192" cy="247" r="2.5"/>
  <circle class="cls-3" cx="202" cy="247" r="2.5"/>
  <circle class="cls-3" cx="212" cy="247" r="2.5"/>
  <circle class="cls-3" cx="222" cy="247" r="2.5"/>
  <circle class="cls-3" cx="232" cy="247" r="2.5"/>
  <circle class="cls-3" cx="242" cy="247" r="2.5"/>
  <circle class="cls-3" cx="252" cy="247" r="2.5"/>
  <circle class="cls-3" cx="262" cy="247" r="2.5"/>
  <circle class="cls-3" cx="272" cy="247" r="2.5"/>
  <circle class="cls-3" cx="282" cy="247" r="2.5"/>
  <circle class="cls-3" cx="292" cy="247" r="2.5"/>
  <circle class="cls-3" cx="302" cy="247" r="2.5"/>
  <circle class="cls-3" cx="312" cy="247" r="2.5"/>
  <circle class="cls-3" cx="322" cy="247" r="2.5"/>
  <circle class="cls-3" cx="332" cy="247" r="2.5"/>
  <path class="cls-3" d="M205.5 256.5h86v10h-86zM127.94 185.19l15.12-8.85M127.94 190.19l15.12-8.85M127.94 200.19l15.12-8.85M127.94 210.19l15.12-8.85M127.94 220.19l15.12-8.85M127.94 230.19l15.12-8.85M127.94 240.19l15.12-8.85M127.94 250.19l15.12-8.85M127.94 260.19l15.12-8.85M127.94 195.19l15.12-8.85M127.94 205.19l15.12-8.85M127.94 215.19l15.12-8.85M127.94 225.19l15.12-8.85M127.94 235.19l15.12-8.85M127.94 245.19l15.12-8.85M127.94 255.19l15.12-8.85M129.21 264.58l14.33-8.58M348.1 187.35l15.13-8.84M348.1 181.35l10.9-6.54M348.1 192.32l15.13-8.84M348.1 202.27l15.13-8.85M348.1 212.21l15.13-8.85M348.1 222.15l15.13-8.85M348.1 232.09l15.13-8.85M348.1 242.03l15.13-8.85M348.1 251.97l15.13-8.84M339.81 266.63l23.42-13.56M348.1 197.29l15.13-8.84M348.1 207.24l15.13-8.85M348.1 217.18l15.13-8.85M348.1 227.12l15.13-8.85M348.1 237.06l15.13-8.85M348.1 247l15.13-8.85M330.75 267.06l32.48-18.96M348.38 266.75l14.33-8.58M136.89 266.33l16.88-10.16M145.85 266.33l16.87-10.16M154.8 266.33l16.87-10.16M163.75 266.33l16.88-10.16M172.71 266.33l16.87-10.16M181.66 266.33l16.88-10.16M291.5 263.25l11.81-7.25M294.09 267.09l18.38-11.12M303.42 266.87l17.99-10.84M312.74 266.64l17.83-10.73M322.07 266.42L339.42 256M192.67 266.33l12.77-7.64"/>
</svg>
