<svg xmlns="http://www.w3.org/2000/svg" viewBox="0 0 265.49 300"><defs><style>.cls-2{stroke:#75b870;stroke-miterlimit:10;stroke-width:3px;fill:#e8f1f9}</style></defs><g id="окна"><path d="M244 218.14H26.6V69.83H244z" stroke="#75b870" stroke-miterlimit="10" stroke-width="3" fill="#fff"/><path class="cls-2" d="M100.76 210.19H34.17V78.63h66.59zM168 210.19h-66.63V78.63H168zM234.54 210.19H168V78.63h66.59z"/><path d="M17.87 157.48h-1v-1.87h-6.02a2.29 2.29 0 0 1 .5.41l.76.79-.74.72-2-2v-1.06h7.44v-1.86h1zM16.84 151.65L16 151a2.28 2.28 0 0 0 .91-1.86 1.88 1.88 0 0 0-.48-1.3 1.69 1.69 0 0 0-2.48 0 2 2 0 0 0-.5 1.38 2.52 2.52 0 0 0 .42 1.42l-.25.7-4.2-.42v-4.28h1v3.25l1.79.19.43.07a2.45 2.45 0 0 1-.24-1.15 2.91 2.91 0 0 1 .8-2.13 2.63 2.63 0 0 1 2-.82 2.69 2.69 0 0 1 2 .86A3 3 0 0 1 18 149a3.44 3.44 0 0 1-.31 1.45 3.12 3.12 0 0 1-.85 1.2zM18 141.75a2.78 2.78 0 0 1-.34 1.41 2.39 2.39 0 0 1-.95.94 4.69 4.69 0 0 1-1.38.49 8.91 8.91 0 0 1-1.72.16 9 9 0 0 1-1.73-.16 4.77 4.77 0 0 1-1.36-.49 2.45 2.45 0 0 1-.95-.94 2.88 2.88 0 0 1-.33-1.41c0-2 1.45-3 4.37-3s4.39 1 4.39 3zm-1.09 0c0-1.19-1.1-1.78-3.3-1.78s-3.28.59-3.28 1.78 1.09 1.77 3.28 1.77 3.32-.59 3.32-1.77zM18 134.28a2.79 2.79 0 0 1-.34 1.42 2.3 2.3 0 0 1-.95.93 4.69 4.69 0 0 1-1.38.5 9 9 0 0 1-1.72.15 9.06 9.06 0 0 1-1.73-.15 4.78 4.78 0 0 1-1.36-.5 2.36 2.36 0 0 1-.95-.93 2.89 2.89 0 0 1-.33-1.42c0-2 1.45-3 4.37-3s4.39 1 4.39 3zm-1.09 0q0-1.77-3.3-1.77c-2.19 0-3.28.59-3.28 1.77s1.09 1.78 3.28 1.78 3.32-.59 3.32-1.78zM125.63 61.14v-1h1.87v-6.02a2.29 2.29 0 0 1-.41.5l-.79.76-.72-.74 2-2h1.06v7.44h1.86v1zM131.54 58.73a2.55 2.55 0 0 1 .15-.86 2.39 2.39 0 0 1 .41-.7c.17-.19.31-.34.43-.45a2.93 2.93 0 0 1 .36-.28 2 2 0 0 1-.95-1.67 2.12 2.12 0 0 1 .69-1.59 2.73 2.73 0 0 1 2-.65 2.85 2.85 0 0 1 1.93.62 2 2 0 0 1 .74 1.63 2.59 2.59 0 0 1-.34 1.29 4.48 4.48 0 0 1-.68.93 2.07 2.07 0 0 1 1.15 1.8 2.32 2.32 0 0 1-.8 1.76 3.39 3.39 0 0 1-4.2 0 2.3 2.3 0 0 1-.89-1.83zm1.21-.09a1.45 1.45 0 0 0 .51 1.13 1.79 1.79 0 0 0 1.2.45 1.83 1.83 0 0 0 1.2-.4 1.27 1.27 0 0 0 .51-1 1 1 0 0 0-.13-.5 1.23 1.23 0 0 0-.41-.41 5.41 5.41 0 0 0-.52-.31c-.15-.08-.38-.19-.68-.32l-.65-.28a2 2 0 0 0-1.03 1.64zm2.57-2.09a2.45 2.45 0 0 0 .76-1.67 1.15 1.15 0 0 0-.42-.94 1.66 1.66 0 0 0-1.1-.34 1.58 1.58 0 0 0-1.06.33 1.1 1.1 0 0 0-.38.84 1.27 1.27 0 0 0 0 .34 1.15 1.15 0 0 0 .14.27 1 1 0 0 0 .23.25l.28.21a2 2 0 0 0 .34.19l.36.18.4.17zM141.85 61.29a2.79 2.79 0 0 1-1.42-.34 2.39 2.39 0 0 1-.94-1 4.69 4.69 0 0 1-.49-1.38 9 9 0 0 1-.15-1.72 9.06 9.06 0 0 1 .15-1.73 4.77 4.77 0 0 1 .49-1.36 2.45 2.45 0 0 1 .94-1 2.89 2.89 0 0 1 1.42-.33c2 0 3 1.45 3 4.37s-1.01 4.49-3 4.49zm0-1.09q1.77 0 1.77-3.3c0-2.19-.59-3.28-1.77-3.28s-1.78 1.09-1.78 3.28.59 3.3 1.78 3.3zM149.31 61.29a2.79 2.79 0 0 1-1.42-.34 2.3 2.3 0 0 1-.93-1 4.69 4.69 0 0 1-.5-1.38 9 9 0 0 1-.15-1.72 9.06 9.06 0 0 1 .15-1.73 4.78 4.78 0 0 1 .5-1.36 2.36 2.36 0 0 1 .93-1 2.89 2.89 0 0 1 1.42-.33c2 0 3 1.45 3 4.37s-1 4.49-3 4.49zm0-1.09q1.77 0 1.77-3.3c0-2.19-.59-3.28-1.77-3.28s-1.78 1.09-1.78 3.28.59 3.3 1.78 3.3z"/></g></svg>