<svg id="двери" xmlns="http://www.w3.org/2000/svg" viewBox="0 0 300 300"><defs><style>.cls-3{fill:none}.cls-2{stroke:#75b870;stroke-width:3px}.cls-2,.cls-3{stroke-miterlimit:10}.cls-2{fill:#e8f1f9}.cls-3{stroke:#232323}</style></defs><path stroke-miterlimit="10" stroke="#75b870" stroke-width="3" fill="none" d="M55.99 28h158.5v219.5H55.99z"/><path class="cls-2" d="M205.37 144.85H126.1V45.47h79.27zM116 45.47H67.49v99.38H116zM205.37 235.49H126.1V158.7h79.27zm-88.63-76.79H68v76.45h48.75z"/><path class="cls-3" d="M215.49 248.5h35M215.49 27.5h35m-8 0v220"/><path d="M235.68 137.32a4.34 4.34 0 0 1-.65.06 2.87 2.87 0 0 1-1.14-.23 3.17 3.17 0 0 1-.91-.59 8.09 8.09 0 0 1-.73-.81c-.22-.3-.44-.6-.64-.9a9.48 9.48 0 0 0-.6-.81 2.52 2.52 0 0 0-.67-.6 1.41 1.41 0 0 0-.76-.23 1.3 1.3 0 0 0-1 .44 1.56 1.56 0 0 0-.39 1.1 1.79 1.79 0 0 0 .3 1 2.3 2.3 0 0 0 .78.74l-.59.87a3.1 3.1 0 0 1-1.16-1.09 2.9 2.9 0 0 1-.45-1.6 2.76 2.76 0 0 1 .68-1.92 2.26 2.26 0 0 1 1.76-.74 2.55 2.55 0 0 1 1.21.3 2.9 2.9 0 0 1 .93.75c.24.3.49.63.75 1s.49.68.69 1a2.72 2.72 0 0 0 .71.76 1.48 1.48 0 0 0 .86.32v-4.22h1zM235.68 130.48h-1v-1.87h-5.99a2.3 2.3 0 0 1 .49.41l.77.79-.75.72-2-2v-1.06h7.44v-1.86h1zM235.82 121.5a2.89 2.89 0 0 1-.33 1.42 2.36 2.36 0 0 1-1 .93 4.91 4.91 0 0 1-1.38.5 9.06 9.06 0 0 1-1.73.15 9 9 0 0 1-1.72-.15 4.85 4.85 0 0 1-1.37-.5 2.34 2.34 0 0 1-.94-.93 2.79 2.79 0 0 1-.34-1.42q0-3 4.37-3t4.44 3zm-1.09 0q0-1.77-3.3-1.77t-3.27 1.77c0 1.19 1.09 1.78 3.27 1.78s3.3-.59 3.3-1.78zM235.82 114a2.88 2.88 0 0 1-.33 1.41 2.39 2.39 0 0 1-1 .94 4.9 4.9 0 0 1-1.38.49 8.28 8.28 0 0 1-1.73.16 8.18 8.18 0 0 1-1.72-.16 4.84 4.84 0 0 1-1.37-.49 2.36 2.36 0 0 1-.94-.94 2.78 2.78 0 0 1-.34-1.41q0-3 4.37-3t4.44 3zm-1.09 0c0-1.19-1.1-1.78-3.3-1.78s-3.27.59-3.27 1.78 1.09 1.77 3.27 1.77 3.3-.55 3.3-1.77zM123.7 275.1v-1h1.87v-5.99a2.17 2.17 0 0 1-.4.5l-.78.77-.73-.74 2-2h1.06l.06 7.44h1.86v1zM129.52 274l.67-.87a2.3 2.3 0 0 0 1.87.89 1.85 1.85 0 0 0 1.3-.49 1.57 1.57 0 0 0 .53-1.24 1.59 1.59 0 0 0-.56-1.24 1.94 1.94 0 0 0-1.37-.48 2.53 2.53 0 0 0-1.43.43l-.7-.25.39-4.2h4.28v1h-3.25l-.18 1.79-.07.44a2.29 2.29 0 0 1 1.1-.26 2.9 2.9 0 0 1 2.14.78 2.61 2.61 0 0 1 .83 2 2.67 2.67 0 0 1-.84 2 3 3 0 0 1-2.13.83 3.42 3.42 0 0 1-1.45-.29 3.24 3.24 0 0 1-1.13-.84zM139.43 275.12a2.84 2.84 0 0 1-1.42-.32 2.43 2.43 0 0 1-.94-.94 4.91 4.91 0 0 1-.5-1.38 8.15 8.15 0 0 1-.17-1.72 8.36 8.36 0 0 1 .14-1.73 4.82 4.82 0 0 1 .48-1.37 2.43 2.43 0 0 1 .93-1 2.89 2.89 0 0 1 1.41-.35c2 0 3 1.44 3 4.35s-.93 4.45-2.93 4.46zm0-1.09c1.19 0 1.77-1.11 1.75-3.31s-.61-3.27-1.8-3.26-1.76 1.1-1.75 3.29.61 3.25 1.79 3.25zM146.9 275.07a2.89 2.89 0 0 1-1.42-.33 2.39 2.39 0 0 1-.95-.94 5.12 5.12 0 0 1-.5-1.38 8.86 8.86 0 0 1-.17-1.72 9.11 9.11 0 0 1 .14-1.7 4.55 4.55 0 0 1 .49-1.37 2.47 2.47 0 0 1 .92-1 2.9 2.9 0 0 1 1.42-.34q3 0 3 4.34c.05 2.95-.93 4.42-2.93 4.44zm0-1.1c1.18 0 1.77-1.11 1.75-3.31s-.62-3.27-1.8-3.26-1.77 1.1-1.75 3.29.6 3.31 1.79 3.31zM80.92 255.26a6.66 6.66 0 0 1 .13-1.33 6 6 0 0 1 .44-1.3 4.78 4.78 0 0 1 .73-1.1 3.13 3.13 0 0 1 1.07-.77 3.26 3.26 0 0 1 1.4-.3 3.88 3.88 0 0 1 1.66.33l-.38 1a2.65 2.65 0 0 0-1.23-.27 2.09 2.09 0 0 0-1.72.85 4.08 4.08 0 0 0-.79 2 1.78 1.78 0 0 1 .78-.58 2.89 2.89 0 0 1 1.08-.22 2.52 2.52 0 0 1 1.94.77 2.84 2.84 0 0 1 .76 2 2.78 2.78 0 0 1-.75 2 2.56 2.56 0 0 1-1.95.81 2.81 2.81 0 0 1-2.28-1.08 4.46 4.46 0 0 1-.89-2.81zm3.23 2.87a1.38 1.38 0 0 0 1.09-.5 2 2 0 0 0-.07-2.54 1.65 1.65 0 0 0-1.28-.48 2.13 2.13 0 0 0-1.21.35 1.07 1.07 0 0 0-.51.91 2.59 2.59 0 0 0 .57 1.52 1.7 1.7 0 0 0 1.41.74zM91.16 259.17a2.88 2.88 0 0 1-1.41-.33 2.32 2.32 0 0 1-1-.94 4.74 4.74 0 0 1-.5-1.37 9.68 9.68 0 0 1 0-3.45 4.72 4.72 0 0 1 .48-1.37 2.3 2.3 0 0 1 .93-1 2.78 2.78 0 0 1 1.41-.35c2 0 3 1.43 3 4.34s-.91 4.45-2.91 4.47zm0-1.09c1.19 0 1.77-1.12 1.75-3.32s-.61-3.27-1.8-3.26-1.76 1.11-1.75 3.29.64 3.29 1.79 3.29zM98.63 259.11a2.89 2.89 0 0 1-1.42-.33 2.39 2.39 0 0 1-.95-.94 5 5 0 0 1-.5-1.37 9 9 0 0 1-.17-1.73 8.22 8.22 0 0 1 .15-1.72 4.44 4.44 0 0 1 .48-1.37 2.34 2.34 0 0 1 .92-1 2.79 2.79 0 0 1 1.42-.35q3 0 3 4.34t-2.93 4.47zm0-1.09c1.18 0 1.77-1.12 1.75-3.32s-.62-3.27-1.8-3.26-1.77 1.11-1.75 3.29.6 3.27 1.79 3.27zM161.77 258.9l.38-1a2.69 2.69 0 0 0 1.21.28 2.09 2.09 0 0 0 1.74-.85 4 4 0 0 0 .78-2 1.74 1.74 0 0 1-.77.58 2.79 2.79 0 0 1-1.09.22 2.52 2.52 0 0 1-1.94-.77 3.07 3.07 0 0 1 0-4 2.56 2.56 0 0 1 1.95-.81 2.78 2.78 0 0 1 2.28 1.08 4.5 4.5 0 0 1 .92 2.89 6.26 6.26 0 0 1-.22 1.66 5.9 5.9 0 0 1-.67 1.54 3.48 3.48 0 0 1-1.2 1.15 3.27 3.27 0 0 1-1.69.44 3.64 3.64 0 0 1-1.68-.41zm2.46-3.81a2.08 2.08 0 0 0 1.22-.38 1 1 0 0 0 .51-.82 2.62 2.62 0 0 0-.58-1.6 1.7 1.7 0 0 0-1.36-.73 1.38 1.38 0 0 0-1.12.5 1.78 1.78 0 0 0-.41 1.25 1.81 1.81 0 0 0 .47 1.29 1.68 1.68 0 0 0 1.27.49zM171.66 259.17a2.88 2.88 0 0 1-1.41-.33 2.32 2.32 0 0 1-.95-.94 4.74 4.74 0 0 1-.5-1.37 9.68 9.68 0 0 1 0-3.45 4.72 4.72 0 0 1 .48-1.37 2.3 2.3 0 0 1 .93-1 2.78 2.78 0 0 1 1.41-.35c2 0 3 1.43 3 4.34s-.96 4.45-2.96 4.47zm0-1.09c1.19 0 1.77-1.12 1.75-3.32s-.61-3.27-1.8-3.26-1.76 1.11-1.75 3.29.61 3.29 1.79 3.29zM179.13 259.11a2.89 2.89 0 0 1-1.42-.33 2.39 2.39 0 0 1-1-.94 5 5 0 0 1-.5-1.37 9 9 0 0 1-.17-1.73 8.22 8.22 0 0 1 .15-1.72 4.44 4.44 0 0 1 .48-1.37 2.34 2.34 0 0 1 .92-1 2.79 2.79 0 0 1 1.42-.35q3 0 3 4.34t-2.88 4.47zm0-1.09c1.18 0 1.77-1.12 1.75-3.32s-.62-3.27-1.8-3.26-1.77 1.11-1.75 3.29.6 3.27 1.79 3.27z"/><path class="cls-3" d="M215 249v33M55 260.5h66.66M55 249v33m66.66-33v13.5M55 277.5h159.5m-92.5-17h93"/><path d="M225.57 214.63a2.46 2.46 0 0 1-.85-.16 2.24 2.24 0 0 1-.71-.41c-.19-.17-.34-.31-.45-.43a4.39 4.39 0 0 1-.28-.36 2 2 0 0 1-1.67.95 2.12 2.12 0 0 1-1.59-.69 2.72 2.72 0 0 1-.65-1.95 2.92 2.92 0 0 1 .62-1.93 2 2 0 0 1 1.64-.74 2.55 2.55 0 0 1 1.29.35 4.67 4.67 0 0 1 .93.67 2.06 2.06 0 0 1 1.8-1.15 2.28 2.28 0 0 1 1.75.81 3 3 0 0 1 .73 2.1 3.07 3.07 0 0 1-.73 2.1 2.3 2.3 0 0 1-1.83.84zm-2.18-3.78a2.4 2.4 0 0 0-1.67-.77 1.15 1.15 0 0 0-.94.42 1.68 1.68 0 0 0-.34 1.1 1.58 1.58 0 0 0 .33 1.06 1.1 1.1 0 0 0 .84.38 1.21 1.21 0 0 0 .34 0 1.82 1.82 0 0 0 .28-.13 1.09 1.09 0 0 0 .24-.24 2 2 0 0 0 .21-.27 2.12 2.12 0 0 0 .19-.35c.08-.14.13-.26.18-.36s.1-.22.17-.4.13-.36.17-.44zm2.09 2.56a1.45 1.45 0 0 0 1.13-.51 1.79 1.79 0 0 0 .45-1.2 1.83 1.83 0 0 0-.4-1.2 1.26 1.26 0 0 0-1-.51 1.06 1.06 0 0 0-.5.13 1.33 1.33 0 0 0-.41.41c-.13.2-.23.37-.31.52a7 7 0 0 0-.31.68l-.29.65a2 2 0 0 0 1.64 1.03zM228.13 204.32a2.78 2.78 0 0 1-.34 1.41 2.36 2.36 0 0 1-.94.94 4.61 4.61 0 0 1-1.38.49 8.35 8.35 0 0 1-1.73.16 8.12 8.12 0 0 1-1.72-.16 4.45 4.45 0 0 1-1.37-.49 2.3 2.3 0 0 1-.94-.94 2.78 2.78 0 0 1-.34-1.41q0-3 4.37-3t4.39 3zm-1.09 0c0-1.19-1.1-1.78-3.3-1.78s-3.28.59-3.28 1.78 1.09 1.77 3.28 1.77 3.26-.59 3.26-1.77zM228.13 196.85a2.79 2.79 0 0 1-.34 1.42 2.43 2.43 0 0 1-.94.94 4.9 4.9 0 0 1-1.38.49 9.14 9.14 0 0 1-1.73.15 8.88 8.88 0 0 1-1.72-.15 4.73 4.73 0 0 1-1.37-.49 2.36 2.36 0 0 1-.94-.94 2.79 2.79 0 0 1-.34-1.42q0-3 4.37-3t4.39 3zm-1.09 0q0-1.77-3.3-1.77c-2.19 0-3.28.59-3.28 1.77s1.09 1.78 3.28 1.78 3.26-.63 3.26-1.78z"/><path class="cls-3" d="M215.28 159.74h18.47m-4 0v89"/></svg>