<svg xmlns="http://www.w3.org/2000/svg" viewBox="0 0 265.49 300"><defs><style>.cls-2{stroke:#75b870;stroke-miterlimit:10;stroke-width:3px;fill:#e8f1f9}</style></defs><g id="окна"><path d="M206.9 218.14H58.59V69.83H206.9z" stroke="#75b870" stroke-miterlimit="10" stroke-width="3" fill="#fff"/><path class="cls-2" d="M132.74 210.19H66.16V78.63h66.58zM199.94 210.19h-66.59V78.63h66.59z"/><path d="M121.62 61v-1h1.87v-6a2.66 2.66 0 0 1-.41.49l-.79.77-.72-.74 2-2h1V60h1.86v1zM127.45 60l.67-.87A2.32 2.32 0 0 0 130 60a1.91 1.91 0 0 0 1.31-.48 1.69 1.69 0 0 0 0-2.49 2 2 0 0 0-1.37-.49 2.55 2.55 0 0 0-1.43.42l-.69-.25.42-4.2h4.28v1h-3.25l-.19 1.79-.08.43a2.32 2.32 0 0 1 1.1-.25 2.91 2.91 0 0 1 2.14.8 2.66 2.66 0 0 1 .81 2 2.7 2.7 0 0 1-.85 2 3 3 0 0 1-2.15.81 3.57 3.57 0 0 1-1.44-.3 3.26 3.26 0 0 1-1.16-.79zM137.35 61.14a2.92 2.92 0 0 1-1.42-.33 2.36 2.36 0 0 1-.93-1 4.61 4.61 0 0 1-.49-1.38 8.28 8.28 0 0 1-.16-1.73 8.18 8.18 0 0 1 .16-1.72 4.55 4.55 0 0 1 .49-1.37 2.34 2.34 0 0 1 .93-.94 2.92 2.92 0 0 1 1.42-.34q3 0 3 4.37t-3 4.44zm0-1.09c1.18 0 1.78-1.1 1.78-3.3s-.6-3.27-1.78-3.27-1.78 1.09-1.78 3.27.6 3.3 1.78 3.3zM144.81 61.14a2.88 2.88 0 0 1-1.41-.33 2.45 2.45 0 0 1-.94-1 4.9 4.9 0 0 1-.49-1.38 9 9 0 0 1-.16-1.73A8.91 8.91 0 0 1 142 55a4.84 4.84 0 0 1 .49-1.37 2.43 2.43 0 0 1 .94-.94 2.88 2.88 0 0 1 1.41-.34q3 0 3 4.37t-3.03 4.42zm0-1.09c1.19 0 1.78-1.1 1.78-3.3s-.59-3.27-1.78-3.27-1.81 1.09-1.81 3.27.63 3.3 1.81 3.3zM50 157.05h-1v-1.87h-6a2.64 2.64 0 0 1 .5.41l.76.79-.74.72-2-2V154H49v-1.86h1zM49 151.22l-.86-.67a2.31 2.31 0 0 0 .91-1.86 1.91 1.91 0 0 0-.48-1.31 1.68 1.68 0 0 0-2.48 0 2 2 0 0 0-.5 1.37 2.53 2.53 0 0 0 .42 1.43l-.25.7-4.2-.42v-4.29h1v3.25l1.79.2.43.07a2.41 2.41 0 0 1-.25-1.1 3 3 0 0 1 .8-2.14 2.81 2.81 0 0 1 4 0 3 3 0 0 1 .82 2.14 3.42 3.42 0 0 1-.31 1.44 3 3 0 0 1-.84 1.19zM50.19 141.32a2.79 2.79 0 0 1-.34 1.42 2.3 2.3 0 0 1-1 .93 4.69 4.69 0 0 1-1.38.5 9 9 0 0 1-1.72.15 9.06 9.06 0 0 1-1.73-.15 4.78 4.78 0 0 1-1.36-.5 2.36 2.36 0 0 1-1-.93 2.89 2.89 0 0 1-.33-1.42c0-2 1.45-3 4.37-3s4.49 1 4.49 3zm-1.09 0q0-1.77-3.3-1.77c-2.19 0-3.28.59-3.28 1.77s1.09 1.78 3.28 1.78 3.3-.59 3.3-1.78zM50.19 133.86a2.78 2.78 0 0 1-.34 1.41 2.32 2.32 0 0 1-1 .94 4.69 4.69 0 0 1-1.38.49 8.18 8.18 0 0 1-1.72.16 8.28 8.28 0 0 1-1.73-.16 4.77 4.77 0 0 1-1.36-.49 2.39 2.39 0 0 1-1-.94 2.88 2.88 0 0 1-.33-1.41c0-2 1.45-3 4.37-3s4.49 1 4.49 3zm-1.09 0c0-1.19-1.1-1.78-3.3-1.78s-3.28.59-3.28 1.78 1.09 1.77 3.28 1.77 3.3-.63 3.3-1.77z"/></g></svg>