<svg xmlns="http://www.w3.org/2000/svg" viewBox="0 0 512.001 512.001">
  <path d="M436.999 451.999V181.001c0-48.158-18.879-93.559-53.16-127.84C349.559 18.879 304.158 0 255.999 0s-93.56 18.879-127.84 53.161c-34.28 34.281-53.16 79.682-53.16 127.84v270.997c-5.522 0-9.999 4.477-9.999 10v40.003c0 5.523 4.476 10 10 10h362c5.522 0 10-4.477 10-10v-40.003c-.001-5.522-4.478-9.999-10.001-9.999zm-342-270.998c0-88.776 72.224-161.001 161-161.001 88.775 0 161 72.225 161 161.001v270.997h-20V181.001c0-37.48-14.717-72.837-41.44-99.56-26.724-26.723-62.081-41.44-99.56-41.44-37.48 0-72.839 14.717-99.563 41.44-26.723 26.723-41.439 62.081-41.439 99.56v270.997H94.999V181.001zm233.742 101.382c1.953 1.953 4.512 2.929 7.07 2.929 2.56 0 5.119-.977 7.071-2.929L377 248.268V311.5H266V191.001h58.103c.013 0 .025.002.038.002.014 0 .026-.002.039-.002H377v28.983l-48.259 48.257c-3.906 3.905-3.906 10.237 0 14.142zm-15.276 82.277c1.953 1.953 4.512 2.929 7.071 2.929 2.56 0 5.118-.976 7.071-2.929l33.159-33.159h16.233V452h-111V331.5h66.483l-19.017 19.017c-3.904 3.905-3.904 10.237 0 14.143zm-.203-193.659H266v-47.262c24.056 4.19 43.072 23.205 47.262 47.262zm-47.263-67.479V60.417c58.76 4.831 105.752 51.824 110.583 110.584h-43.105c-4.507-35.101-32.377-62.972-67.478-67.479zm-44.86 300.22c-3.905-3.906-10.237-3.905-14.142 0l-48.258 48.257h-23.742V331.5h111.002v120.499h-58.976l34.115-34.115c3.907-3.905 3.907-10.237.001-14.142zm-86.14-92.242v-20.109l33.158-33.16c3.906-3.905 3.905-10.237 0-14.142-3.905-3.905-10.236-3.905-14.143.001l-19.016 19.017v-72.105h52.82c.014 0 .025.002.039.002.014 0 .025-.002.039-.002H246V311.5H134.999zm63.737-140.499c4.19-24.056 23.207-43.072 47.264-47.262v47.262h-47.264zm-20.216 0h-43.105c4.83-58.76 51.824-105.754 110.586-110.584v43.105c-35.103 4.507-62.974 32.377-67.481 67.479zm248.479 321h-342v-20.003h342v20.003z"/>
  <path d="M174.486 223.619l-.167.167c-3.898 3.911-3.89 10.243.021 14.142 1.951 1.946 4.506 2.919 7.061 2.919 2.564 0 5.128-.98 7.082-2.94l.166-.167c3.9-3.911 3.892-10.243-.021-14.142-3.91-3.9-10.241-3.89-14.142.021zM293.15 370.831l-.167.167c-3.905 3.905-3.905 10.237 0 14.142 1.952 1.953 4.513 2.929 7.071 2.929s5.119-.976 7.071-2.929l.167-.167c3.904-3.905 3.904-10.237 0-14.143-3.905-3.904-10.236-3.904-14.142.001z"/>
</svg>
