<svg xmlns="http://www.w3.org/2000/svg" viewBox="0 0 512 512" fill="#6db468"><path d="M498.409 175.706L336.283 13.582C327.531 4.831 315.86.011 303.418.011c-12.441 0-24.113 4.818-32.865 13.569L13.571 270.563C4.82 279.315 0 290.985 0 303.427c0 12.442 4.82 24.114 13.571 32.864l19.992 19.992.005.005.006.006 134.36 134.36H149.33c-5.89 0-10.666 4.775-10.666 10.666 0 5.89 4.776 10.666 10.666 10.666h59.189l.041.001.041-.001 154.053.002c5.89 0 10.666-4.776 10.666-10.666 0-5.891-4.776-10.666-10.666-10.666l-113.464-.002 249.22-249.22c18.12-18.122 18.12-47.608-.001-65.728zm-15.084 50.644L226.341 483.334c-4.713 4.712-11.013 7.31-17.742 7.32h-.081c-6.727-.011-13.025-2.608-17.736-7.32L56.195 348.746 302.99 101.949c4.165-4.165 4.165-10.919 0-15.084-4.166-4.165-10.918-4.165-15.085.001L41.11 333.663l-12.456-12.456c-4.721-4.721-7.321-11.035-7.321-17.779s2.6-13.059 7.322-17.781L285.637 28.665c4.722-4.721 11.037-7.321 17.781-7.321 6.744 0 13.059 2.6 17.781 7.322l57.703 57.702-246.798 246.8c-4.165 4.164-4.165 10.918 0 15.085a10.636 10.636 0 0 0 7.542 3.123c2.729 0 5.459-1.042 7.542-3.124l246.798-246.799 89.339 89.336c9.803 9.804 9.802 25.757 0 35.561z"/><path d="M262.801 308.064c-4.165-4.165-10.917-4.164-15.085 0l-83.934 83.933c-4.165 4.165-4.165 10.918 0 15.085a10.633 10.633 0 0 0 7.542 3.124c2.729 0 5.459-1.042 7.542-3.124l83.934-83.933c4.166-4.167 4.166-10.92.001-15.085zM228.375 387.741l-34.425 34.425c-4.165 4.165-4.165 10.919 0 15.085a10.637 10.637 0 0 0 7.542 3.124c2.731 0 5.459-1.042 7.542-3.124l34.425-34.425c4.165-4.165 4.165-10.919 0-15.085s-10.916-4.166-15.084 0zM260.054 356.065l-4.525 4.524c-4.166 4.165-4.166 10.918-.001 15.085a10.632 10.632 0 0 0 7.542 3.125 10.63 10.63 0 0 0 7.541-3.125l4.525-4.524c4.166-4.165 4.166-10.918.001-15.084-4.163-4.165-10.918-4.166-15.083-.001zM407.073 163.793a10.666 10.666 0 0 0-15.084 0l-45.255 45.254a10.668 10.668 0 0 0 0 15.084l30.17 30.167a10.633 10.633 0 0 0 7.542 3.124c2.731 0 5.459-1.042 7.542-3.124l45.253-45.252c4.165-4.165 4.165-10.919 0-15.084l-30.168-30.169zm-22.628 67.88l-15.085-15.084 30.17-30.169 15.084 15.085-30.169 30.168zM320.339 80.186c2.731 0 5.461-1.042 7.543-3.126l4.525-4.527c4.164-4.166 4.163-10.92-.003-15.084-4.165-4.164-10.92-4.163-15.084.003l-4.525 4.527c-4.164 4.166-4.163 10.92.003 15.084a10.628 10.628 0 0 0 7.541 3.123zM107.215 358.057l-4.525 4.525c-4.165 4.164-4.165 10.918 0 15.085 2.083 2.082 4.813 3.123 7.542 3.123s5.459-1.041 7.542-3.123l4.525-4.525c4.165-4.166 4.165-10.92 0-15.085-4.166-4.166-10.918-4.166-15.084 0z"/></svg>