<svg xmlns="http://www.w3.org/2000/svg" viewBox="0 0 512 512"><path d="M511.413 475.717l-80-287.999A15.99 15.99 0 0 0 415.999 176H272v-34.274c32-7.156 48-31.994 48-61.726 0-35.289-28.711-64-64-64s-64 28.711-64 64c0 29.732 16 54.57 48 61.726V176H96.001a15.991 15.991 0 0 0-15.414 11.718l-80 287.999a15.954 15.954 0 0 0 2.68 13.962A15.982 15.982 0 0 0 16.001 496h479.998c5 0 9.711-2.337 12.734-6.321a15.954 15.954 0 0 0 2.68-13.962zM224 80c0-17.648 14.352-32 32-32s32 14.352 32 32-14.352 32-32 32-32-14.352-32-32zM37.048 464l71.117-256h295.671l71.117 256H37.048z"/></svg>