<svg xmlns="http://www.w3.org/2000/svg" viewBox="0 0 512 512"><path d="M186 452c-5.52 0-10 4.48-10 10s4.48 10 10 10 10-4.48 10-10-4.48-10-10-10z"/><path d="M448.78 380.858a94.297 94.297 0 0 0-20.559-30.779l-44.44-44.439c-.392-.392-.783-.783-1.199-1.208-40.674-41.388-65.345-102.328-66.525-163.818C327.912 133.714 336 120.911 336 106a39.926 39.926 0 0 0-14.68-30.955l8.214-37.942C334.136 18.218 319.839 0 300.38 0h-88.76c-19.44 0-33.761 18.198-29.154 37.104l8.219 37.963C181.107 82.912 176 94.185 176 106c0 14.753 8.035 27.657 19.952 34.591-.989 50.576-18.242 101.986-47.691 141.731-6.183 8.356-12.926 16.201-20.042 23.317l-44.44 44.44C65.865 367.993 56 391.813 56 417.15c0 25.326 9.864 49.145 27.781 67.073C101.705 502.136 125.523 512 150.85 512h210.3c52.3 0 94.85-42.55 94.85-94.85a94.39 94.39 0 0 0-7.22-36.292zM211.62 20h88.76c6.506 0 11.286 6.104 9.708 12.428-.025.102-.049.204-.071.306L302.69 66.58A39.953 39.953 0 0 0 296 66h-80c-2.245 0-4.483.205-6.69.58l-7.327-33.846a9.748 9.748 0 0 0-.071-.306C200.338 26.117 205.102 20 211.62 20zM216 86h80c11.088 0 20 8.999 20 20 0 11.045-8.954 20-20 20h-80c-11.028 0-20-8.972-20-20 0-11.102 9.019-20 20-20zm-.197 60h80.39c2.295 59.603 24.969 118.388 62.1 161.522-36.322 12.107-80.095 8.046-106.771-11.01-21.881-15.625-48.062-23.033-74.342-21.483 23.139-38.284 36.849-83.832 38.623-129.029zM361.15 492h-210.3c-19.986 0-38.784-7.786-52.927-21.919C83.786 455.935 76 437.136 76 417.15c0-19.995 7.785-38.792 21.921-52.929l44.44-44.44c6.907-6.907 13.485-14.432 19.593-22.401 27.02-6.333 55.267-.784 77.943 15.407 20.063 14.331 47.243 21.67 75.188 21.67 19.737-.001 39.852-3.675 58.105-11.123l40.888 40.887a74.399 74.399 0 0 1 16.223 24.285A74.49 74.49 0 0 1 436 417.15c0 41.272-33.577 74.85-74.85 74.85z"/><path d="M150.85 452c-19.216 0-34.85-15.634-34.85-34.85 0-9.309 3.624-18.064 10.205-24.653 3.903-3.907 3.899-10.239-.008-14.142-3.909-3.903-10.239-3.899-14.143.008C101.702 388.728 96 402.503 96 417.15c0 30.245 24.605 54.85 54.85 54.85 5.522 0 10-4.477 10-10s-4.478-10-10-10zM206 332c-16.542 0-30 13.458-30 30s13.458 30 30 30 30-13.458 30-30-13.458-30-30-30zm0 40c-5.514 0-10-4.486-10-10s4.486-10 10-10 10 4.486 10 10-4.486 10-10 10zM336 372c-22.056 0-40 17.944-40 40s17.944 40 40 40 40-17.944 40-40-17.944-40-40-40zm0 60c-11.028 0-20-8.972-20-20s8.972-20 20-20 20 8.972 20 20-8.972 20-20 20z"/></svg>