<svg viewBox="0 0 512 512" xmlns="http://www.w3.org/2000/svg" fill="#28b663"><path d="M226.918 37.898c-55.43 29.528-109.457 68.07-129.664 88.278C75.816 147.617 64 176.136 64 206.465c0 24.914 8.086 48.535 22.824 68.09L4.688 356.69c-6.25 6.247-6.25 16.375 0 22.622A15.919 15.919 0 0 0 16 384c4.094 0 8.191-1.559 11.313-4.688l82.132-82.136C129 311.914 152.621 320 177.535 320c30.328 0 58.84-11.816 80.29-33.254 20.206-20.207 58.75-74.234 88.269-129.664 39.808-74.738 48.16-122.066 25.52-144.695-22.622-22.649-69.958-14.29-144.696 25.511zm90.937 104.145c-17.527 32.902-38.64 65.687-56.402 89.957H216c-8.832 0-16 7.168-16 16s7.168 16 16 16h19.313a1.661 1.661 0 0 0-.114.121C219.797 279.511 199.32 288 177.535 288c-16.344 0-31.953-4.781-45.242-13.672l119.02-119.015c6.246-6.247 6.246-16.375 0-22.622-6.243-6.25-16.387-6.25-22.625 0L109.671 251.707C100.773 238.418 96 222.801 96 206.465c0-21.785 8.48-42.254 23.879-57.656 3.902-3.903 9.433-8.696 16.121-14.047V160c0 8.832 7.168 16 16 16s16-7.168 16-16v-48.79c21.773-14.968 47.832-31.144 73.957-45.058 50.234-26.757 79.914-34.168 95.106-34.168 6.375 0 10.199 1.305 11.93 3.032 5.839 5.824 6.847 35.714-31.138 107.027zm0 0"/></svg>