<svg xmlns="http://www.w3.org/2000/svg" viewBox="0 0 265.49 300"><defs><style>.cls-1{fill:#fff;stroke:#75b870;stroke-miterlimit:10;stroke-width:3px}</style></defs><g id="окна"><path class="cls-1" d="M237 201.1h-76V52.79h76zM237 266.12h-76v-65h76z"/><path d="M227.54 193.15h-58.68V61.59h58.68z" fill="#e8f1f9" stroke="#75b870" stroke-miterlimit="10" stroke-width="3"/><path d="M227.54 260.33h-58.68v-52.66h58.68z" fill="#e2e2e2" stroke="#75b870" stroke-miterlimit="10" stroke-width="3"/><path d="M244 145.53h1v1.87h5.99a2.3 2.3 0 0 1-.49-.41l-.77-.79.74-.72 2 2v1.06H245v1.86h-1zM244.15 151.78l1 .39a2.57 2.57 0 0 0-.29 1.21 2.1 2.1 0 0 0 .83 1.74 4.09 4.09 0 0 0 2 .8 1.78 1.78 0 0 1-.58-.78A2.93 2.93 0 0 1 247 154a2.51 2.51 0 0 1 .79-1.93 2.78 2.78 0 0 1 2-.75 2.82 2.82 0 0 1 2 .77 2.59 2.59 0 0 1 .79 2 2.78 2.78 0 0 1-1.1 2.27 4.43 4.43 0 0 1-2.89.89 6 6 0 0 1-3.19-.91 3.28 3.28 0 0 1-1.14-1.2 3.34 3.34 0 0 1-.44-1.7 3.74 3.74 0 0 1 .33-1.66zm3.79 2.49a2.07 2.07 0 0 0 .37 1.22 1 1 0 0 0 .82.52 2.55 2.55 0 0 0 1.6-.57 1.65 1.65 0 0 0 .74-1.35A1.43 1.43 0 0 0 251 153a1.88 1.88 0 0 0-1.26-.42 1.81 1.81 0 0 0-1.29.47 1.65 1.65 0 0 0-.51 1.22zM245 158.53l.87.67a2.32 2.32 0 0 0-.92 1.86 1.91 1.91 0 0 0 .48 1.31 1.58 1.58 0 0 0 1.24.54 1.6 1.6 0 0 0 1.25-.55 2 2 0 0 0 .49-1.37 2.53 2.53 0 0 0-.42-1.43l.25-.7 4.2.42v4.29h-1v-3.25l-1.79-.2-.43-.07a2.29 2.29 0 0 1 .25 1.1 3 3 0 0 1-.8 2.14 2.81 2.81 0 0 1-4 0 3 3 0 0 1-.82-2.14 3.58 3.58 0 0 1 .31-1.44 3 3 0 0 1 .84-1.18zM243.8 168.43a2.9 2.9 0 0 1 .34-1.42 2.3 2.3 0 0 1 1-.93 4.91 4.91 0 0 1 1.38-.5 9.06 9.06 0 0 1 1.73-.15 9 9 0 0 1 1.72.15 4.85 4.85 0 0 1 1.37.5 2.34 2.34 0 0 1 .94.93 2.89 2.89 0 0 1 .33 1.42q0 3-4.36 3t-4.45-3zm1.1 0q0 1.77 3.3 1.77t3.27-1.77c0-1.19-1.09-1.78-3.27-1.78s-3.3.59-3.3 1.78zM187.05 45.47l3.3-6.66c.07-.14.15-.28.23-.41a3.11 3.11 0 0 1 .19-.28l.06-.09h-4.39V37h5.66v.82l-3.81 7.65zM196.13 45.62a2.9 2.9 0 0 1-1.42-.34 2.39 2.39 0 0 1-.94-1 5.23 5.23 0 0 1-.49-1.38 9.06 9.06 0 0 1-.15-1.73 9 9 0 0 1 .15-1.72 5.16 5.16 0 0 1 .49-1.37 2.5 2.5 0 0 1 .94-.94 2.89 2.89 0 0 1 1.42-.33c2 0 3 1.45 3 4.36s-1.01 4.45-3 4.45zm0-1.1q1.77 0 1.77-3.3T196.13 38c-1.19 0-1.78 1.09-1.78 3.27s.59 3.25 1.78 3.25zM203.59 45.62a2.9 2.9 0 0 1-1.42-.34 2.3 2.3 0 0 1-.93-1 4.91 4.91 0 0 1-.5-1.38 9.06 9.06 0 0 1-.15-1.73 9 9 0 0 1 .15-1.72 4.85 4.85 0 0 1 .5-1.37 2.4 2.4 0 0 1 .93-.94 2.89 2.89 0 0 1 1.42-.33q3 0 3 4.36t-3 4.45zm0-1.1q1.77 0 1.77-3.3T203.59 38c-1.19 0-1.78 1.09-1.78 3.27s.59 3.25 1.78 3.25z"/></g></svg>