<svg id="Layer_1" data-name="Layer 1" xmlns="http://www.w3.org/2000/svg" viewBox="0 0 500 500">
  <defs>
    <style>
      .cls-3{fill:none;stroke:#6db468;stroke-miterlimit:10}
    </style>
  </defs>
  <rect x="126.5" y="186" width="235" height="93" rx="7.17" ry="7.17" stroke-width="2" fill="none" stroke="#6db468" stroke-miterlimit="10"/>
  <path d="M126.5 271.83v-78.66a7.17 7.17 0 0 1 7.17-7.17h220.66a7.17 7.17 0 0 1 7.17 7.17v78.66" stroke-width="4" fill="none" stroke="#6db468" stroke-miterlimit="10"/>
  <path class="cls-3" d="M361.5 268h-235"/>
  <circle class="cls-3" cx="160.5" cy="199" r="2.5"/>
  <circle class="cls-3" cx="170.5" cy="199" r="2.5"/>
  <circle class="cls-3" cx="180.5" cy="199" r="2.5"/>
  <circle class="cls-3" cx="190.5" cy="199" r="2.5"/>
  <circle class="cls-3" cx="200.5" cy="199" r="2.5"/>
  <circle class="cls-3" cx="210.5" cy="199" r="2.5"/>
  <circle class="cls-3" cx="220.5" cy="199" r="2.5"/>
  <circle class="cls-3" cx="230.5" cy="199" r="2.5"/>
  <circle class="cls-3" cx="240.5" cy="199" r="2.5"/>
  <circle class="cls-3" cx="250.5" cy="199" r="2.5"/>
  <circle class="cls-3" cx="260.5" cy="199" r="2.5"/>
  <circle class="cls-3" cx="270.5" cy="199" r="2.5"/>
  <circle class="cls-3" cx="280.5" cy="199" r="2.5"/>
  <circle class="cls-3" cx="290.5" cy="199" r="2.5"/>
  <circle class="cls-3" cx="300.5" cy="199" r="2.5"/>
  <circle class="cls-3" cx="310.5" cy="199" r="2.5"/>
  <circle class="cls-3" cx="320.5" cy="199" r="2.5"/>
  <circle class="cls-3" cx="330.5" cy="199" r="2.5"/>
  <circle class="cls-3" cx="160.5" cy="209" r="2.5"/>
  <circle class="cls-3" cx="170.5" cy="209" r="2.5"/>
  <circle class="cls-3" cx="180.5" cy="209" r="2.5"/>
  <circle class="cls-3" cx="190.5" cy="209" r="2.5"/>
  <circle class="cls-3" cx="200.5" cy="209" r="2.5"/>
  <circle class="cls-3" cx="210.5" cy="209" r="2.5"/>
  <circle class="cls-3" cx="220.5" cy="209" r="2.5"/>
  <circle class="cls-3" cx="230.5" cy="209" r="2.5"/>
  <circle class="cls-3" cx="240.5" cy="209" r="2.5"/>
  <circle class="cls-3" cx="250.5" cy="209" r="2.5"/>
  <circle class="cls-3" cx="260.5" cy="209" r="2.5"/>
  <circle class="cls-3" cx="270.5" cy="209" r="2.5"/>
  <circle class="cls-3" cx="280.5" cy="209" r="2.5"/>
  <circle class="cls-3" cx="290.5" cy="209" r="2.5"/>
  <circle class="cls-3" cx="300.5" cy="209" r="2.5"/>
  <circle class="cls-3" cx="310.5" cy="209" r="2.5"/>
  <circle class="cls-3" cx="320.5" cy="209" r="2.5"/>
  <circle class="cls-3" cx="330.5" cy="209" r="2.5"/>
  <circle class="cls-3" cx="160.5" cy="219" r="2.5"/>
  <circle class="cls-3" cx="170.5" cy="219" r="2.5"/>
  <circle class="cls-3" cx="180.5" cy="219" r="2.5"/>
  <circle class="cls-3" cx="190.5" cy="219" r="2.5"/>
  <circle class="cls-3" cx="200.5" cy="219" r="2.5"/>
  <circle class="cls-3" cx="210.5" cy="219" r="2.5"/>
  <circle class="cls-3" cx="220.5" cy="219" r="2.5"/>
  <circle class="cls-3" cx="230.5" cy="219" r="2.5"/>
  <circle class="cls-3" cx="240.5" cy="219" r="2.5"/>
  <circle class="cls-3" cx="250.5" cy="219" r="2.5"/>
  <circle class="cls-3" cx="260.5" cy="219" r="2.5"/>
  <circle class="cls-3" cx="270.5" cy="219" r="2.5"/>
  <circle class="cls-3" cx="280.5" cy="219" r="2.5"/>
  <circle class="cls-3" cx="290.5" cy="219" r="2.5"/>
  <circle class="cls-3" cx="300.5" cy="219" r="2.5"/>
  <circle class="cls-3" cx="310.5" cy="219" r="2.5"/>
  <circle class="cls-3" cx="320.5" cy="219" r="2.5"/>
  <circle class="cls-3" cx="330.5" cy="219" r="2.5"/>
  <circle class="cls-3" cx="160.5" cy="229" r="2.5"/>
  <circle class="cls-3" cx="170.5" cy="229" r="2.5"/>
  <circle class="cls-3" cx="180.5" cy="229" r="2.5"/>
  <circle class="cls-3" cx="190.5" cy="229" r="2.5"/>
  <circle class="cls-3" cx="200.5" cy="229" r="2.5"/>
  <circle class="cls-3" cx="210.5" cy="229" r="2.5"/>
  <circle class="cls-3" cx="220.5" cy="229" r="2.5"/>
  <circle class="cls-3" cx="230.5" cy="229" r="2.5"/>
  <circle class="cls-3" cx="240.5" cy="229" r="2.5"/>
  <circle class="cls-3" cx="250.5" cy="229" r="2.5"/>
  <circle class="cls-3" cx="260.5" cy="229" r="2.5"/>
  <circle class="cls-3" cx="270.5" cy="229" r="2.5"/>
  <circle class="cls-3" cx="280.5" cy="229" r="2.5"/>
  <circle class="cls-3" cx="290.5" cy="229" r="2.5"/>
  <circle class="cls-3" cx="300.5" cy="229" r="2.5"/>
  <circle class="cls-3" cx="310.5" cy="229" r="2.5"/>
  <circle class="cls-3" cx="320.5" cy="229" r="2.5"/>
  <circle class="cls-3" cx="330.5" cy="229" r="2.5"/>
  <circle class="cls-3" cx="160.5" cy="239" r="2.5"/>
  <circle class="cls-3" cx="170.5" cy="239" r="2.5"/>
  <circle class="cls-3" cx="180.5" cy="239" r="2.5"/>
  <circle class="cls-3" cx="190.5" cy="239" r="2.5"/>
  <circle class="cls-3" cx="200.5" cy="239" r="2.5"/>
  <circle class="cls-3" cx="210.5" cy="239" r="2.5"/>
  <circle class="cls-3" cx="220.5" cy="239" r="2.5"/>
  <circle class="cls-3" cx="230.5" cy="239" r="2.5"/>
  <circle class="cls-3" cx="240.5" cy="239" r="2.5"/>
  <circle class="cls-3" cx="250.5" cy="239" r="2.5"/>
  <circle class="cls-3" cx="260.5" cy="239" r="2.5"/>
  <circle class="cls-3" cx="270.5" cy="239" r="2.5"/>
  <circle class="cls-3" cx="280.5" cy="239" r="2.5"/>
  <circle class="cls-3" cx="290.5" cy="239" r="2.5"/>
  <circle class="cls-3" cx="300.5" cy="239" r="2.5"/>
  <circle class="cls-3" cx="310.5" cy="239" r="2.5"/>
  <circle class="cls-3" cx="320.5" cy="239" r="2.5"/>
  <circle class="cls-3" cx="330.5" cy="239" r="2.5"/>
  <circle class="cls-3" cx="160.5" cy="249" r="2.5"/>
  <circle class="cls-3" cx="170.5" cy="249" r="2.5"/>
  <circle class="cls-3" cx="180.5" cy="249" r="2.5"/>
  <circle class="cls-3" cx="190.5" cy="249" r="2.5"/>
  <circle class="cls-3" cx="200.5" cy="249" r="2.5"/>
  <circle class="cls-3" cx="210.5" cy="249" r="2.5"/>
  <circle class="cls-3" cx="220.5" cy="249" r="2.5"/>
  <circle class="cls-3" cx="230.5" cy="249" r="2.5"/>
  <circle class="cls-3" cx="240.5" cy="249" r="2.5"/>
  <circle class="cls-3" cx="250.5" cy="249" r="2.5"/>
  <circle class="cls-3" cx="260.5" cy="249" r="2.5"/>
  <circle class="cls-3" cx="270.5" cy="249" r="2.5"/>
  <circle class="cls-3" cx="280.5" cy="249" r="2.5"/>
  <circle class="cls-3" cx="290.5" cy="249" r="2.5"/>
  <circle class="cls-3" cx="300.5" cy="249" r="2.5"/>
  <circle class="cls-3" cx="310.5" cy="249" r="2.5"/>
  <circle class="cls-3" cx="320.5" cy="249" r="2.5"/>
  <circle class="cls-3" cx="330.5" cy="249" r="2.5"/>
  <circle class="cls-3" cx="160.5" cy="259" r="2.5"/>
  <circle class="cls-3" cx="170.5" cy="259" r="2.5"/>
  <circle class="cls-3" cx="180.5" cy="259" r="2.5"/>
  <circle class="cls-3" cx="190.5" cy="259" r="2.5"/>
  <circle class="cls-3" cx="200.5" cy="259" r="2.5"/>
  <circle class="cls-3" cx="210.5" cy="259" r="2.5"/>
  <circle class="cls-3" cx="220.5" cy="259" r="2.5"/>
  <circle class="cls-3" cx="230.5" cy="259" r="2.5"/>
  <circle class="cls-3" cx="240.5" cy="259" r="2.5"/>
  <circle class="cls-3" cx="250.5" cy="259" r="2.5"/>
  <circle class="cls-3" cx="260.5" cy="259" r="2.5"/>
  <circle class="cls-3" cx="270.5" cy="259" r="2.5"/>
  <circle class="cls-3" cx="280.5" cy="259" r="2.5"/>
  <circle class="cls-3" cx="290.5" cy="259" r="2.5"/>
  <circle class="cls-3" cx="300.5" cy="259" r="2.5"/>
  <circle class="cls-3" cx="310.5" cy="259" r="2.5"/>
  <circle class="cls-3" cx="320.5" cy="259" r="2.5"/>
  <circle class="cls-3" cx="330.5" cy="259" r="2.5"/>
  <path class="cls-3" d="M204 268.5h86v10h-86zM127.71 276.58l14.33-8.58M338.31 278.63L356.63 268M329.25 279.06L349 267.88M346.88 278.75l14.33-8.58M135.39 278.33l16.88-10.16M144.35 278.33l16.87-10.16M153.3 278.33l16.87-10.16M162.25 278.33l16.88-10.16M171.21 278.33l16.87-10.16M180.16 278.33l16.88-10.16M290 275.25l11.81-7.25M292.59 279.09l18.38-11.12M301.92 278.87l17.99-10.84M311.24 278.64l17.83-10.73M320.57 278.42L337.92 268M191.17 278.33l12.77-7.64"/>
</svg>
