<svg xmlns="http://www.w3.org/2000/svg" viewBox="0 0 315 315"><path d="M308 62.841H7a7 7 0 0 0-7 7V217.7a7 7 0 0 0 7 7h8.842v20.459a7 7 0 1 0 14 0V224.7h251.092v20.459a7 7 0 1 0 14 0V224.7H308a7 7 0 0 0 7-7V69.841a7 7 0 0 0-7-7zM14 126.127h136.5v35.287H14v-35.287zm150.5 0H301v35.287H164.5v-35.287zm136.5-14H164.5V76.841H301v35.286zM150.5 76.841v35.286H14V76.841h136.5zM14 175.414h136.5V210.7H14v-35.286zM164.5 210.7v-35.286H301V210.7H164.5z"/><circle cx="82.25" cy="94.957" r="8.29"/><circle cx="82.25" cy="143.771" r="8.29"/><circle cx="82.25" cy="194.774" r="8.29"/><circle cx="232.75" cy="94.957" r="8.29"/><circle cx="232.75" cy="143.771" r="8.29"/><circle cx="232.75" cy="194.774" r="8.29"/></svg>