<svg id="двери" xmlns="http://www.w3.org/2000/svg" viewBox="0 0 300 300"><defs><style>.cls-3{fill:none;stroke-miterlimit:10;stroke:#232323}</style></defs><path d="M220.49 250.79H62V31.29h158.5z" stroke-miterlimit="10" stroke="#75b870" stroke-width="3" fill="none"/><path d="M211.37 238.43H132.1V48.76h79.27zM122 48.76H73.49v189.67H122z" fill="#e8f1f9" stroke-miterlimit="10" stroke="#75b870" stroke-width="3"/><path d="M241.68 137.32a4.34 4.34 0 0 1-.65.06 2.87 2.87 0 0 1-1.14-.23 3.17 3.17 0 0 1-.91-.59 8.09 8.09 0 0 1-.73-.81c-.22-.3-.44-.6-.64-.9a9.48 9.48 0 0 0-.6-.81 2.52 2.52 0 0 0-.67-.6 1.41 1.41 0 0 0-.76-.23 1.3 1.3 0 0 0-1 .44 1.56 1.56 0 0 0-.39 1.1 1.79 1.79 0 0 0 .3 1 2.3 2.3 0 0 0 .78.74l-.59.87a3.1 3.1 0 0 1-1.16-1.09 2.9 2.9 0 0 1-.45-1.6 2.76 2.76 0 0 1 .68-1.92 2.26 2.26 0 0 1 1.76-.74 2.55 2.55 0 0 1 1.21.3 2.9 2.9 0 0 1 .93.75c.24.3.49.63.75 1s.49.68.69 1a2.72 2.72 0 0 0 .71.76 1.48 1.48 0 0 0 .86.32v-4.22h1zM241.68 130.48h-1v-1.87h-5.99a2.3 2.3 0 0 1 .49.41l.77.79-.75.72-2-2v-1.06h7.44v-1.86h1zM241.82 121.5a2.89 2.89 0 0 1-.33 1.42 2.36 2.36 0 0 1-1 .93 4.91 4.91 0 0 1-1.38.5 9.06 9.06 0 0 1-1.73.15 9 9 0 0 1-1.72-.15 4.85 4.85 0 0 1-1.37-.5 2.34 2.34 0 0 1-.94-.93 2.79 2.79 0 0 1-.34-1.42q0-3 4.37-3t4.44 3zm-1.09 0q0-1.77-3.3-1.77t-3.27 1.77c0 1.19 1.09 1.78 3.27 1.78s3.3-.59 3.3-1.78zM241.82 114a2.88 2.88 0 0 1-.33 1.41 2.39 2.39 0 0 1-1 .94 4.9 4.9 0 0 1-1.38.49 8.28 8.28 0 0 1-1.73.16 8.18 8.18 0 0 1-1.72-.16 4.84 4.84 0 0 1-1.37-.49 2.36 2.36 0 0 1-.94-.94 2.78 2.78 0 0 1-.34-1.41q0-3 4.37-3t4.44 3zm-1.09 0c0-1.19-1.1-1.78-3.3-1.78s-3.27.59-3.27 1.78 1.09 1.77 3.27 1.77 3.3-.55 3.3-1.77zM129.7 278.39v-1h1.87v-5.99a2.18 2.18 0 0 1-.4.49l-.78.78-.73-.74 2-2h1.06l.06 7.44h1.86v1zM135.52 277.31l.67-.86a2.3 2.3 0 0 0 1.87.89 1.89 1.89 0 0 0 1.3-.49 1.68 1.68 0 0 0 0-2.48 1.9 1.9 0 0 0-1.37-.48 2.53 2.53 0 0 0-1.43.43l-.7-.25.39-4.2h4.28v1h-3.25l-.18 1.79-.07.43a2.41 2.41 0 0 1 1.1-.26 3 3 0 0 1 2.14.78 2.64 2.64 0 0 1 .83 2 2.67 2.67 0 0 1-.84 2 3 3 0 0 1-2.13.83 3.43 3.43 0 0 1-1.45-.3 3.13 3.13 0 0 1-1.16-.83zM145.43 278.41a2.84 2.84 0 0 1-1.42-.32 2.43 2.43 0 0 1-.94-.94 4.91 4.91 0 0 1-.5-1.38 9.68 9.68 0 0 1 0-3.45A4.72 4.72 0 0 1 143 271a2.36 2.36 0 0 1 1-1 2.89 2.89 0 0 1 1.41-.35c2 0 3 1.43 3 4.35s-.98 4.4-2.98 4.41zm0-1.09c1.19 0 1.77-1.11 1.75-3.31s-.61-3.27-1.8-3.26-1.77 1.1-1.75 3.28.61 3.3 1.79 3.29zM152.9 278.35a2.79 2.79 0 0 1-1.42-.32 2.45 2.45 0 0 1-.95-.94 5.24 5.24 0 0 1-.5-1.38 8.86 8.86 0 0 1-.17-1.72 9.11 9.11 0 0 1 .14-1.73 4.55 4.55 0 0 1 .49-1.37 2.47 2.47 0 0 1 .92-.95 2.9 2.9 0 0 1 1.42-.35q3 0 3 4.35c.05 2.93-.93 4.4-2.93 4.41zm0-1.09c1.18 0 1.77-1.11 1.75-3.31s-.62-3.27-1.8-3.26-1.77 1.1-1.75 3.29.6 3.29 1.79 3.28zM86.92 258.55a6.76 6.76 0 0 1 .13-1.34 6.14 6.14 0 0 1 .44-1.29 4.58 4.58 0 0 1 .73-1.1 3.13 3.13 0 0 1 1.07-.77 3.26 3.26 0 0 1 1.4-.3 3.76 3.76 0 0 1 1.66.33l-.38 1a2.53 2.53 0 0 0-1.23-.26 2.06 2.06 0 0 0-1.72.85 4.08 4.08 0 0 0-.79 2 1.78 1.78 0 0 1 .78-.58 2.71 2.71 0 0 1 1.08-.22 2.52 2.52 0 0 1 1.94.77 2.84 2.84 0 0 1 .76 2 2.78 2.78 0 0 1-.75 2 2.64 2.64 0 0 1-1.95.81 2.81 2.81 0 0 1-2.28-1.08 4.47 4.47 0 0 1-.89-2.82zm3.23 2.87a1.34 1.34 0 0 0 1.08-.5 1.84 1.84 0 0 0 .42-1.24 1.87 1.87 0 0 0-.48-1.3 1.69 1.69 0 0 0-1.28-.49 2.21 2.21 0 0 0-1.21.36 1.07 1.07 0 0 0-.51.91 2.64 2.64 0 0 0 .57 1.52 1.7 1.7 0 0 0 1.41.74zM97.16 262.46a3 3 0 0 1-1.42-.33 2.36 2.36 0 0 1-.94-.94 4.8 4.8 0 0 1-.5-1.38 8.15 8.15 0 0 1-.17-1.72 8.36 8.36 0 0 1 .14-1.73 4.94 4.94 0 0 1 .48-1.37 2.43 2.43 0 0 1 .93-1 2.88 2.88 0 0 1 1.41-.34c2 0 3 1.43 3 4.34s-.93 4.45-2.93 4.47zm0-1.1c1.19 0 1.77-1.11 1.75-3.31s-.61-3.27-1.8-3.26-1.76 1.1-1.75 3.29.64 3.29 1.79 3.28zM104.63 262.4a2.89 2.89 0 0 1-1.42-.33 2.39 2.39 0 0 1-.95-.94 5 5 0 0 1-.5-1.37 9.68 9.68 0 0 1 0-3.45 4.9 4.9 0 0 1 .49-1.38 2.47 2.47 0 0 1 .92-1 2.9 2.9 0 0 1 1.42-.34q3 0 3 4.34t-2.96 4.47zm0-1.1c1.18 0 1.77-1.11 1.75-3.31s-.62-3.27-1.8-3.26-1.77 1.1-1.75 3.29.6 3.29 1.79 3.28zM167.77 262.19l.38-1a2.69 2.69 0 0 0 1.21.28 2.11 2.11 0 0 0 1.74-.85 4.07 4.07 0 0 0 .78-2 1.74 1.74 0 0 1-.77.58 2.79 2.79 0 0 1-1.09.22 2.52 2.52 0 0 1-1.94-.77 3.08 3.08 0 0 1 0-4 2.59 2.59 0 0 1 1.95-.8 2.78 2.78 0 0 1 2.28 1.08 4.48 4.48 0 0 1 .92 2.89 6.26 6.26 0 0 1-.22 1.66 6 6 0 0 1-.67 1.54 3.57 3.57 0 0 1-1.2 1.15 3.27 3.27 0 0 1-1.69.44 3.77 3.77 0 0 1-1.68-.42zm2.46-3.81a2.08 2.08 0 0 0 1.22-.38 1 1 0 0 0 .51-.83 2.62 2.62 0 0 0-.58-1.59 1.67 1.67 0 0 0-1.36-.73 1.4 1.4 0 0 0-1.12.49 2.07 2.07 0 0 0 .06 2.55 1.68 1.68 0 0 0 1.27.49zM177.66 262.46a2.88 2.88 0 0 1-1.41-.33 2.32 2.32 0 0 1-.95-.94 4.74 4.74 0 0 1-.5-1.37 8.31 8.31 0 0 1-.17-1.73 8.2 8.2 0 0 1 .14-1.72 4.89 4.89 0 0 1 .48-1.38 2.43 2.43 0 0 1 .93-1 2.88 2.88 0 0 1 1.41-.34c2 0 3 1.43 3 4.34s-.93 4.45-2.93 4.47zm0-1.1c1.19 0 1.77-1.11 1.75-3.31s-.61-3.27-1.8-3.26-1.76 1.1-1.75 3.29.61 3.29 1.79 3.28zM185.13 262.4a2.89 2.89 0 0 1-1.42-.33 2.39 2.39 0 0 1-1-.94 5 5 0 0 1-.5-1.37 9 9 0 0 1-.17-1.73 8.22 8.22 0 0 1 .15-1.72 4.6 4.6 0 0 1 .48-1.38 2.38 2.38 0 0 1 .92-.94 2.79 2.79 0 0 1 1.42-.35q3 0 3 4.34t-2.88 4.42zm0-1.1c1.18 0 1.77-1.11 1.75-3.31s-.62-3.27-1.8-3.26-1.77 1.11-1.75 3.29.6 3.29 1.79 3.28z"/><path class="cls-3" d="M61 263.79h66.66M221.49 30.79h35m-35 221h35m-8-221v220M61 252.29v33m66.66-33v13.5m93.34-13.5v33m-160-4.5h159.5m-92.5-17h93"/></svg>