<svg xmlns="http://www.w3.org/2000/svg" viewBox="0 0 512.001 512.001">
  <path d="M502.001 75H10C4.477 75 0 79.477 0 85v342c0 5.523 4.477 10 10 10h492.001c5.522 0 10-4.477 10-10V85c0-5.524-4.478-10-10-10zM164 299.266l-54.662 54.664c-3.905 3.904-3.904 10.236 0 14.143 1.953 1.951 4.512 2.928 7.071 2.928s5.118-.977 7.071-2.928L164 327.55v89.449H20V348.89l33.159-33.158c3.905-3.906 3.905-10.238.001-14.143-3.906-3.904-10.238-3.904-14.143 0L20 320.607V202.246h144v97.02zm0-117.02H20V95h144v87.246zm20 19.999h77.019L184 279.265v-77.02zm144 214.754h-22.446L328 394.554v22.445zm0-50.729l-50.731 50.729H184V307.55l105.304-105.305H328V366.27zm0-184.023H184V95h80.771l-19.016 19.016c-3.906 3.906-3.905 10.238 0 14.143 1.953 1.953 4.512 2.93 7.07 2.93 2.56 0 5.119-.977 7.072-2.93l33.157-33.158H328v87.246zm164 234.752H348v-42.445l47.736-47.734c3.904-3.906 3.905-10.238 0-14.142-3.906-3.904-10.237-3.904-14.142 0L348 346.271V202.246h65.522l-19.017 19.018c-3.905 3.904-3.905 10.236-.001 14.143 1.953 1.951 4.512 2.928 7.072 2.928 2.559 0 5.118-.977 7.07-2.928l33.16-33.16H492v214.752zm.001-234.753H348V95h144.001v87.246z"/>
  <path d="M66.404 298.348c2.598 0 5.193-1.006 7.152-3.01l.168-.172c3.859-3.949 3.786-10.281-.164-14.141-3.951-3.859-10.281-3.789-14.14.162l-.168.172c-3.859 3.949-3.786 10.281.164 14.141 1.945 1.9 4.467 2.848 6.988 2.848zM374.053 241.711l-.164.172c-3.83 3.977-3.711 10.309.268 14.139 1.939 1.867 4.439 2.797 6.935 2.797 2.622 0 5.241-1.025 7.204-3.065l.165-.172c3.83-3.977 3.711-10.309-.268-14.139-3.978-3.83-10.308-3.713-14.14.268zM225.437 134.33l-.168.168c-3.904 3.904-3.904 10.236 0 14.143 1.953 1.951 4.513 2.928 7.072 2.928s5.118-.977 7.07-2.928l.168-.168c3.904-3.904 3.904-10.236 0-14.143-3.905-3.905-10.237-3.905-14.142 0z"/>
</svg>
