<svg xmlns="http://www.w3.org/2000/svg" viewBox="0 0 512.019 512.019"><path d="M447.28 304.8l-.365-5.01c-5.865-76.354-41.417-124.219-72.781-166.438-29.042-39.094-54.125-72.854-54.125-122.667 0-4-2.24-7.656-5.792-9.49-3.563-1.844-7.844-1.542-11.083.813-47.104 33.708-86.406 90.521-100.135 144.729-9.531 37.74-10.792 80.167-10.969 108.188-43.5-9.292-53.354-74.365-53.458-75.073a10.722 10.722 0 0 0-5.552-7.917c-3.031-1.583-6.594-1.698-9.667-.177-2.281 1.104-55.99 28.396-59.115 137.375-.219 3.625-.229 7.25-.229 10.885 0 105.865 86.135 192 192 192s192-86.135 192-192c0-5.312-.364-10.27-.729-15.218zM256.009 490.685c-35.292 0-64-30.583-64-68.177 0-1.281-.01-2.573.083-4.156.427-15.854 3.438-26.677 6.74-33.875 6.188 13.292 17.26 25.51 35.219 25.51a10.66 10.66 0 0 0 10.667-10.667c0-15.188.313-32.708 4.094-48.521 3.365-14.031 11.406-28.938 21.594-40.896 4.531 15.521 13.365 28.083 21.99 40.344 12.344 17.542 25.104 35.677 27.344 66.604.135 1.833.271 3.677.271 5.656-.002 37.595-28.71 68.178-64.002 68.178zm67.412-13.937c11.072-15.099 17.922-33.763 17.922-54.24 0-2.51-.156-4.844-.469-9.208-2.531-34.823-17.667-56.344-31.031-75.333-11.385-16.167-21.208-30.135-21.208-49.948 0-4.052-2.292-7.75-5.917-9.552a10.62 10.62 0 0 0-11.177 1.042c-20.458 15.458-37.521 41.479-43.479 66.323-3.042 12.74-4.104 26.521-4.479 37.854-7.396-7.958-9.688-22.708-9.708-22.906a10.684 10.684 0 0 0-5.656-8.01c-3.052-1.583-6.708-1.625-9.781-.042-2.688 1.375-26.302 14.917-27.656 64.729-.094 1.688-.104 3.375-.104 5.052 0 20.477 6.85 39.141 17.922 54.24-60.664-26.195-103.255-86.563-103.255-156.729 0-3.198-.01-6.385.208-9.938 1.833-63.938 22.292-95.646 35.646-109.635 9.312 33.333 33.708 76.906 81.479 76.906a10.66 10.66 0 0 0 10.667-10.667c0-35.698.802-76.948 10.344-114.719 10.833-42.792 40.51-89 76.333-120.281 5.948 45.688 30.833 79.188 56.99 114.385 31.094 41.854 63.24 85.135 68.625 155.219l.365 5.104c.333 4.438.677 8.865.677 13.625-.003 70.166-42.594 130.534-103.258 156.729z"/></svg>