<svg xmlns="http://www.w3.org/2000/svg" viewBox="0 0 500 500"><defs><style>.cls-1{fill:none;stroke:#6db468;stroke-miterlimit:10}</style></defs><g id="Layer_1" data-name="Layer 1"><path class="cls-1" d="M127 229h15.5v9H356v-46h15.5M140 228.88l7.63 23.5M132.17 228.92l7.46 23.46M151.19 237.75l4.75 14.63M159.51 237.75l4.75 14.63M167.83 237.75l4.75 14.63M176.15 237.75l4.75 14.63M184.47 237.75l4.75 14.63M192.79 237.75l4.75 14.63M201.11 237.75l4.75 14.63M209.43 237.75l4.75 14.63M217.75 237.75l4.75 14.63M226.07 237.75l4.75 14.63M234.39 237.75l4.75 14.63M242.71 237.75l4.75 14.63M251.03 237.75l4.75 14.63M259.35 237.75l4.75 14.63M267.67 237.75l4.75 14.63M309.27 237.75l4.75 14.63M300.95 237.75l4.75 14.63M292.63 237.75l4.75 14.63M284.31 237.75l4.75 14.63M275.99 237.75l4.75 14.63M317.59 237.75l4.75 14.63M325.91 237.75l4.75 14.63M334.23 237.75l4.75 14.63M342.55 237.75l4.75 14.63M350.87 237.75l4.75 14.63M356 226.92l8.04 25.45M355.94 206.81l13.68 40.4M358.33 191.83l13.09 40.92M364.92 191.92l6.33 19.41"/></g><g id="Layer_3" data-name="Layer 3"><path d="M127.67 223.26V242A10.34 10.34 0 0 0 138 252.33h222.66A10.34 10.34 0 0 0 371 242v-55.33a10.34 10.34 0 0 0-10.34-10.34H236.83a10.5 10.5 0 0 0-3.55.63c-11.51 4.22-77.62 28.44-99 36.65a10.33 10.33 0 0 0-6.61 9.65z" stroke-width="2" stroke="#31b563" stroke-miterlimit="10" fill="none"/><path d="M360.66 176.33H236.83a10.5 10.5 0 0 0-3.55.63c-11.51 4.22-77.62 28.44-99 36.65" stroke-width="4" stroke="#31b563" stroke-miterlimit="10" fill="none"/><path fill="#fff" stroke-miterlimit="10" stroke="#6db468" d="M211.5 238.5h86v13.25h-86z"/><circle class="cls-1" cx="336.33" cy="225" r="2.5"/><circle class="cls-1" cx="236.33" cy="195" r="2.5"/><circle class="cls-1" cx="246.33" cy="195" r="2.5"/><circle class="cls-1" cx="256.33" cy="195" r="2.5"/><circle class="cls-1" cx="266.33" cy="195" r="2.5"/><circle class="cls-1" cx="276.33" cy="195" r="2.5"/><circle class="cls-1" cx="286.33" cy="195" r="2.5"/><circle class="cls-1" cx="296.33" cy="195" r="2.5"/><circle class="cls-1" cx="306.33" cy="195" r="2.5"/><circle class="cls-1" cx="316.33" cy="195" r="2.5"/><circle class="cls-1" cx="326.33" cy="195" r="2.5"/><circle class="cls-1" cx="336.33" cy="195" r="2.5"/><circle class="cls-1" cx="236.33" cy="205" r="2.5"/><circle class="cls-1" cx="246.33" cy="205" r="2.5"/><circle class="cls-1" cx="256.33" cy="205" r="2.5"/><circle class="cls-1" cx="266.33" cy="205" r="2.5"/><circle class="cls-1" cx="276.33" cy="205" r="2.5"/><circle class="cls-1" cx="286.33" cy="205" r="2.5"/><circle class="cls-1" cx="296.33" cy="205" r="2.5"/><circle class="cls-1" cx="306.33" cy="205" r="2.5"/><circle class="cls-1" cx="316.33" cy="205" r="2.5"/><circle class="cls-1" cx="326.33" cy="205" r="2.5"/><circle class="cls-1" cx="336.33" cy="205" r="2.5"/><circle class="cls-1" cx="236.33" cy="215" r="2.5"/><circle class="cls-1" cx="246.33" cy="215" r="2.5"/><circle class="cls-1" cx="256.33" cy="215" r="2.5"/><circle class="cls-1" cx="266.33" cy="215" r="2.5"/><circle class="cls-1" cx="276.33" cy="215" r="2.5"/><circle class="cls-1" cx="286.33" cy="215" r="2.5"/><circle class="cls-1" cx="296.33" cy="215" r="2.5"/><circle class="cls-1" cx="306.33" cy="215" r="2.5"/><circle class="cls-1" cx="316.33" cy="215" r="2.5"/><circle class="cls-1" cx="326.33" cy="215" r="2.5"/><circle class="cls-1" cx="336.33" cy="215" r="2.5"/><circle class="cls-1" cx="236.33" cy="225" r="2.5"/><circle class="cls-1" cx="246.33" cy="225" r="2.5"/><circle class="cls-1" cx="216.33" cy="205" r="2.5"/><circle class="cls-1" cx="226.33" cy="205" r="2.5"/><circle class="cls-1" cx="216.33" cy="215" r="2.5"/><circle class="cls-1" cx="226.33" cy="215" r="2.5"/><circle class="cls-1" cx="216.33" cy="225" r="2.5"/><circle class="cls-1" cx="226.33" cy="225" r="2.5"/><circle class="cls-1" cx="196.33" cy="215" r="2.5"/><circle class="cls-1" cx="206.33" cy="215" r="2.5"/><circle class="cls-1" cx="196.33" cy="225" r="2.5"/><circle class="cls-1" cx="206.33" cy="225" r="2.5"/><circle class="cls-1" cx="176.33" cy="225" r="2.5"/><circle class="cls-1" cx="186.33" cy="225" r="2.5"/><circle class="cls-1" cx="256.33" cy="225" r="2.5"/><circle class="cls-1" cx="266.33" cy="225" r="2.5"/><circle class="cls-1" cx="276.33" cy="225" r="2.5"/><circle class="cls-1" cx="286.33" cy="225" r="2.5"/><circle class="cls-1" cx="296.33" cy="225" r="2.5"/><circle class="cls-1" cx="306.33" cy="225" r="2.5"/><circle class="cls-1" cx="316.33" cy="225" r="2.5"/><circle class="cls-1" cx="326.33" cy="225" r="2.5"/></g></svg>