<svg xmlns="http://www.w3.org/2000/svg" viewBox="0 0 512.001 512.001">
  <path d="M154.308 399.548h-.236c-5.523 0-10 4.477-10 10 0 5.521 4.477 10 10 10h.236c5.522 0 10-4.479 10-10 0-5.524-4.478-10-10-10zM125.34 399.548H74.307c-5.522 0-10 4.477-10 10 0 5.521 4.478 10 10 10h51.033c5.523 0 10-4.479 10-10 0-5.524-4.478-10-10-10z"/>
  <path d="M502.001 439.55h-126.07c14.545-13.574 23.663-32.891 23.663-54.307V137.421l39.589-39.588a9.9988 9.9988 0 0 0 2.929-7.07c0-2.652-1.054-5.195-2.929-7.072l-63.326-63.326c-3.906-3.904-10.236-3.904-14.143 0l-39.588 39.588H74.305C33.333 59.952 0 93.286 0 134.257v250.986c0 40.973 33.333 74.307 74.305 74.307h417.696v25.014c0 5.523 4.477 10 10 10 5.522 0 10-4.477 10-10V449.55c0-5.524-4.478-10-10-10zM368.785 41.579l49.184 49.184-21.655 21.654c-7.222-23.438-25.746-41.963-49.183-49.184l21.654-21.654zM325.292 439.55H74.305C44.361 439.55 20 415.186 20 385.243V134.257c0-29.943 24.361-54.305 54.305-54.305h250.987c29.942 0 54.302 24.361 54.302 54.305v250.986c0 29.943-24.359 54.307-54.302 54.307z"/>
  <path d="M231.345 128.534c-5.377-1.295-10.77 2.016-12.061 7.385-1.291 5.371 2.015 10.77 7.385 12.061 30.503 7.336 56.995 27.125 72.682 54.295 1.853 3.209 5.213 5.002 8.67 5.002 1.696 0 3.415-.432 4.99-1.342 4.783-2.762 6.422-8.877 3.66-13.66-18.416-31.897-49.516-55.13-85.326-63.741zM199.799 164.796c-52.358 0-94.955 42.596-94.955 94.955 0 52.357 42.597 94.953 94.955 94.953 52.357 0 94.953-42.596 94.953-94.953 0-52.36-42.596-94.955-94.953-94.955zm0 169.908c-41.33 0-74.955-33.625-74.955-74.953 0-41.33 33.625-74.955 74.955-74.955 41.329 0 74.953 33.625 74.953 74.955 0 41.328-33.624 74.953-74.953 74.953zM199.799 144.798h.253c5.523 0 10-4.479 10-10 0-5.523-4.477-10-10-10h-.253c-5.522 0-10 4.477-10 10 0 5.521 4.477 10 10 10z"/>
</svg>
