<svg xmlns="http://www.w3.org/2000/svg" viewBox="0 0 16.207 16.207"><g><path d="M15.279 2.431H.928A.929.929 0 0 0 0 3.359v9.489c0 .512.416.928.928.928h14.351a.929.929 0 0 0 .928-.928v-9.49a.928.928 0 0 0-.928-.927zm-.024 10.392l-14.303.024-.024-9.465 14.327-.024v9.465z"/><path d="M2.303 6.792l.481 3.446h1.181l2.202-4.267H4.926L3.991 7.95c-.132.281-.247.535-.346.768a28.31 28.31 0 0 0-.062-.72l-.189-2.026H1.506l1.963 1.553-1.166-.733zM7.015 10.239l.809-4.267H6.713l-.81 4.267zM7.666 9.987c.26.195.718.311 1.225.311 1.051 0 1.757-.594 1.757-1.477 0-.483-.282-.866-.861-1.169-.324-.182-.521-.304-.521-.458 0-.144.151-.299.509-.299.349 0 .615.137.666.164l.126.069.355-.95-.093-.052c-.266-.147-.596-.218-1.009-.218-1.006 0-1.709.588-1.709 1.43 0 .61.48.949.902 1.177.396.206.474.323.474.456 0 .256-.276.347-.513.347-.309 0-.631-.087-.884-.239l-.125-.074-.376.926.077.056zM11.72 10.239l.477-1.043h.962l.084 1.043h1.154l-.5-4.267h-1.291l-2.076 4.267h1.19zm1.16-2.636c.044-.096.089-.206.135-.319l.021.278.065.729h-.54l.319-.688z"/></g></svg>