<svg id="двери" xmlns="http://www.w3.org/2000/svg" viewBox="0 0 300 300"><defs><style>.cls-4{fill:none;stroke-miterlimit:10;stroke:#232323}</style></defs><path d="M232 246.5H51V27h181z" stroke-miterlimit="10" stroke="#75b870" stroke-width="3" fill="none"/><path d="M221.89 143.85h-77.22V44.47h77.22zM137 44.47H63.13v99.38H137z" fill="#e8f1f9" stroke-miterlimit="10" stroke="#75b870" stroke-width="3"/><path d="M221.89 234.15h-77.22V157.7h77.22zm-83.72-76.45H63.89v76.45h74.28z" fill="#e2e2e2" stroke-miterlimit="10" stroke="#75b870" stroke-width="3"/><path class="cls-4" d="M233 247.5h35M233 26.5h35m-8 0v220"/><path d="M253.19 129.3a4.22 4.22 0 0 1-.64.06 2.87 2.87 0 0 1-1.14-.23 3.09 3.09 0 0 1-.92-.59 9.44 9.44 0 0 1-.72-.81c-.23-.3-.44-.6-.64-.9a9.48 9.48 0 0 0-.6-.81 2.89 2.89 0 0 0-.67-.6 1.42 1.42 0 0 0-.76-.22 1.3 1.3 0 0 0-1 .43 1.57 1.57 0 0 0-.39 1.1 1.76 1.76 0 0 0 .3 1 2.3 2.3 0 0 0 .78.74l-.58.87a3 3 0 0 1-1.16-1.09 2.89 2.89 0 0 1-.45-1.59 2.77 2.77 0 0 1 .67-1.93A2.29 2.29 0 0 1 247 124a2.56 2.56 0 0 1 1.22.3 3.13 3.13 0 0 1 .93.75c.24.3.49.63.75 1s.48.68.68 1a3.09 3.09 0 0 0 .71.77 1.49 1.49 0 0 0 .86.31v-4.22h1zM253.19 122.46h-1v-1.87h-6a2.29 2.29 0 0 1 .5.41l.76.79-.74.72-2-2v-1h7.44v-1.86h1zM253.34 113.48a2.79 2.79 0 0 1-.34 1.42 2.39 2.39 0 0 1-.95.94 5 5 0 0 1-1.38.49 9 9 0 0 1-1.72.15 9.06 9.06 0 0 1-1.73-.15 5.09 5.09 0 0 1-1.36-.49 2.45 2.45 0 0 1-1-.94 2.89 2.89 0 0 1-.33-1.42c0-2 1.45-3 4.37-3s4.44 1 4.44 3zm-1.09 0q0-1.77-3.3-1.77c-2.19 0-3.28.59-3.28 1.77s1.09 1.78 3.28 1.78 3.3-.59 3.3-1.78zM253.34 106a2.82 2.82 0 0 1-.34 1.42 2.3 2.3 0 0 1-.95.93 4.42 4.42 0 0 1-1.38.49 8.18 8.18 0 0 1-1.67.16 8.28 8.28 0 0 1-1.73-.16 4.49 4.49 0 0 1-1.36-.49 2.36 2.36 0 0 1-1-.93 2.92 2.92 0 0 1-.33-1.42c0-2 1.45-3 4.37-3s4.39 1 4.39 3zm-1.09 0c0-1.18-1.1-1.78-3.3-1.78s-3.28.6-3.28 1.78 1.09 1.78 3.28 1.78 3.3-.58 3.3-1.78zM87.77 257.93l.37-1a2.73 2.73 0 0 0 1.22.28 2.1 2.1 0 0 0 1.73-.85 4.08 4.08 0 0 0 .79-2 1.72 1.72 0 0 1-.78.59 2.91 2.91 0 0 1-1.09.22 2.51 2.51 0 0 1-1.94-.78 2.79 2.79 0 0 1-.76-2 2.88 2.88 0 0 1 .75-2.05 2.64 2.64 0 0 1 1.94-.84 2.85 2.85 0 0 1 2.29 1.09 4.46 4.46 0 0 1 .91 2.89 5.87 5.87 0 0 1-.22 1.66 5.52 5.52 0 0 1-.67 1.53 3.36 3.36 0 0 1-1.19 1.15 3.31 3.31 0 0 1-1.69.45 3.71 3.71 0 0 1-1.66-.34zm2.45-3.81a2.07 2.07 0 0 0 1.22-.37 1 1 0 0 0 .51-.83 2.58 2.58 0 0 0-.58-1.6 1.65 1.65 0 0 0-1.37-.72 1.42 1.42 0 0 0-1.12.49 1.87 1.87 0 0 0-.41 1.26 1.74 1.74 0 0 0 .48 1.28 1.61 1.61 0 0 0 1.27.49zM97.66 258.21a2.92 2.92 0 0 1-1.42-.33 2.3 2.3 0 0 1-.94-.94 4.92 4.92 0 0 1-.51-1.38 9.72 9.72 0 0 1-.17-1.72 9.06 9.06 0 0 1 .15-1.73 4.82 4.82 0 0 1 .48-1.37 2.43 2.43 0 0 1 .93-1 2.86 2.86 0 0 1 1.41-.35q3 0 3 4.35t-2.93 4.47zm0-1.1c1.18 0 1.77-1.11 1.75-3.31s-.62-3.27-1.8-3.26-1.77 1.1-1.75 3.29.61 3.29 1.79 3.28zM105.12 258.15a3 3 0 0 1-1.42-.33 2.36 2.36 0 0 1-.94-.94 4.8 4.8 0 0 1-.5-1.38 8.15 8.15 0 0 1-.17-1.72 8.36 8.36 0 0 1 .14-1.73 4.82 4.82 0 0 1 .48-1.37 2.43 2.43 0 0 1 .93-1 2.88 2.88 0 0 1 1.41-.34q3 0 3 4.34t-2.93 4.47zm0-1.1c1.19 0 1.77-1.11 1.75-3.31s-.61-3.27-1.8-3.26-1.77 1.1-1.75 3.29.61 3.29 1.79 3.28zM179.27 257.94l.37-1a2.73 2.73 0 0 0 1.22.28 2.1 2.1 0 0 0 1.73-.85 4.08 4.08 0 0 0 .79-2 1.72 1.72 0 0 1-.78.59 2.91 2.91 0 0 1-1.09.22 2.51 2.51 0 0 1-1.94-.78 2.79 2.79 0 0 1-.76-2 2.88 2.88 0 0 1 .75-2.05 2.64 2.64 0 0 1 2-.81 2.85 2.85 0 0 1 2.29 1.09 4.46 4.46 0 0 1 .91 2.89 5.87 5.87 0 0 1-.22 1.66 5.52 5.52 0 0 1-.67 1.53 3.48 3.48 0 0 1-1.19 1.16 3.3 3.3 0 0 1-1.69.44 3.71 3.71 0 0 1-1.72-.37zm2.45-3.82a2 2 0 0 0 1.22-.37 1 1 0 0 0 .51-.83 2.58 2.58 0 0 0-.58-1.6 1.67 1.67 0 0 0-1.36-.72 1.42 1.42 0 0 0-1.12.49 1.87 1.87 0 0 0-.41 1.26 1.77 1.77 0 0 0 .48 1.29 1.64 1.64 0 0 0 1.26.48zM189.16 258.21a2.92 2.92 0 0 1-1.42-.33 2.3 2.3 0 0 1-.94-.94 4.81 4.81 0 0 1-.51-1.38 9.72 9.72 0 0 1-.17-1.72 9.06 9.06 0 0 1 .15-1.73 4.82 4.82 0 0 1 .48-1.37 2.43 2.43 0 0 1 .93-1 2.86 2.86 0 0 1 1.41-.34q3 0 3 4.34t-2.93 4.47zm0-1.1c1.18 0 1.77-1.11 1.75-3.31s-.62-3.27-1.8-3.26-1.77 1.1-1.75 3.29.64 3.29 1.79 3.28zM196.62 258.15a3 3 0 0 1-1.42-.33 2.36 2.36 0 0 1-.94-.94 4.8 4.8 0 0 1-.5-1.38 8.15 8.15 0 0 1-.17-1.72 8.36 8.36 0 0 1 .14-1.73 4.94 4.94 0 0 1 .48-1.37 2.43 2.43 0 0 1 .93-1 2.88 2.88 0 0 1 1.41-.34q3 0 3 4.34t-2.93 4.47zm0-1.1c1.19 0 1.77-1.11 1.75-3.31s-.61-3.27-1.8-3.26-1.77 1.1-1.75 3.29.61 3.29 1.79 3.28z"/><path class="cls-4" d="M232.5 248v33M50.5 248v33m90.67-33v13.5M51 276.5h181m-181-17h88.5m0 0h93"/><path d="M244 213.64a2.3 2.3 0 0 1-.86-.16 2.25 2.25 0 0 1-.7-.4c-.19-.17-.34-.32-.45-.44a2.93 2.93 0 0 1-.28-.36 2 2 0 0 1-1.67.95 2.12 2.12 0 0 1-1.59-.68 2.72 2.72 0 0 1-.66-2 2.89 2.89 0 0 1 .62-1.92 2 2 0 0 1 1.64-.74 2.54 2.54 0 0 1 1.29.34 4.15 4.15 0 0 1 .93.68 2 2 0 0 1 1.8-1.15 2.27 2.27 0 0 1 1.75.8 3 3 0 0 1 .73 2.1 3.11 3.11 0 0 1-.72 2.1 2.33 2.33 0 0 1-1.83.88zm-2.19-3.78a2.44 2.44 0 0 0-1.66-.77 1.17 1.17 0 0 0-.95.42 1.75 1.75 0 0 0-.34 1.11 1.51 1.51 0 0 0 .34 1 1.05 1.05 0 0 0 .84.39.88.88 0 0 0 .33-.06 1 1 0 0 0 .28-.13 1.28 1.28 0 0 0 .25-.23l.21-.28a3 3 0 0 0 .19-.34l.17-.36c.05-.09.1-.23.18-.4zm2.09 2.57a1.43 1.43 0 0 0 1.14-.52 1.76 1.76 0 0 0 .45-1.2 1.88 1.88 0 0 0-.41-1.2 1.26 1.26 0 0 0-1-.5 1 1 0 0 0-.5.12 1.39 1.39 0 0 0-.42.42c-.12.19-.23.36-.31.51s-.18.38-.31.68-.22.52-.29.66a2.06 2.06 0 0 0 1.63 1.03zM246.53 203.33a2.89 2.89 0 0 1-.33 1.42 2.36 2.36 0 0 1-.95.93 4.91 4.91 0 0 1-1.38.5 9.06 9.06 0 0 1-1.73.15 9 9 0 0 1-1.72-.15 4.85 4.85 0 0 1-1.37-.5 2.34 2.34 0 0 1-.94-.93 2.9 2.9 0 0 1-.34-1.42q0-3 4.37-3t4.39 3zm-1.09 0q0-1.77-3.3-1.77t-3.27 1.77c0 1.19 1.09 1.78 3.27 1.78s3.3-.59 3.3-1.78zM246.53 195.87a2.88 2.88 0 0 1-.33 1.41 2.39 2.39 0 0 1-.95.94 4.9 4.9 0 0 1-1.38.49 8.28 8.28 0 0 1-1.73.16 8.18 8.18 0 0 1-1.72-.16 4.84 4.84 0 0 1-1.37-.49 2.36 2.36 0 0 1-.94-.94 2.88 2.88 0 0 1-.34-1.41q0-3 4.37-3t4.39 3zm-1.09 0c0-1.19-1.1-1.78-3.3-1.78s-3.27.59-3.27 1.78 1.09 1.77 3.27 1.77 3.3-.59 3.3-1.77z"/><path class="cls-4" d="M233.68 158.75h18.47m-4 0v89"/><path d="M133 273v-1h1.87v-6a2.66 2.66 0 0 1-.41.49l-.79.77-.72-.74 2-2h1V272h1.86v1zM138.92 270.59a2.3 2.3 0 0 1 .16-.86 2.09 2.09 0 0 1 .41-.7 4.85 4.85 0 0 1 .43-.45 2.93 2.93 0 0 1 .36-.28 2 2 0 0 1-.95-1.67A2.12 2.12 0 0 1 140 265a2.72 2.72 0 0 1 2-.66 2.94 2.94 0 0 1 1.93.62 2 2 0 0 1 .73 1.64 2.54 2.54 0 0 1-.34 1.29 4.15 4.15 0 0 1-.68.93 2.06 2.06 0 0 1 1.16 1.8 2.28 2.28 0 0 1-.81 1.75 3 3 0 0 1-2.1.73 3.11 3.11 0 0 1-2.1-.72 2.33 2.33 0 0 1-.87-1.79zm1.21-.1a1.46 1.46 0 0 0 .52 1.14 1.76 1.76 0 0 0 1.2.45 1.88 1.88 0 0 0 1.2-.41 1.23 1.23 0 0 0 .5-1 1 1 0 0 0-.12-.5 1.29 1.29 0 0 0-.42-.42c-.19-.12-.36-.23-.51-.31s-.38-.18-.68-.31-.52-.22-.65-.29a2.05 2.05 0 0 0-1.04 1.65zm2.57-2.09a2.44 2.44 0 0 0 .77-1.66 1.17 1.17 0 0 0-.42-.95 1.74 1.74 0 0 0-1.1-.34 1.54 1.54 0 0 0-1.06.34 1 1 0 0 0-.38.84.88.88 0 0 0 .05.33 1.46 1.46 0 0 0 .13.28 1.1 1.1 0 0 0 .24.25l.27.21.34.19.36.17.41.18zM149.23 273.14a2.92 2.92 0 0 1-1.42-.33 2.36 2.36 0 0 1-.93-.95 4.61 4.61 0 0 1-.49-1.38 8.28 8.28 0 0 1-.16-1.73 8.18 8.18 0 0 1 .16-1.72 4.55 4.55 0 0 1 .49-1.37 2.34 2.34 0 0 1 .93-.94 2.92 2.92 0 0 1 1.42-.34q3 0 3 4.37t-3 4.39zm0-1.09c1.18 0 1.78-1.1 1.78-3.3s-.6-3.27-1.78-3.27-1.78 1.09-1.78 3.27.6 3.3 1.78 3.3zM156.69 273.14a2.88 2.88 0 0 1-1.41-.33 2.45 2.45 0 0 1-.94-.95 4.9 4.9 0 0 1-.49-1.38 9 9 0 0 1-.16-1.73 8.91 8.91 0 0 1 .16-1.72 4.84 4.84 0 0 1 .49-1.37 2.43 2.43 0 0 1 .94-.94 2.88 2.88 0 0 1 1.41-.34q3 0 3 4.37t-3 4.39zm0-1.09c1.19 0 1.78-1.1 1.78-3.3s-.59-3.27-1.78-3.27-1.77 1.09-1.77 3.27.59 3.3 1.77 3.3z"/></svg>