<svg xmlns="http://www.w3.org/2000/svg" viewBox="0 0 500 500">
  <defs>
    <style>
      .cls-1{fill:none;stroke:#6db468;stroke-miterlimit:10}
    </style>
  </defs>
  <g id="Layer_1" data-name="Layer 1">
    <path class="cls-1" d="M175.33 257.83h86v10h-86zM85.67 257.33l242.14.23v-72.81H341M94.98 267.75l8.25-10.25M102.94 268.08l8.71-10.7M119.38 268.08l8.58-10.75M127.56 268.08l8.59-10.75M135.75 268.08l8.58-10.75M143.94 268.08l8.58-10.75M152.13 268.08l8.58-10.75M160.31 268.08l8.59-10.75M261.56 268.33l8.59-10.75M269.34 268.33l8.58-10.75M277.12 268.33l8.58-10.75M284.9 268.33l8.58-10.75M292.67 268.33l8.59-10.75M300.45 268.33l8.58-10.75M308.23 268.33l8.58-10.75M331.56 268.33l9.13-11.39M323.78 268.33l17.22-21.2M316.01 268.33l8.58-10.75M327.94 253.83l13.19-16.45M327.94 243.83l13.19-16.45M327.94 233.83l13.19-16.45M327.94 223.83l13.19-16.45M327.94 213.83l13.19-16.45M327.94 203.83l13.19-16.45M327.94 193.83l7.06-9.14M168.5 268.08l7-8.5M111.19 268.29l8.58-10.75M88 264.5l5.83-7.42"/>
  </g>
  <g id="Layer_2" data-name="Layer 2">
    <path d="M96.37 186h150.51a14.59 14.59 0 0 0 10.4-4.37l25.53-26a9.39 9.39 0 0 1 6.93-2.82l44.83 1.07a7.23 7.23 0 0 1 7.06 7.27l-.56 95.6a12 12 0 0 1-12 12H96a10 10 0 0 1-10-10.3l1.54-63.67a8.91 8.91 0 0 1 8.83-8.78z" stroke-width="2" fill="none" stroke="#6db468" stroke-miterlimit="10"/>
    <path d="M96.37 186h150.51a14.59 14.59 0 0 0 10.4-4.37l25.53-26a9.39 9.39 0 0 1 6.93-2.82l44.83 1.07" stroke-width="5" fill="none" stroke="#6db468" stroke-miterlimit="10"/>
    <circle class="cls-1" cx="124" cy="215" r="2.5"/>
    <circle class="cls-1" cx="134" cy="215" r="2.5"/>
    <circle class="cls-1" cx="144" cy="215" r="2.5"/>
    <circle class="cls-1" cx="154" cy="215" r="2.5"/>
    <circle class="cls-1" cx="164" cy="215" r="2.5"/>
    <circle class="cls-1" cx="174" cy="215" r="2.5"/>
    <circle class="cls-1" cx="184" cy="215" r="2.5"/>
    <circle class="cls-1" cx="194" cy="215" r="2.5"/>
    <circle class="cls-1" cx="204" cy="215" r="2.5"/>
    <circle class="cls-1" cx="214" cy="215" r="2.5"/>
    <circle class="cls-1" cx="224" cy="215" r="2.5"/>
    <circle class="cls-1" cx="234" cy="215" r="2.5"/>
    <circle class="cls-1" cx="244" cy="215" r="2.5"/>
    <circle class="cls-1" cx="254" cy="215" r="2.5"/>
    <circle class="cls-1" cx="264" cy="215" r="2.5"/>
    <circle class="cls-1" cx="274" cy="215" r="2.5"/>
    <circle class="cls-1" cx="284" cy="215" r="2.5"/>
    <circle class="cls-1" cx="294" cy="215" r="2.5"/>
    <circle class="cls-1" cx="124" cy="225" r="2.5"/>
    <circle class="cls-1" cx="134" cy="225" r="2.5"/>
    <circle class="cls-1" cx="144" cy="225" r="2.5"/>
    <circle class="cls-1" cx="154" cy="225" r="2.5"/>
    <circle class="cls-1" cx="164" cy="225" r="2.5"/>
    <circle class="cls-1" cx="174" cy="225" r="2.5"/>
    <circle class="cls-1" cx="184" cy="225" r="2.5"/>
    <circle class="cls-1" cx="194" cy="225" r="2.5"/>
    <circle class="cls-1" cx="204" cy="225" r="2.5"/>
    <circle class="cls-1" cx="214" cy="225" r="2.5"/>
    <circle class="cls-1" cx="224" cy="225" r="2.5"/>
    <circle class="cls-1" cx="234" cy="225" r="2.5"/>
    <circle class="cls-1" cx="244" cy="225" r="2.5"/>
    <circle class="cls-1" cx="254" cy="225" r="2.5"/>
    <circle class="cls-1" cx="264" cy="225" r="2.5"/>
    <circle class="cls-1" cx="274" cy="225" r="2.5"/>
    <circle class="cls-1" cx="284" cy="225" r="2.5"/>
    <circle class="cls-1" cx="294" cy="225" r="2.5"/>
    <circle class="cls-1" cx="124" cy="235" r="2.5"/>
    <circle class="cls-1" cx="134" cy="235" r="2.5"/>
    <circle class="cls-1" cx="144" cy="235" r="2.5"/>
    <circle class="cls-1" cx="154" cy="235" r="2.5"/>
    <circle class="cls-1" cx="164" cy="235" r="2.5"/>
    <circle class="cls-1" cx="174" cy="235" r="2.5"/>
    <circle class="cls-1" cx="184" cy="235" r="2.5"/>
    <circle class="cls-1" cx="194" cy="235" r="2.5"/>
    <circle class="cls-1" cx="204" cy="235" r="2.5"/>
    <circle class="cls-1" cx="214" cy="235" r="2.5"/>
    <circle class="cls-1" cx="224" cy="235" r="2.5"/>
    <circle class="cls-1" cx="234" cy="235" r="2.5"/>
    <circle class="cls-1" cx="244" cy="235" r="2.5"/>
    <circle class="cls-1" cx="254" cy="235" r="2.5"/>
    <circle class="cls-1" cx="264" cy="235" r="2.5"/>
    <circle class="cls-1" cx="274" cy="235" r="2.5"/>
    <circle class="cls-1" cx="284" cy="235" r="2.5"/>
    <circle class="cls-1" cx="294" cy="235" r="2.5"/>
    <circle class="cls-1" cx="124" cy="245" r="2.5"/>
    <circle class="cls-1" cx="134" cy="245" r="2.5"/>
    <circle class="cls-1" cx="104" cy="215" r="2.5"/>
    <circle class="cls-1" cx="114" cy="215" r="2.5"/>
    <circle class="cls-1" cx="104" cy="225" r="2.5"/>
    <circle class="cls-1" cx="114" cy="225" r="2.5"/>
    <circle class="cls-1" cx="104" cy="235" r="2.5"/>
    <circle class="cls-1" cx="114" cy="235" r="2.5"/>
    <circle class="cls-1" cx="104" cy="245" r="2.5"/>
    <circle class="cls-1" cx="114" cy="245" r="2.5"/>
    <circle class="cls-1" cx="144" cy="245" r="2.5"/>
    <circle class="cls-1" cx="154" cy="245" r="2.5"/>
    <circle class="cls-1" cx="164" cy="245" r="2.5"/>
    <circle class="cls-1" cx="174" cy="245" r="2.5"/>
    <circle class="cls-1" cx="184" cy="245" r="2.5"/>
    <circle class="cls-1" cx="194" cy="245" r="2.5"/>
    <circle class="cls-1" cx="204" cy="245" r="2.5"/>
    <circle class="cls-1" cx="214" cy="245" r="2.5"/>
    <circle class="cls-1" cx="224" cy="245" r="2.5"/>
    <circle class="cls-1" cx="234" cy="245" r="2.5"/>
    <circle class="cls-1" cx="244" cy="245" r="2.5"/>
    <circle class="cls-1" cx="254" cy="245" r="2.5"/>
    <circle class="cls-1" cx="264" cy="245" r="2.5"/>
    <circle class="cls-1" cx="274" cy="245" r="2.5"/>
    <circle class="cls-1" cx="284" cy="245" r="2.5"/>
    <circle class="cls-1" cx="294" cy="245" r="2.5"/>
    <circle class="cls-1" cx="293.5" cy="172.67" r="2.5"/>
    <circle class="cls-1" cx="293.5" cy="182.67" r="2.5"/>
    <circle class="cls-1" cx="293.5" cy="192.67" r="2.5"/>
    <circle class="cls-1" cx="293.5" cy="202.67" r="2.5"/>
    <circle class="cls-1" cx="303.5" cy="172.67" r="2.5"/>
    <circle class="cls-1" cx="313.5" cy="172.67" r="2.5"/>
    <circle class="cls-1" cx="303.5" cy="182.67" r="2.5"/>
    <circle class="cls-1" cx="313.5" cy="182.67" r="2.5"/>
    <circle class="cls-1" cx="303.5" cy="192.67" r="2.5"/>
    <circle class="cls-1" cx="313.5" cy="192.67" r="2.5"/>
    <circle class="cls-1" cx="303.5" cy="202.67" r="2.5"/>
    <circle class="cls-1" cx="313.5" cy="202.67" r="2.5"/>
    <circle class="cls-1" cx="303.5" cy="214.67" r="2.5"/>
    <circle class="cls-1" cx="313.5" cy="214.67" r="2.5"/>
    <circle class="cls-1" cx="303.5" cy="224.67" r="2.5"/>
    <circle class="cls-1" cx="313.5" cy="224.67" r="2.5"/>
    <circle class="cls-1" cx="303.5" cy="234.67" r="2.5"/>
    <circle class="cls-1" cx="313.5" cy="234.67" r="2.5"/>
    <circle class="cls-1" cx="303.5" cy="244.67" r="2.5"/>
    <circle class="cls-1" cx="313.5" cy="244.67" r="2.5"/>
  </g>
</svg>
