<svg height="496pt" viewBox="0 0 496 496.008" width="496pt" xmlns="http://www.w3.org/2000/svg">
  <path d="M400.004 200c0-71.7773-54.6563-120-136-120h-40v.0547c-8.75 0-17.383.9844-25.8556 2.8555C192.4297 62.793 173.9336 48 152.004 48c-4.5586 0-9.0781.6797-13.5039 2.0313C130.4102 34.168 114.2344 24 96.004 24c-26.4728 0-48 21.5273-48 48 0 5.8398 1.121 11.6016 3.328 17.1758C43.9883 97.8242 40.004 108.5664 40.004 120c0 27.3984 23.1679 49.5352 50.7929 47.9102 2.8008 8 7.6875 14.8671 13.8633 20.2421-.3907 3.9454-.6563 7.9102-.6563 11.8477a120.5121 120.5121 0 0 0 4.2148 31.5938c10.3047 37.703 10.4336 76.2617.3594 111.5273-4.6953 16.4648-5.789 33.582-3.2539 50.8867 7.7188 52.7852 51.8945 95.3516 105.0469 101.2305 4.6406.5039 9.25.7695 13.832.7695.1211 0 .2344-.0156.3438-.0156h39.457c81.3438 0 136-48.2227 136-120a120.512 120.512 0 0 0-4.2148-31.5938c-5.129-18.7422-7.7774-37.7265-7.8555-56.3672.086-18.7187 2.7344-37.703 7.8555-56.4453 2.789-10.2578 4.2148-20.8828 4.2148-31.5859zm-296.8712-50.6406l-8.1601 1.8164c-2.4961.5508-4.7852.8242-6.9688.8242-17.6484 0-32-14.3516-32-32 0-8.9023 3.664-17.1992 10.3125-23.375l4.5273-4.1992-2.9101-5.4414C65.3242 82.121 64.0039 77.0704 64.0039 72c0-17.6484 14.3516-32 32-32 14.0703 0 26.3047 9.1445 30.4414 22.7422l2.7734 9.1133 8.4961-4.297C142.3711 65.1916 147.1718 64 152.004 64c17.6484 0 32 14.3516 32 32 0 11.9375-6.7031 22.8008-17.5039 28.336l-7.6172 3.91 4.4258 7.34c3.121 5.168 4.6953 10.6874 4.6953 16.414 0 17.6484-14.3516 32-32 32-15.496 0-28.711-11.1133-31.4258-26.414zm17.793 239.914c-1.1055-8.9453-1.0586-17.8007.0547-26.5039 4.2304 2.879 7.0234 7.7344 7.0234 13.2305 0 5.5195-2.8164 10.3984-7.0781 13.2734zm91.207 90.0704c-41.2734-4.5586-76.2266-34.6954-87.8398-73.8165 11.5586-4.8242 19.711-16.2304 19.711-29.5273 0-13.3125-8.1759-24.7344-19.7696-29.5508 10.5703-37.7851 10.3945-78.9297-.5742-119.082-2.4336-8.8711-3.6563-18.086-3.6563-27.3672 0-.9297.0703-1.8555.0977-2.7852 5.0078 1.7618 10.3437 2.7852 15.9023 2.7852 26.4727 0 48-21.5273 48-48 0-5.9844-1.1758-11.9531-3.4648-17.6016 11.375-8.3828 18.4101-21.2851 19.289-35.4375 11.7031-2.793 23.8008-3.6484 36.0469-2.3047 46.0312 5.086 84.289 41.9454 90.9766 87.6407 1.168 7.9922 1.3828 15.918.7851 23.7422-21.8789.1992-39.6328 18.0312-39.6328 39.9609 0 17.543 11.4492 32.8242 28.0078 38.0469-.0976 20.7304 2.6485 41.7851 8.336 62.586 2.4335 8.871 3.6562 18.0858 3.6562 27.3671 0 29.5273-12.625 57.7852-34.6406 77.504-22.3125 19.9843-51.1914 29.1835-81.2305 25.8398zm104.6484-210.207c-7.707-4.0821-12.7773-12.0977-12.7773-21.1368 0-12.1992 9.1836-22.1914 20.9844-23.6953-.336 1.3906-.5586 2.8008-.9531 4.1758-3.7657 13.1914-6.1211 26.8242-7.254 40.6562zm63.5665 79.4882c2.4335 8.879 3.6562 18.0938 3.6562 27.375 0 55.414-38.3281 94.543-97.4258 102.4492 6.1211-3.7695 11.961-8.1133 17.457-13.0351 25.4024-22.75 39.9688-55.336 39.9688-89.4141a120.5121 120.5121 0 0 0-4.2148-31.5938c-10.3047-37.703-10.4336-76.2617-.3594-111.5273 4.6953-16.4648 5.789-33.582 3.2539-50.8867-5.1914-35.4805-26.8945-66.289-56.6797-84.4961 59.418 7.7187 98 46.9101 98 102.5039 0 9.2812-1.2227 18.496-3.6562 27.375-5.4961 20.0898-8.3282 40.4727-8.422 60.664.0938 20.1212 2.9259 40.4962 8.422 60.586zm0 0M224.004 48c13.2304 0 24-10.7695 24-24s-10.7696-24-24-24c-13.2306 0-24 10.7695-24 24s10.7694 24 24 24zm0-32c4.4179 0 8 3.586 8 8s-3.5821 8-8 8c-4.4142 0-8-3.586-8-8s3.5858-8 8-8zm0 0M456.004 80c-22.0548 0-40 17.9453-40 40s17.9452 40 40 40c22.0546 0 40-17.9453 40-40s-17.9454-40-40-40zm0 64c-13.2306 0-24-10.7695-24-24s10.7694-24 24-24c13.2304 0 24 10.7695 24 24s-10.7696 24-24 24zm0 0M64.004 264c0-17.6484-14.3517-32-32-32-17.6485 0-32 14.3516-32 32s14.3515 32 32 32c17.6483 0 32-14.3516 32-32zm-32 16c-8.8243 0-16-7.1758-16-16s7.1757-16 16-16c8.8241 0 16 7.1758 16 16s-7.1759 16-16 16zm0 0"/>
  <path d="M88.004 56h16v16h-16zm0 0M128.004 152h16v16h-16zm0 0M144.004 88h16v16h-16zm0 0M80.004 112h16v16h-16zm0 0M456.004 416c-13.2306 0-24 10.7695-24 24s10.7694 24 24 24c13.2304 0 24-10.7695 24-24s-10.7696-24-24-24zm0 32c-4.4142 0-8-3.586-8-8s3.5858-8 8-8c4.4179 0 8 3.586 8 8s-3.5821 8-8 8zm0 0M72.004 416c-13.2306 0-24 10.7695-24 24s10.7694 24 24 24c13.2304 0 24-10.7695 24-24s-10.7696-24-24-24zm0 32c-4.4142 0-8-3.586-8-8s3.5858-8 8-8c4.4179 0 8 3.586 8 8s-3.5821 8-8 8zm0 0M216.004 344c17.6483 0 32-14.3516 32-32h-16c0 8.8242-7.1759 16-16 16-8.8243 0-16-7.1758-16-16s7.1757-16 16-16v-16c-17.6485 0-32 14.3516-32 32s14.3515 32 32 32zm0 0M224.004 432c-17.6485 0-32 14.3516-32 32h16c0-8.8242 7.1757-16 16-16 8.8241 0 16 7.1758 16 16h16c0-17.6484-14.3517-32-32-32zm0 0M240.004 128c-13.2306 0-24 10.7695-24 24s10.7694 24 24 24c13.2304 0 24-10.7695 24-24s-10.7696-24-24-24zm0 32c-4.4142 0-8-3.586-8-8s3.5858-8 8-8c4.4179 0 8 3.586 8 8s-3.5821 8-8 8zm0 0M248.004 264h16v16h-16zm0 0M160.004 216h16v16h-16zm0 0M280.004 368h16v16h-16zm0 0M200.004 384h16v16h-16zm0 0M288.004 176h16v16h-16zm0 0"/>
</svg>
