<svg xmlns="http://www.w3.org/2000/svg" viewBox="0 0 480 480"><path d="M464 309.472V276c0-8.837-7.163-16-16-16v-48C448 97.125 354.875 4 240 4S32 97.125 32 212v48c-8.837 0-16 7.163-16 16v33.472A24 24 0 0 0 0 332v96c0 13.255 10.745 24 24 24h24c0 13.255 10.745 24 24 24h48c13.255 0 24-10.745 24-24V308c0-13.255-10.745-24-24-24H72a23.7 23.7 0 0 0-8 1.472V276c0-8.837-7.163-16-16-16v-40h8.2c8.628.005 15.707-6.833 16-15.456 4.148-92.691 82.652-164.469 175.343-160.321 86.881 3.888 156.433 73.44 160.321 160.321.289 8.627 7.369 15.469 16 15.464H432v40c-8.837 0-16 7.163-16 16v9.472a23.734 23.734 0 0 0-8-1.48h-48c-13.255 0-24 10.745-24 24v144c0 13.255 10.745 24 24 24h48c13.255 0 24-10.745 24-24h24c13.255 0 24-10.745 24-24v-96a24 24 0 0 0-16-22.528zM64 308a8 8 0 0 1 8-8h48a8 8 0 0 1 8 8v144a8 8 0 0 1-8 8H72a8 8 0 0 1-8-8V308zM48 436H24a8 8 0 0 1-8-8v-96a8 8 0 0 1 8-8h24v112zm0-128H32v-32h16v32zm375.792-104.16C419.636 105.405 338.522 27.801 240 28c-98.587-.204-179.732 77.497-183.8 176h-8C53.065 98.073 142.879 16.146 248.806 21.01c99.085 4.551 178.394 83.826 182.986 182.909l-8-.079zM416 452a8 8 0 0 1-8 8h-48a8 8 0 0 1-8-8V308a8 8 0 0 1 8-8h48a8 8 0 0 1 8 8v144zm16-176h16v32h-16v-32zm32 152a8 8 0 0 1-8 8h-24V324h24a8 8 0 0 1 8 8v96z"/></svg>