<svg xmlns="http://www.w3.org/2000/svg" viewBox="0 0 512.002 512.002">
  <path d="M437 452.004V10c0-5.522-4.478-10-10-10H85.002c-5.522 0-10 4.478-10 10v442.004c-5.522 0-10 4.477-10 10v39.998c0 5.523 4.478 10 10 10H437c5.522 0 10-4.477 10-10v-39.998c0-5.524-4.478-10-10-10zM95.002 20H417v432.004h-19.998v-402c0-5.523-4.478-10-10-10H125c-5.522 0-10 4.477-10 10v402H95.002V20zm233.74 262.389c1.953 1.951 4.512 2.928 7.071 2.928s5.118-.977 7.071-2.928l34.117-34.117v63.232H266V191.002h111.002v28.984l-48.26 48.26c-3.905 3.904-3.905 10.236 0 14.143zm-15.273 82.272c1.953 1.951 4.512 2.928 7.071 2.928s5.118-.977 7.071-2.928l33.157-33.156h16.233v120.5H266V331.504h66.483l-19.014 19.014c-3.905 3.904-3.905 10.236 0 14.143zm-11.372-193.659l34.116-34.113c3.906-3.906 3.906-10.236.001-14.143-3.905-3.902-10.235-3.904-14.143 0l-48.259 48.256H266V60.004h111.002v110.998h-74.905zm-80.956 232.743c-3.906-3.904-10.236-3.904-14.143 0l-48.259 48.26H135v-120.5h111v120.5h-58.975v-.001l34.116-34.117c3.905-3.906 3.905-10.238 0-14.142zM135 311.504V191.002h74.716l-34.117 34.117c-3.905 3.904-3.905 10.236 0 14.143 1.953 1.951 4.512 2.928 7.071 2.928 2.56 0 5.118-.977 7.071-2.928l48.26-48.26H246v120.502H135zm0-140.502v-13.979l33.157-33.156c3.905-3.904 3.905-10.236 0-14.143-3.905-3.902-10.235-3.904-14.143 0L135 128.738V60.004h111v110.998H135zm292 321H85.002v-19.998H427v19.998z"/>
  <path d="M174.499 89.241l-.167.166c-3.905 3.906-3.905 10.238 0 14.143 1.954 1.954 4.513 2.93 7.072 2.93 2.56 0 5.118-.977 7.071-2.93l.167-.166c3.905-3.906 3.905-10.238 0-14.143-3.906-3.904-10.236-3.904-14.143 0zM293.15 370.834l-.167.166c-3.905 3.906-3.905 10.238 0 14.143 1.953 1.953 4.512 2.93 7.071 2.93s5.118-.977 7.071-2.93l.167-.166c3.905-3.906 3.905-10.238 0-14.143-3.905-3.904-10.235-3.904-14.142 0z"/>
</svg>
