<svg id="Layer_1" data-name="Layer 1" xmlns="http://www.w3.org/2000/svg" viewBox="0 0 600 747">
  <defs>
    <style>
      .cls-3{fill-rule:evenodd;fill:#6db468}
    </style>
  </defs>
  <path d="M162.84 203.47l.78.93a1.29 1.29 0 0 1 .37.89v54.52a1.23 1.23 0 0 1-.29.8l-.78.93a1.24 1.24 0 0 1-1 .55 1.26 1.26 0 0 1-1.26-1.26v-56.56a1.29 1.29 0 0 1 .45-1 1.25 1.25 0 0 1 1.77.17zm47.37 12.18l-.11-.27a1.26 1.26 0 0 1 .67-1.62l7.75-3.36a1.26 1.26 0 0 1 1.87 1.1v.91a1.23 1.23 0 0 1-.32.84c-.52.58-1 1.14-1.57 1.71l-.11.12-.74.74-.27.25a.86.86 0 0 1-.13.14l-.68.62-.11.11-.72.62a.62.62 0 0 1-.18.14l-.26.22-.4.33-.82.63c-.16.11-.31.23-.47.33l-.3.21-.38.27a1.21 1.21 0 0 1-.65.23 1.25 1.25 0 0 1-1.34-1.16 11.91 11.91 0 0 0-.39-2.13.9.9 0 0 1-.07-.19l-.13-.4c0-.13-.09-.26-.14-.38zm7.56 18.35l.57-.42a1.21 1.21 0 0 1 .79-.28 1.25 1.25 0 0 1 1.26 1.26v19.09a1.41 1.41 0 0 1-.09.49 1.28 1.28 0 0 1-1.65.67l-8.49-3.59a1.26 1.26 0 0 1-.88-1.2v-7.42a1.35 1.35 0 0 1 .29-.79c.41-.51.82-1 1.22-1.46s.81-.92 1.18-1.31.86-.91 1.29-1.32.82-.78 1.24-1.15.84-.71 1.26-1 .9-.7 1.34-1l.68-.5z" fill-rule="evenodd" fill="#a1d5f8"/>
  <path d="M176.77 253.61l-.31 1.2a1.27 1.27 0 0 1-1 1l-1.94.42a1.12 1.12 0 0 1-.32 0A1.25 1.25 0 0 1 172 255v-38.31a1.26 1.26 0 0 1 2.43-.45c.3.76.6 1.48.92 2.23.23.53.45 1 .65 1.45s.39.81.67 1.36c.61 1.11 1.17 2.32 1.82 3.4l.55 1c.17.31.34.63.51 1 .17.34.32.64.42.87.11.25.21.51.3.76v.12l.11.38.2.87v.43l.06.59a19.28 19.28 0 0 1 0 2.28c-.33 6.7-2.35 14.23-4 20.65z" fill="#abcb56" fill-rule="evenodd"/>
  <path class="cls-3" d="M150 282.54h-3.86a1.26 1.26 0 0 1-1.26-1.26V180.46a1.26 1.26 0 0 1 1.26-1.26H150a1.26 1.26 0 0 1 1.26 1.26v100.82a1.26 1.26 0 0 1-1.26 1.26zm88.8-18.91v-51.07c.1-.18.19-.36.28-.54a7 7 0 0 0 .64-2.55 6.56 6.56 0 0 0-.54-2.86 4.57 4.57 0 0 0-.35-.7v-7.81a1.26 1.26 0 0 0-1.25-1.26h-3.87a1.26 1.26 0 0 0-1.25 1.26v4.5c-.17 0-.36 0-.58.07l-.56.11-.56.16-.54.2-.58.28-.28.15-.26.16v-5a1.25 1.25 0 0 0-1.26-1.26 1.2 1.2 0 0 0-.59.15l-20.9 8.82-19.82-4.28-.11-.59 1-1.47a6.77 6.77 0 0 0 .43-.8 6.19 6.19 0 0 0 .3-.85 5 5 0 0 0 .15-.89 4.51 4.51 0 0 0 0-.9 5.18 5.18 0 0 0-.35-1.52 5.31 5.31 0 0 0-.77-1.35 5.84 5.84 0 0 0-1.14-1.08 5.49 5.49 0 0 0-1.41-.71c-.11-.22-.22-.42-.34-.63l-.22-.33-.25-.35a7.23 7.23 0 0 0-.8-.88 8 8 0 0 0-.92-.73 7.17 7.17 0 0 0-1-.58 7.06 7.06 0 0 0-1.12-.39 5.55 5.55 0 0 0-.7-.15 7.11 7.11 0 0 0-.71-.07h-.7c-.23 0-.47 0-.69.08a6.62 6.62 0 0 0-1.81.59 6 6 0 0 0-1.55 1.07 6.77 6.77 0 0 0-1.2 1.5 7.26 7.26 0 0 0-.74 1.79c0 .17-.08.34-.11.52s-.06.38-.08.53v1.09a10.79 10.79 0 0 0 .15 1.72v.11c.08.51.18 1 .28 1.52l.13.61-1.14-.25-14.15-16.95a1.26 1.26 0 0 0-2.23.8v96.4a1.26 1.26 0 0 0 1.26 1.25 1.25 1.25 0 0 0 1-.51l14.11-16.89 3.61-.78c11.4-2.47 22.77-4.93 31.71-6.85l21 8.87a1.26 1.26 0 0 0 1.64-.67 1.23 1.23 0 0 0 .1-.49v-39.34c1.13-1.08 2.24-2.32 3.36-3.35v43.37a1.25 1.25 0 0 0 1.25 1.26h3.87a1.25 1.25 0 0 0 1.25-1.26zm-38.91-50.53a4.08 4.08 0 0 0-.9.41 4.68 4.68 0 0 0-.82.58 4.61 4.61 0 0 0-.67.72 5.65 5.65 0 0 0-.53.84 5 5 0 0 0-.34.94 4.68 4.68 0 0 0-.17 1 5.44 5.44 0 0 0 0 1 6.51 6.51 0 0 0 .23 1 5.26 5.26 0 0 0 .41.9 5.48 5.48 0 0 0 .58.82 5.18 5.18 0 0 0 .73.67 4.68 4.68 0 0 0 .78.5h.06a5.56 5.56 0 0 0 1.91.51 4.85 4.85 0 0 0 2-.26 5.74 5.74 0 0 0 .91-.41 5.19 5.19 0 0 0 .81-.58 4.92 4.92 0 0 0 .63-.66l.05-.07a5 5 0 0 0 .52-.85 4.26 4.26 0 0 0 .35-.92 5.75 5.75 0 0 0 .17-1 4.76 4.76 0 0 0 0-1 5.65 5.65 0 0 0-.22-1 5.24 5.24 0 0 0-.42-.9 4.76 4.76 0 0 0-.58-.81 4.66 4.66 0 0 0-.72-.68 4.88 4.88 0 0 0-.84-.52 4.42 4.42 0 0 0-.94-.35 4.66 4.66 0 0 0-1-.16 4.09 4.09 0 0 0-1 0 4.72 4.72 0 0 0-1 .23zm18.39 9c-.6.43-1.23.85-1.9 1.26s-1.27.75-1.91 1.09-1.31.65-1.94.92-1.12.46-1.71.66-1.16.38-1.72.52-1.14.28-1.72.38-1.14.18-1.71.24-1.13.08-1.7.08h-1.7c-.53 0-1.11-.12-1.66-.21s-1.09-.22-1.63-.36-1.06-.31-1.58-.5-1-.41-1.55-.65-1-.5-1.49-.8-1-.6-1.44-.93a17.13 17.13 0 0 1-1.36-1.06c-.44-.36-.87-.76-1.3-1.18s-.83-.86-1.23-1.32-.77-.93-1.15-1.43-.84-1.17-1.22-1.76-.75-1.23-1.11-1.91-.69-1.34-1-2-.62-1.41-.9-2.16-.55-1.52-.79-2.3v-.05c-.26-.82-.49-1.65-.69-2.47s-.39-1.62-.55-2.43-.3-1.65-.42-2.48a2.66 2.66 0 0 1 0-.3 2.43 2.43 0 0 1 0-.3v-.16l.06-.15a1.28 1.28 0 0 1 .14-.25l1.67-2.5a.46.46 0 0 0 .09-.19.23.23 0 0 0 0-.14.36.36 0 0 0 0-.11.22.22 0 0 0-.07-.09.18.18 0 0 0-.08-.06.31.31 0 0 0-.12-.05.5.5 0 0 0-.18 0h-.19l-.15.05-.23.06a2 2 0 0 1-.55 0h-.1a1.5 1.5 0 0 1-.57-.27 1.58 1.58 0 0 1-.37-.36l-.06-.09a1.72 1.72 0 0 1-.23-.61v-.23a7.91 7.91 0 0 0-.17-.87 2.14 2.14 0 0 0-.88-1.18 2.28 2.28 0 0 0-.62-.28 1.5 1.5 0 0 0-.37-.05 1.61 1.61 0 0 0-.31 0 1.4 1.4 0 0 0-.35.1 1.14 1.14 0 0 0-.3.18 1.38 1.38 0 0 0-.37.39 2.36 2.36 0 0 0-.25.58c0 .12-.05.24-.07.37a4.12 4.12 0 0 0 0 .48v.51a3.53 3.53 0 0 0 .08.54c.31 1.71.64 3.37 1 5s.68 3 1 4.23.7 2.53 1 3.6.7 2.08 1.06 3a49.73 49.73 0 0 0 2 4.68c.65 1.32 1.26 2.43 1.82 3.43a27.92 27.92 0 0 1 2.29 4.77 15 15 0 0 1 .62 2.71 20.09 20.09 0 0 1 .17 3.33 42.76 42.76 0 0 1-.4 4.71c-.23 1.73-.55 3.57-.92 5.48s-.83 4-1.31 6-1 4.05-1.53 6.17l14.94-3.22a33.94 33.94 0 0 1 2.67-5.79 56 56 0 0 1 4.12-6.2 60.08 60.08 0 0 1 5-5.83 35.85 35.85 0 0 1 5-4.29l.91-.63c2-1.37 4-2.75 5.85-4.28l.83-.69.76-.66.84-.75.88-.82.91-.87.94-.93.93-.94.07-.07 1-1 1.12-1.21 1.14-1.26 1.13-1.3 1.06-1.24a5 5 0 0 0 .33-.42c.09-.13.18-.26.26-.4a3.81 3.81 0 0 0 .2-.41 2.8 2.8 0 0 0 .13-.38 2 2 0 0 0 .08-.62 1.52 1.52 0 0 0-.12-.53 1.59 1.59 0 0 0-.18-.3 1.55 1.55 0 0 0-.25-.26 1.32 1.32 0 0 0-.29-.19 1.19 1.19 0 0 0-.26-.11l-.2-.06a2.44 2.44 0 0 0-.55 0 2.12 2.12 0 0 0-.69.17 2.69 2.69 0 0 0-.34.17 2.47 2.47 0 0 0-.27.21l-.23.23a3.76 3.76 0 0 0-.25.31 1 1 0 0 1-.15.2l-.1.11-.19.21-.14.11a1.66 1.66 0 0 1-.59.27 1.48 1.48 0 0 1-.63 0 1.61 1.61 0 0 1-.6-.22 1.55 1.55 0 0 1-.48-.44l-.11-.08a.79.79 0 0 0-.19-.09h-.34a.3.3 0 0 0-.07.08.31.31 0 0 0 0 .1.56.56 0 0 0 0 .19c.07 1 .21 2.19.21 3.23v.11a1.77 1.77 0 0 1-.06.3l-.06.15-.06.13a1.45 1.45 0 0 1-.17.26c-.54.69-1.11 1.36-1.69 2s-1.17 1.29-1.74 1.88-1.2 1.2-1.78 1.74-1.2 1.07-1.82 1.57-1.27 1-1.87 1.44zm-8.35-9.74l.11.16a1.32 1.32 0 0 1 .12.2 2.4 2.4 0 0 1 .16.27c.14.26.28.52.4.78s.25.61.36.93.2.64.28 1a8.87 8.87 0 0 1 .17 1c0 .32.07.64.08 1s0 .64 0 1 0 .64-.09.94-.11.62-.19.93l.61-.3c.42-.22.81-.43 1.21-.66l.61-.36.79-.51c.29-.19.56-.38.82-.57l.81-.6.81-.64.81-.68.78-.7c.28-.26.54-.5.79-.75l.79-.79c.56-.59 1.1-1.18 1.64-1.79l.52-.6v-1.94-2.53l-12.38 5.37zm12.38 16.9l-1.32.94a66.19 66.19 0 0 0-5.62 4.27 42.88 42.88 0 0 0-5.44 5.85v9.31l12.38 5.22v-25.64zM178 254.52l.63-2.44c.22-.85.47-1.85.76-3 .24-.94.47-1.92.71-2.94s.46-2 .68-3 .42-2 .61-3 .34-1.79.49-2.64.28-1.72.38-2.48.2-1.56.26-2.24.1-1.35.11-2 0-.91 0-1.34-.06-.79-.1-1.14-.11-.68-.18-1a8.76 8.76 0 0 0-.24-.89 24.69 24.69 0 0 0-1.88-3.84c-.14-.24-.28-.51-.42-.76l-.05-.09-.52-1-.5-1c-.17-.32-.34-.65-.5-1s-.4-.81-.55-1.14c-.17-.37-.35-.77-.55-1.23s-.4-.93-.57-1.34-.32-.81-.52-1.33a1.72 1.72 0 0 1-.07-.21c-.16-.42-.33-.89-.52-1.43v-.06c-.18-.51-.36-1.07-.56-1.68s-.37-1.21-.56-1.83-.39-1.38-.56-2l-.09-.33-1.08-.23v49.64l5.42-1.17zm10.79-44.24l.37.83c.11.23.23.49.38.79l.39.76.43.76c.13.23.28.47.43.72s.31.5.44.69l.45.64.05-.18a8.87 8.87 0 0 1 .28-.88v-.07c.12-.3.25-.61.39-.9s.31-.59.48-.87a8.51 8.51 0 0 1 .57-.81l.21-.28.21-.24.24-.26.22-.23-5.89-1.27c.09.24.21.51.33.8zm-22.92-7.34l-4.63-5.57v67l4.63-5.57v-55.86zM375.55 225.7l4.53 5.4a1.15 1.15 0 0 1-.14 1.61l-.18.12-.18.08-.87.32.53 1.46a1.13 1.13 0 0 1 0 .87 1.16 1.16 0 0 1-.65.6l-.58.21a1.16 1.16 0 0 1-.88 0 1.15 1.15 0 0 1-.59-.65l-.53-1.46-.9.33a1.13 1.13 0 0 1-.87 0 1.16 1.16 0 0 1-.6-.65 1.42 1.42 0 0 1 0-.22 1.11 1.11 0 0 1 0-.19v-7a1.13 1.13 0 0 1 .34-.81 1.15 1.15 0 0 1 .81-.34 1.13 1.13 0 0 1 .48.11 1.08 1.08 0 0 1 .4.3z"/>
  <path d="M264.72 246.23c7.36 0 11.06-5 11.06-11.17v-8.42c0-6-3.11-11.14-11.06-11.14s-11.05 5.1-11.05 11.14v8.42c0 6.2 3.7 11.17 11.05 11.17zm0-25.33c3.75 0 5.11 2.3 5.11 5.74v8.42c0 3.4-1.62 5.78-5.11 5.78s-5.1-2.38-5.1-5.78v-8.42c0-3.44 1.36-5.74 5.1-5.74zm21.6-2.68a2.92 2.92 0 0 0-3-2.72 2.88 2.88 0 0 0-3 2.72v25.25a2.88 2.88 0 0 0 3 2.76 2.92 2.92 0 0 0 3-2.76v-9.9h.47l8.54 11.43a3 3 0 0 0 5.35-1.61 2.5 2.5 0 0 0-.46-1.45l-8.38-11.09 8.38-11a2.5 2.5 0 0 0 .46-1.45 2.95 2.95 0 0 0-5.35-1.61l-8.5 11.39h-.51v-9.91zM325 243.47v-25.25a3 3 0 0 0-5.95 0v9.91H310v-9.91a3 3 0 0 0-5.95 0v25.25a3 3 0 0 0 5.95 0v-9.9h9v9.9a3 3 0 0 0 3 2.76 2.91 2.91 0 0 0 3-2.76zm10.63-3.53h9.05l1.49 4.3a3.27 3.27 0 0 0 2.89 2 2.8 2.8 0 0 0 3.06-2.72 3.71 3.71 0 0 0-.12-.93l-8.29-24.19c-.6-1.7-1.45-2.89-3.49-2.89s-2.89 1.24-3.44 2.89l-8.29 24.19a3.72 3.72 0 0 0-.13.93 2.85 2.85 0 0 0 3.06 2.72 3.18 3.18 0 0 0 2.81-2l1.4-4.3zm7.52-4.84h-6l2.26-7.27a26.93 26.93 0 0 0 .76-4.17 25.8 25.8 0 0 0 .77 4.17l2.16 7.27z" fill="#abcb56"/>
  <path d="M361.34 218.22a2.92 2.92 0 0 0-3-2.72 2.89 2.89 0 0 0-3 2.72v25.25a3 3 0 0 0 5.95 0v-9.9h.47l8.59 11.43a3 3 0 0 0 5.36-1.61 2.52 2.52 0 0 0-.47-1.45l-8.38-11.09 8.38-11a2.52 2.52 0 0 0 .47-1.45 3 3 0 0 0-5.36-1.61l-8.5 11.39h-.51v-9.91zm20.83 20c-.13 1.7-.47 2.55-1.15 2.55h-.26c-.38 0-.59-.13-.93-.13a2.66 2.66 0 0 0-2.85 2.81c0 2.68 2.21 2.72 4.51 2.72 4.25 0 6.16-3.36 6.58-8l1.24-16.88h6.63v22.23a2.77 2.77 0 0 0 3 2.68 2.91 2.91 0 0 0 3-2.64V219a3.25 3.25 0 0 0-3.32-3.06H387a3.34 3.34 0 0 0-3.32 3.06l-1.48 19.25zm28.26 8a3.48 3.48 0 0 0 2.85-1.48l9.86-17.18v15.9a3 3 0 0 0 3 2.76 2.84 2.84 0 0 0 2.93-2.76v-25.07a2.93 2.93 0 0 0-3.1-2.89 3.51 3.51 0 0 0-2.89 1.58c-3.78 6.54-6 10.41-9.86 17.25v-16.06a3 3 0 0 0-3-2.77 2.85 2.85 0 0 0-2.93 2.77v25.07a3 3 0 0 0 3.14 2.89zm30-28a3 3 0 0 0-5.95 0v25.25a3 3 0 0 0 5.95 0v-9.9h.47l8.55 11.43a3 3 0 0 0 5.36-1.61 2.52 2.52 0 0 0-.47-1.45L446 230.85l8.37-11a2.52 2.52 0 0 0 .47-1.45 3 3 0 0 0-5.36-1.61L441 228.13h-.51v-9.91z" fill="#6db468"/>
</svg>
